0
SECTION
2
HEADER
9
$INSUNITS
70
4
9
$ACADVER
1
AC1014
9
$HANDSEED
5
FFFF
0
ENDSEC
0
SECTION
2
TABLES
0
TABLE
2
VPORT
5
8
100
AcDbSymbolTable
0
ENDTAB
0
TABLE
2
LTYPE
5
5
100
AcDbSymbolTable
0
LTYPE
5
14
100
AcDbSymbolTableRecord
100
AcDbLinetypeTableRecord
2
BYBLOCK
70
0
0
LTYPE
5
15
100
AcDbSymbolTableRecord
100
AcDbLinetypeTableRecord
2
BYLAYER
70
0
0
ENDTAB
0
TABLE
2
LAYER
5
2
100
AcDbSymbolTable
70
2
0
LAYER
5
50
100
AcDbSymbolTableRecord
100
AcDbLayerTableRecord
2
0
70
0
6
CONTINUOUS
0
ENDTAB
0
TABLE
2
STYLE
5
3
100
AcDbSymbolTable
70
1
0
STYLE
5
11
100
AcDbSymbolTableRecord
100
AcDbTextStyleTableRecord
2
STANDARD
70
0
0
ENDTAB
0
TABLE
2
VIEW
5
6
100
AcDbSymbolTable
70
0
0
ENDTAB
0
TABLE
2
UCS
5
7
100
AcDbSymbolTable
70
0
0
ENDTAB
0
TABLE
2
APPID
5
9
100
AcDbSymbolTable
70
2
0
APPID
5
12
100
AcDbSymbolTableRecord
100
AcDbRegAppTableRecord
2
ACAD
70
0
0
ENDTAB
0
TABLE
2
DIMSTYLE
5
A
100
AcDbSymbolTable
70
1
0
ENDTAB
0
TABLE
2
BLOCK_RECORD
5
1
100
AcDbSymbolTable
70
1
0
BLOCK_RECORD
5
1F
100
AcDbSymbolTableRecord
100
AcDbBlockTableRecord
2
*MODEL_SPACE
0
BLOCK_RECORD
5
1B
100
AcDbSymbolTableRecord
100
AcDbBlockTableRecord
2
*PAPER_SPACE
0
ENDTAB
0
ENDSEC
0
SECTION
2
BLOCKS
0
BLOCK
5
20
100
AcDbEntity
100
AcDbBlockBegin
2
*MODEL_SPACE
0
ENDBLK
5
21
100
AcDbEntity
100
AcDbBlockEnd
0
BLOCK
5
1C
100
AcDbEntity
100
AcDbBlockBegin
2
*PAPER_SPACE
0
ENDBLK
5
1D
100
AcDbEntity
100
AcDbBlockEnd
0
ENDSEC
0
SECTION
2
ENTITIES
0
LWPOLYLINE
5
100
100
AcDbEntity
8
0
100
AcDbPolyline
90
4
70
1
43
0.0
10
-279
20
0
10
-279
20
-28
10
-307
20
-28
10
-307
20
0
0
LINE
5
101
100
AcDbEntity
8
0
100
AcDbLine
10
-510
20
-145
30
0
11
-510
21
-173
31
0
0
LINE
5
102
100
AcDbEntity
8
0
100
AcDbLine
10
-510
20
-173
30
0
11
-510
21
-145
31
0
0
LINE
5
103
100
AcDbEntity
8
0
100
AcDbLine
10
-452
20
-56.999999999999993
30
0
11
-424
21
-56.999999999999993
31
0
0
LINE
5
104
100
AcDbEntity
8
0
100
AcDbLine
10
-424
20
-56.999999999999993
30
0
11
-452
21
-56.999999999999993
31
0
0
LINE
5
105
100
AcDbEntity
8
0
100
AcDbLine
10
-482
20
-145
30
0
11
-510
21
-145
31
0
0
LINE
5
106
100
AcDbEntity
8
0
100
AcDbLine
10
-510
20
-145
30
0
11
-482
21
-145
31
0
0
LINE
5
107
100
AcDbEntity
8
0
100
AcDbLine
10
-482
20
-173
30
0
11
-482
21
-145
31
0
0
LINE
5
108
100
AcDbEntity
8
0
100
AcDbLine
10
-482
20
-145
30
0
11
-482
21
-173
31
0
0
LWPOLYLINE
5
109
100
AcDbEntity
8
0
100
AcDbPolyline
90
4
70
1
43
0.0
10
-366
20
-87
10
-366
20
-115
10
-394
20
-115
10
-394
20
-87
0
LWPOLYLINE
5
110
100
AcDbEntity
8
0
100
AcDbPolyline
90
4
70
1
43
0.0
10
-366
20
-115
10
-366
20
-87
10
-394
20
-87
10
-394
20
-115
0
LINE
5
111
100
AcDbEntity
8
0
100
AcDbLine
10
-510
20
-173
30
0
11
-482
21
-173
31
0
0
LINE
5
112
100
AcDbEntity
8
0
100
AcDbLine
10
-482
20
-173
30
0
11
-510
21
-173
31
0
0
LINE
5
113
100
AcDbEntity
8
0
100
AcDbLine
10
-279
20
0
30
0
11
-307
21
0
31
0
0
LINE
5
114
100
AcDbEntity
8
0
100
AcDbLine
10
-307
20
0
30
0
11
-279
21
0
31
0
0
LWPOLYLINE
5
115
100
AcDbEntity
8
0
100
AcDbPolyline
90
4
70
1
43
0.0
10
-482
20
-115
10
-482
20
-87
10
-510
20
-87
10
-510
20
-115
0
LINE
5
116
100
AcDbEntity
8
0
100
AcDbLine
10
-510
20
-115
30
0
11
-482
21
-115
31
0
0
LINE
5
117
100
AcDbEntity
8
0
100
AcDbLine
10
-482
20
-115
30
0
11
-510
21
-115
31
0
0
LINE
5
118
100
AcDbEntity
8
0
100
AcDbLine
10
-394
20
-87
30
0
11
-394
21
-115
31
0
0
LINE
5
119
100
AcDbEntity
8
0
100
AcDbLine
10
-394
20
-115
30
0
11
-394
21
-87
31
0
0
LWPOLYLINE
5
120
100
AcDbEntity
8
0
100
AcDbPolyline
90
4
70
1
43
0.0
10
-482
20
-87
10
-482
20
-115
10
-510
20
-115
10
-510
20
-87
0
LINE
5
121
100
AcDbEntity
8
0
100
AcDbLine
10
-394
20
-115
30
0
11
-366
21
-115
31
0
0
LINE
5
122
100
AcDbEntity
8
0
100
AcDbLine
10
-366
20
-115
30
0
11
-394
21
-115
31
0
0
LWPOLYLINE
5
123
100
AcDbEntity
8
0
100
AcDbPolyline
90
4
70
1
43
0.0
10
-453
20
-86
10
-453
20
-58
10
-481
20
-58
10
-481
20
-86
0
LINE
5
124
100
AcDbEntity
8
0
100
AcDbLine
10
-510
20
-87
30
0
11
-510
21
-115
31
0
0
LINE
5
125
100
AcDbEntity
8
0
100
AcDbLine
10
-510
20
-115
30
0
11
-510
21
-87
31
0
0
LINE
5
126
100
AcDbEntity
8
0
100
AcDbLine
10
-366
20
-115
30
0
11
-366
21
-87
31
0
0
LINE
5
127
100
AcDbEntity
8
0
100
AcDbLine
10
-366
20
-87
30
0
11
-366
21
-115
31
0
0
LINE
5
128
100
AcDbEntity
8
0
100
AcDbLine
10
-366
20
-87
30
0
11
-394
21
-87
31
0
0
LINE
5
129
100
AcDbEntity
8
0
100
AcDbLine
10
-394
20
-87
30
0
11
-366
21
-87
31
0
0
LWPOLYLINE
5
130
100
AcDbEntity
8
0
100
AcDbPolyline
90
4
70
1
43
0.0
10
-308
20
-87
10
-308
20
-115
10
-336
20
-115
10
-336
20
-87
0
LINE
5
131
100
AcDbEntity
8
0
100
AcDbLine
10
-482
20
-115
30
0
11
-482
21
-87
31
0
0
LINE
5
132
100
AcDbEntity
8
0
100
AcDbLine
10
-482
20
-87
30
0
11
-482
21
-115
31
0
0
LWPOLYLINE
5
133
100
AcDbEntity
8
0
100
AcDbPolyline
90
4
70
1
43
0.0
10
-424
20
-232
10
-424
20
-260
10
-452
20
-260
10
-452
20
-232
0
LINE
5
134
100
AcDbEntity
8
0
100
AcDbLine
10
-307
20
-28
30
0
11
-279
21
-28
31
0
0
LINE
5
135
100
AcDbEntity
8
0
100
AcDbLine
10
-279
20
-28
30
0
11
-307
21
-28
31
0
0
LWPOLYLINE
5
136
100
AcDbEntity
8
0
100
AcDbPolyline
90
4
70
1
43
0.0
10
-308
20
-115
10
-308
20
-87
10
-336
20
-87
10
-336
20
-115
0
LINE
5
137
100
AcDbEntity
8
0
100
AcDbLine
10
-307
20
0
30
0
11
-307
21
-28
31
0
0
LINE
5
138
100
AcDbEntity
8
0
100
AcDbLine
10
-307
20
-28
30
0
11
-307
21
0
31
0
0
LINE
5
139
100
AcDbEntity
8
0
100
AcDbLine
10
-424
20
-260
30
0
11
-424
21
-232
31
0
0
LINE
5
140
100
AcDbEntity
8
0
100
AcDbLine
10
-424
20
-232
30
0
11
-424
21
-260
31
0
0
LINE
5
141
100
AcDbEntity
8
0
100
AcDbLine
10
-308
20
-115
30
0
11
-308
21
-87
31
0
0
LINE
5
142
100
AcDbEntity
8
0
100
AcDbLine
10
-308
20
-87
30
0
11
-308
21
-115
31
0
0
LINE
5
143
100
AcDbEntity
8
0
100
AcDbLine
10
-482
20
-87
30
0
11
-510
21
-87
31
0
0
LINE
5
144
100
AcDbEntity
8
0
100
AcDbLine
10
-510
20
-87
30
0
11
-482
21
-87
31
0
0
LWPOLYLINE
5
145
100
AcDbEntity
8
0
100
AcDbPolyline
90
4
70
1
43
0.0
10
-424
20
-260
10
-424
20
-232
10
-452
20
-232
10
-452
20
-260
0
LWPOLYLINE
5
146
100
AcDbEntity
8
0
100
AcDbPolyline
90
4
70
1
43
0.0
10
-337
20
-86
10
-337
20
-58
10
-365
20
-58
10
-365
20
-86
0
LWPOLYLINE
5
147
100
AcDbEntity
8
0
100
AcDbPolyline
90
4
70
1
43
0.0
10
-279
20
-87
10
-279
20
-115
10
-307
20
-115
10
-307
20
-87
0
LINE
5
148
100
AcDbEntity
8
0
100
AcDbLine
10
-481
20
-58
30
0
11
-481
21
-86
31
0
0
LINE
5
149
100
AcDbEntity
8
0
100
AcDbLine
10
-481
20
-86
30
0
11
-481
21
-58
31
0
0
LINE
5
150
100
AcDbEntity
8
0
100
AcDbLine
10
-452
20
-260
30
0
11
-424
21
-260
31
0
0
LINE
5
151
100
AcDbEntity
8
0
100
AcDbLine
10
-424
20
-260
30
0
11
-452
21
-260
31
0
0
LINE
5
152
100
AcDbEntity
8
0
100
AcDbLine
10
-336
20
-115
30
0
11
-308
21
-115
31
0
0
LINE
5
153
100
AcDbEntity
8
0
100
AcDbLine
10
-308
20
-115
30
0
11
-336
21
-115
31
0
0
LINE
5
154
100
AcDbEntity
8
0
100
AcDbLine
10
-452
20
-232
30
0
11
-452
21
-260
31
0
0
LINE
5
155
100
AcDbEntity
8
0
100
AcDbLine
10
-452
20
-260
30
0
11
-452
21
-232
31
0
0
LINE
5
156
100
AcDbEntity
8
0
100
AcDbLine
10
-365
20
-86
30
0
11
-337
21
-86
31
0
0
LINE
5
157
100
AcDbEntity
8
0
100
AcDbLine
10
-337
20
-86
30
0
11
-365
21
-86
31
0
0
LINE
5
158
100
AcDbEntity
8
0
100
AcDbLine
10
-307
20
-260
30
0
11
-279
21
-260
31
0
0
LINE
5
159
100
AcDbEntity
8
0
100
AcDbLine
10
-279
20
-260
30
0
11
-307
21
-260
31
0
0
LINE
5
160
100
AcDbEntity
8
0
100
AcDbLine
10
-395
20
-56.999999999999993
30
0
11
-395
21
-29
31
0
0
LINE
5
161
100
AcDbEntity
8
0
100
AcDbLine
10
-395
20
-29
30
0
11
-395
21
-56.999999999999993
31
0
0
LINE
5
162
100
AcDbEntity
8
0
100
AcDbLine
10
-307
20
-232
30
0
11
-307
21
-260
31
0
0
LINE
5
163
100
AcDbEntity
8
0
100
AcDbLine
10
-307
20
-260
30
0
11
-307
21
-232
31
0
0
LWPOLYLINE
5
164
100
AcDbEntity
8
0
100
AcDbPolyline
90
4
70
1
43
0.0
10
-279
20
-232
10
-279
20
-260
10
-307
20
-260
10
-307
20
-232
0
LINE
5
165
100
AcDbEntity
8
0
100
AcDbLine
10
-337
20
-58
30
0
11
-365
21
-58
31
0
0
LINE
5
166
100
AcDbEntity
8
0
100
AcDbLine
10
-365
20
-58
30
0
11
-337
21
-58
31
0
0
LWPOLYLINE
5
167
100
AcDbEntity
8
0
100
AcDbPolyline
90
4
70
1
43
0.0
10
-337
20
-58
10
-337
20
-86
10
-365
20
-86
10
-365
20
-58
0
LINE
5
168
100
AcDbEntity
8
0
100
AcDbLine
10
-423
20
-115
30
0
11
-395
21
-115
31
0
0
LINE
5
169
100
AcDbEntity
8
0
100
AcDbLine
10
-395
20
-115
30
0
11
-423
21
-115
31
0
0
LINE
5
170
100
AcDbEntity
8
0
100
AcDbLine
10
-395
20
-87
30
0
11
-423
21
-87
31
0
0
LINE
5
171
100
AcDbEntity
8
0
100
AcDbLine
10
-423
20
-87
30
0
11
-395
21
-87
31
0
0
LINE
5
172
100
AcDbEntity
8
0
100
AcDbLine
10
-307
20
-115
30
0
11
-279
21
-115
31
0
0
LINE
5
173
100
AcDbEntity
8
0
100
AcDbLine
10
-279
20
-115
30
0
11
-307
21
-115
31
0
0
LINE
5
174
100
AcDbEntity
8
0
100
AcDbLine
10
-337
20
-86
30
0
11
-337
21
-58
31
0
0
LINE
5
175
100
AcDbEntity
8
0
100
AcDbLine
10
-337
20
-58
30
0
11
-337
21
-86
31
0
0
LINE
5
176
100
AcDbEntity
8
0
100
AcDbLine
10
-279
20
-232
30
0
11
-307
21
-232
31
0
0
LINE
5
177
100
AcDbEntity
8
0
100
AcDbLine
10
-307
20
-232
30
0
11
-279
21
-232
31
0
0
LINE
5
178
100
AcDbEntity
8
0
100
AcDbLine
10
-279
20
-115
30
0
11
-279
21
-87
31
0
0
LINE
5
179
100
AcDbEntity
8
0
100
AcDbLine
10
-279
20
-87
30
0
11
-279
21
-115
31
0
0
LWPOLYLINE
5
180
100
AcDbEntity
8
0
100
AcDbPolyline
90
4
70
1
43
0.0
10
-395
20
-29
10
-395
20
-56.999999999999993
10
-423
20
-56.999999999999993
10
-423
20
-29
0
LWPOLYLINE
5
181
100
AcDbEntity
8
0
100
AcDbPolyline
90
4
70
1
43
0.0
10
-279
20
-115
10
-279
20
-87
10
-307
20
-87
10
-307
20
-115
0
LINE
5
182
100
AcDbEntity
8
0
100
AcDbLine
10
-453
20
-58
30
0
11
-481
21
-58
31
0
0
LINE
5
183
100
AcDbEntity
8
0
100
AcDbLine
10
-481
20
-58
30
0
11
-453
21
-58
31
0
0
LINE
5
184
100
AcDbEntity
8
0
100
AcDbLine
10
-395
20
-115
30
0
11
-395
21
-87
31
0
0
LINE
5
185
100
AcDbEntity
8
0
100
AcDbLine
10
-395
20
-87
30
0
11
-395
21
-115
31
0
0
LINE
5
186
100
AcDbEntity
8
0
100
AcDbLine
10
-336
20
-87
30
0
11
-336
21
-115
31
0
0
LINE
5
187
100
AcDbEntity
8
0
100
AcDbLine
10
-336
20
-115
30
0
11
-336
21
-87
31
0
0
LINE
5
188
100
AcDbEntity
8
0
100
AcDbLine
10
-453
20
-86
30
0
11
-453
21
-58
31
0
0
LINE
5
189
100
AcDbEntity
8
0
100
AcDbLine
10
-453
20
-58
30
0
11
-453
21
-86
31
0
0
LINE
5
190
100
AcDbEntity
8
0
100
AcDbLine
10
-424
20
-232
30
0
11
-452
21
-232
31
0
0
LINE
5
191
100
AcDbEntity
8
0
100
AcDbLine
10
-452
20
-232
30
0
11
-424
21
-232
31
0
0
LINE
5
192
100
AcDbEntity
8
0
100
AcDbLine
10
-308
20
-87
30
0
11
-336
21
-87
31
0
0
LINE
5
193
100
AcDbEntity
8
0
100
AcDbLine
10
-336
20
-87
30
0
11
-308
21
-87
31
0
0
LWPOLYLINE
5
194
100
AcDbEntity
8
0
100
AcDbPolyline
90
4
70
1
43
0.0
10
-453
20
-58
10
-453
20
-86
10
-481
20
-86
10
-481
20
-58
0
LWPOLYLINE
5
195
100
AcDbEntity
8
0
100
AcDbPolyline
90
4
70
1
43
0.0
10
-395
20
-115
10
-395
20
-87
10
-423
20
-87
10
-423
20
-115
0
LINE
5
196
100
AcDbEntity
8
0
100
AcDbLine
10
-395
20
-29
30
0
11
-423
21
-29
31
0
0
LINE
5
197
100
AcDbEntity
8
0
100
AcDbLine
10
-423
20
-29
30
0
11
-395
21
-29
31
0
0
LWPOLYLINE
5
198
100
AcDbEntity
8
0
100
AcDbPolyline
90
4
70
1
43
0.0
10
-395
20
-87
10
-395
20
-115
10
-423
20
-115
10
-423
20
-87
0
LINE
5
199
100
AcDbEntity
8
0
100
AcDbLine
10
-279
20
-87
30
0
11
-307
21
-87
31
0
0
LINE
5
200
100
AcDbEntity
8
0
100
AcDbLine
10
-307
20
-87
30
0
11
-279
21
-87
31
0
0
LINE
5
201
100
AcDbEntity
8
0
100
AcDbLine
10
-365
20
-58
30
0
11
-365
21
-86
31
0
0
LINE
5
202
100
AcDbEntity
8
0
100
AcDbLine
10
-365
20
-86
30
0
11
-365
21
-58
31
0
0
LINE
5
203
100
AcDbEntity
8
0
100
AcDbLine
10
-307
20
-87
30
0
11
-307
21
-115
31
0
0
LINE
5
204
100
AcDbEntity
8
0
100
AcDbLine
10
-307
20
-115
30
0
11
-307
21
-87
31
0
0
LINE
5
205
100
AcDbEntity
8
0
100
AcDbLine
10
-279
20
-260
30
0
11
-279
21
-232
31
0
0
LINE
5
206
100
AcDbEntity
8
0
100
AcDbLine
10
-279
20
-232
30
0
11
-279
21
-260
31
0
0
LINE
5
207
100
AcDbEntity
8
0
100
AcDbLine
10
-423
20
-56.999999999999993
30
0
11
-395
21
-56.999999999999993
31
0
0
LINE
5
208
100
AcDbEntity
8
0
100
AcDbLine
10
-395
20
-56.999999999999993
30
0
11
-423
21
-56.999999999999993
31
0
0
LWPOLYLINE
5
209
100
AcDbEntity
8
0
100
AcDbPolyline
90
4
70
1
43
0.0
10
-395
20
-56.999999999999993
10
-395
20
-29
10
-423
20
-29
10
-423
20
-56.999999999999993
0
LINE
5
210
100
AcDbEntity
8
0
100
AcDbLine
10
-423
20
-29
30
0
11
-423
21
-56.999999999999993
31
0
0
LINE
5
211
100
AcDbEntity
8
0
100
AcDbLine
10
-423
20
-56.999999999999993
30
0
11
-423
21
-29
31
0
0
LWPOLYLINE
5
212
100
AcDbEntity
8
0
100
AcDbPolyline
90
4
70
1
43
0.0
10
-279
20
-260
10
-279
20
-232
10
-307
20
-232
10
-307
20
-260
0
LINE
5
213
100
AcDbEntity
8
0
100
AcDbLine
10
-423
20
-87
30
0
11
-423
21
-115
31
0
0
LINE
5
214
100
AcDbEntity
8
0
100
AcDbLine
10
-423
20
-115
30
0
11
-423
21
-87
31
0
0
LINE
5
215
100
AcDbEntity
8
0
100
AcDbLine
10
-481
20
-86
30
0
11
-453
21
-86
31
0
0
LINE
5
216
100
AcDbEntity
8
0
100
AcDbLine
10
-453
20
-86
30
0
11
-481
21
-86
31
0
0
LWPOLYLINE
5
217
100
AcDbEntity
8
0
100
AcDbPolyline
90
4
70
1
43
0.0
10
-279
20
-203
10
-279
20
-231
10
-307
20
-231
10
-307
20
-203
0
LWPOLYLINE
5
218
100
AcDbEntity
8
0
100
AcDbPolyline
90
4
70
1
43
0.0
10
-337
20
-29
10
-337
20
-56.999999999999993
10
-365
20
-56.999999999999993
10
-365
20
-29
0
LINE
5
219
100
AcDbEntity
8
0
100
AcDbLine
10
-336
20
-144
30
0
11
-308
21
-144
31
0
0
LINE
5
220
100
AcDbEntity
8
0
100
AcDbLine
10
-308
20
-144
30
0
11
-336
21
-144
31
0
0
LINE
5
221
100
AcDbEntity
8
0
100
AcDbLine
10
-307
20
-173
30
0
11
-279
21
-173
31
0
0
LINE
5
222
100
AcDbEntity
8
0
100
AcDbLine
10
-279
20
-173
30
0
11
-307
21
-173
31
0
0
LWPOLYLINE
5
223
100
AcDbEntity
8
0
100
AcDbPolyline
90
4
70
1
43
0.0
10
-279
20
-56.999999999999993
10
-279
20
-29
10
-307
20
-29
10
-307
20
-56.999999999999993
0
LINE
5
224
100
AcDbEntity
8
0
100
AcDbLine
10
-307
20
-231
30
0
11
-279
21
-231
31
0
0
LINE
5
225
100
AcDbEntity
8
0
100
AcDbLine
10
-279
20
-231
30
0
11
-307
21
-231
31
0
0
LINE
5
226
100
AcDbEntity
8
0
100
AcDbLine
10
-308
20
-116
30
0
11
-336
21
-116
31
0
0
LINE
5
227
100
AcDbEntity
8
0
100
AcDbLine
10
-336
20
-116
30
0
11
-308
21
-116
31
0
0
LINE
5
228
100
AcDbEntity
8
0
100
AcDbLine
10
-279
20
-203
30
0
11
-307
21
-203
31
0
0
LINE
5
229
100
AcDbEntity
8
0
100
AcDbLine
10
-307
20
-203
30
0
11
-279
21
-203
31
0
0
LINE
5
230
100
AcDbEntity
8
0
100
AcDbLine
10
-308
20
-174
30
0
11
-336
21
-174
31
0
0
LINE
5
231
100
AcDbEntity
8
0
100
AcDbLine
10
-336
20
-174
30
0
11
-308
21
-174
31
0
0
LINE
5
232
100
AcDbEntity
8
0
100
AcDbLine
10
-279
20
-231
30
0
11
-279
21
-203
31
0
0
LINE
5
233
100
AcDbEntity
8
0
100
AcDbLine
10
-279
20
-203
30
0
11
-279
21
-231
31
0
0
LWPOLYLINE
5
234
100
AcDbEntity
8
0
100
AcDbPolyline
90
4
70
1
43
0.0
10
-308
20
-232
10
-308
20
-260
10
-336
20
-260
10
-336
20
-232
0
LWPOLYLINE
5
235
100
AcDbEntity
8
0
100
AcDbPolyline
90
4
70
1
43
0.0
10
-279
20
-173
10
-279
20
-145
10
-307
20
-145
10
-307
20
-173
0
LINE
5
236
100
AcDbEntity
8
0
100
AcDbLine
10
-365
20
-231
30
0
11
-337
21
-231
31
0
0
LINE
5
237
100
AcDbEntity
8
0
100
AcDbLine
10
-337
20
-231
30
0
11
-365
21
-231
31
0
0
LINE
5
238
100
AcDbEntity
8
0
100
AcDbLine
10
-278
20
-58
30
0
11
-278
21
-86
31
0
0
LINE
5
239
100
AcDbEntity
8
0
100
AcDbLine
10
-278
20
-86
30
0
11
-278
21
-58
31
0
0
LINE
5
240
100
AcDbEntity
8
0
100
AcDbLine
10
-336
20
-116
30
0
11
-336
21
-144
31
0
0
LINE
5
241
100
AcDbEntity
8
0
100
AcDbLine
10
-336
20
-144
30
0
11
-336
21
-116
31
0
0
LWPOLYLINE
5
242
100
AcDbEntity
8
0
100
AcDbPolyline
90
4
70
1
43
0.0
10
-308
20
-144
10
-308
20
-116
10
-336
20
-116
10
-336
20
-144
0
LINE
5
243
100
AcDbEntity
8
0
100
AcDbLine
10
-337
20
-56.999999999999993
30
0
11
-337
21
-29
31
0
0
LINE
5
244
100
AcDbEntity
8
0
100
AcDbLine
10
-337
20
-29
30
0
11
-337
21
-56.999999999999993
31
0
0
LINE
5
245
100
AcDbEntity
8
0
100
AcDbLine
10
-307
20
-56.999999999999993
30
0
11
-279
21
-56.999999999999993
31
0
0
LINE
5
246
100
AcDbEntity
8
0
100
AcDbLine
10
-279
20
-56.999999999999993
30
0
11
-307
21
-56.999999999999993
31
0
0
LINE
5
247
100
AcDbEntity
8
0
100
AcDbLine
10
-307
20
-29
30
0
11
-307
21
-56.999999999999993
31
0
0
LINE
5
248
100
AcDbEntity
8
0
100
AcDbLine
10
-307
20
-56.999999999999993
30
0
11
-307
21
-29
31
0
0
LINE
5
249
100
AcDbEntity
8
0
100
AcDbLine
10
-308
20
-144
30
0
11
-308
21
-116
31
0
0
LINE
5
250
100
AcDbEntity
8
0
100
AcDbLine
10
-308
20
-116
30
0
11
-308
21
-144
31
0
0
LWPOLYLINE
5
251
100
AcDbEntity
8
0
100
AcDbPolyline
90
4
70
1
43
0.0
10
-279
20
-29
10
-279
20
-56.999999999999993
10
-307
20
-56.999999999999993
10
-307
20
-29
0
LWPOLYLINE
5
252
100
AcDbEntity
8
0
100
AcDbPolyline
90
4
70
1
43
0.0
10
-308
20
-116
10
-308
20
-144
10
-336
20
-144
10
-336
20
-116
0
LINE
5
253
100
AcDbEntity
8
0
100
AcDbLine
10
-279
20
-56.999999999999993
30
0
11
-279
21
-29
31
0
0
LINE
5
254
100
AcDbEntity
8
0
100
AcDbLine
10
-279
20
-29
30
0
11
-279
21
-56.999999999999993
31
0
0
LINE
5
255
100
AcDbEntity
8
0
100
AcDbLine
10
-279
20
-29
30
0
11
-307
21
-29
31
0
0
LINE
5
256
100
AcDbEntity
8
0
100
AcDbLine
10
-307
20
-29
30
0
11
-279
21
-29
31
0
0
LWPOLYLINE
5
257
100
AcDbEntity
8
0
100
AcDbPolyline
90
4
70
1
43
0.0
10
-279
20
-145
10
-279
20
-173
10
-307
20
-173
10
-307
20
-145
0
LWPOLYLINE
5
258
100
AcDbEntity
8
0
100
AcDbPolyline
90
4
70
1
43
0.0
10
-337
20
-56.999999999999993
10
-337
20
-29
10
-365
20
-29
10
-365
20
-56.999999999999993
0
LINE
5
259
100
AcDbEntity
8
0
100
AcDbLine
10
-279
20
-145
30
0
11
-307
21
-145
31
0
0
LINE
5
260
100
AcDbEntity
8
0
100
AcDbLine
10
-307
20
-145
30
0
11
-279
21
-145
31
0
0
LINE
5
261
100
AcDbEntity
8
0
100
AcDbLine
10
-336
20
-202
30
0
11
-308
21
-202
31
0
0
LINE
5
262
100
AcDbEntity
8
0
100
AcDbLine
10
-308
20
-202
30
0
11
-336
21
-202
31
0
0
LINE
5
263
100
AcDbEntity
8
0
100
AcDbLine
10
-337
20
-29
30
0
11
-365
21
-29
31
0
0
LINE
5
264
100
AcDbEntity
8
0
100
AcDbLine
10
-365
20
-29
30
0
11
-337
21
-29
31
0
0
LINE
5
265
100
AcDbEntity
8
0
100
AcDbLine
10
-308
20
-202
30
0
11
-308
21
-174
31
0
0
LINE
5
266
100
AcDbEntity
8
0
100
AcDbLine
10
-308
20
-174
30
0
11
-308
21
-202
31
0
0
LWPOLYLINE
5
267
100
AcDbEntity
8
0
100
AcDbPolyline
90
4
70
1
43
0.0
10
-308
20
-174
10
-308
20
-202
10
-336
20
-202
10
-336
20
-174
0
LWPOLYLINE
5
268
100
AcDbEntity
8
0
100
AcDbPolyline
90
4
70
1
43
0.0
10
-308
20
-202
10
-308
20
-174
10
-336
20
-174
10
-336
20
-202
0
LINE
5
269
100
AcDbEntity
8
0
100
AcDbLine
10
-307
20
-145
30
0
11
-307
21
-173
31
0
0
LINE
5
270
100
AcDbEntity
8
0
100
AcDbLine
10
-307
20
-173
30
0
11
-307
21
-145
31
0
0
LINE
5
271
100
AcDbEntity
8
0
100
AcDbLine
10
-279
20
-173
30
0
11
-279
21
-145
31
0
0
LINE
5
272
100
AcDbEntity
8
0
100
AcDbLine
10
-279
20
-145
30
0
11
-279
21
-173
31
0
0
LINE
5
273
100
AcDbEntity
8
0
100
AcDbLine
10
-336
20
-174
30
0
11
-336
21
-202
31
0
0
LINE
5
274
100
AcDbEntity
8
0
100
AcDbLine
10
-336
20
-202
30
0
11
-336
21
-174
31
0
0
LINE
5
275
100
AcDbEntity
8
0
100
AcDbLine
10
-307
20
-203
30
0
11
-307
21
-231
31
0
0
LINE
5
276
100
AcDbEntity
8
0
100
AcDbLine
10
-307
20
-231
30
0
11
-307
21
-203
31
0
0
LINE
5
277
100
AcDbEntity
8
0
100
AcDbLine
10
-365
20
-203
30
0
11
-365
21
-231
31
0
0
LINE
5
278
100
AcDbEntity
8
0
100
AcDbLine
10
-365
20
-231
30
0
11
-365
21
-203
31
0
0
LINE
5
279
100
AcDbEntity
8
0
100
AcDbLine
10
-337
20
-203
30
0
11
-365
21
-203
31
0
0
LINE
5
280
100
AcDbEntity
8
0
100
AcDbLine
10
-365
20
-203
30
0
11
-337
21
-203
31
0
0
LWPOLYLINE
5
281
100
AcDbEntity
8
0
100
AcDbPolyline
90
4
70
1
43
0.0
10
-337
20
-231
10
-337
20
-203
10
-365
20
-203
10
-365
20
-231
0
LINE
5
282
100
AcDbEntity
8
0
100
AcDbLine
10
-336
20
-260
30
0
11
-308
21
-260
31
0
0
LINE
5
283
100
AcDbEntity
8
0
100
AcDbLine
10
-308
20
-260
30
0
11
-336
21
-260
31
0
0
LINE
5
284
100
AcDbEntity
8
0
100
AcDbLine
10
-336
20
-232
30
0
11
-336
21
-260
31
0
0
LINE
5
285
100
AcDbEntity
8
0
100
AcDbLine
10
-336
20
-260
30
0
11
-336
21
-232
31
0
0
LWPOLYLINE
5
286
100
AcDbEntity
8
0
100
AcDbPolyline
90
4
70
1
43
0.0
10
-337
20
-203
10
-337
20
-231
10
-365
20
-231
10
-365
20
-203
0
LINE
5
287
100
AcDbEntity
8
0
100
AcDbLine
10
-308
20
-232
30
0
11
-336
21
-232
31
0
0
LINE
5
288
100
AcDbEntity
8
0
100
AcDbLine
10
-336
20
-232
30
0
11
-308
21
-232
31
0
0
LINE
5
289
100
AcDbEntity
8
0
100
AcDbLine
10
-308
20
-260
30
0
11
-308
21
-232
31
0
0
LINE
5
290
100
AcDbEntity
8
0
100
AcDbLine
10
-308
20
-232
30
0
11
-308
21
-260
31
0
0
LWPOLYLINE
5
291
100
AcDbEntity
8
0
100
AcDbPolyline
90
4
70
1
43
0.0
10
-279
20
-231
10
-279
20
-203
10
-307
20
-203
10
-307
20
-231
0
LINE
5
292
100
AcDbEntity
8
0
100
AcDbLine
10
-337
20
-231
30
0
11
-337
21
-203
31
0
0
LINE
5
293
100
AcDbEntity
8
0
100
AcDbLine
10
-337
20
-203
30
0
11
-337
21
-231
31
0
0
LWPOLYLINE
5
294
100
AcDbEntity
8
0
100
AcDbPolyline
90
4
70
1
43
0.0
10
-308
20
-260
10
-308
20
-232
10
-336
20
-232
10
-336
20
-260
0
LINE
5
295
100
AcDbEntity
8
0
100
AcDbLine
10
-278
20
-86
30
0
11
-250
21
-86
31
0
0
LINE
5
296
100
AcDbEntity
8
0
100
AcDbLine
10
-250
20
-86
30
0
11
-278
21
-86
31
0
0
LINE
5
297
100
AcDbEntity
8
0
100
AcDbLine
10
-308
20
-145
30
0
11
-336
21
-145
31
0
0
LINE
5
298
100
AcDbEntity
8
0
100
AcDbLine
10
-336
20
-145
30
0
11
-308
21
-145
31
0
0
LWPOLYLINE
5
299
100
AcDbEntity
8
0
100
AcDbPolyline
90
4
70
1
43
0.0
10
-366
20
-173
10
-366
20
-145
10
-394
20
-145
10
-394
20
-173
0
LINE
5
300
100
AcDbEntity
8
0
100
AcDbLine
10
-336
20
-145
30
0
11
-336
21
-173
31
0
0
LINE
5
301
100
AcDbEntity
8
0
100
AcDbLine
10
-336
20
-173
30
0
11
-336
21
-145
31
0
0
LWPOLYLINE
5
302
100
AcDbEntity
8
0
100
AcDbPolyline
90
4
70
1
43
0.0
10
-279
20
-58
10
-279
20
-86
10
-307
20
-86
10
-307
20
-58
0
LWPOLYLINE
5
303
100
AcDbEntity
8
0
100
AcDbPolyline
90
4
70
1
43
0.0
10
-308
20
-145
10
-308
20
-173
10
-336
20
-173
10
-336
20
-145
0
LINE
5
304
100
AcDbEntity
8
0
100
AcDbLine
10
-424
20
-145
30
0
11
-452
21
-145
31
0
0
LINE
5
305
100
AcDbEntity
8
0
100
AcDbLine
10
-452
20
-145
30
0
11
-424
21
-145
31
0
0
LINE
5
306
100
AcDbEntity
8
0
100
AcDbLine
10
-279
20
-58
30
0
11
-307
21
-58
31
0
0
LINE
5
307
100
AcDbEntity
8
0
100
AcDbLine
10
-307
20
-58
30
0
11
-279
21
-58
31
0
0
LINE
5
308
100
AcDbEntity
8
0
100
AcDbLine
10
-307
20
-86
30
0
11
-279
21
-86
31
0
0
LINE
5
309
100
AcDbEntity
8
0
100
AcDbLine
10
-279
20
-86
30
0
11
-307
21
-86
31
0
0
LINE
5
310
100
AcDbEntity
8
0
100
AcDbLine
10
-336
20
-173
30
0
11
-308
21
-173
31
0
0
LINE
5
311
100
AcDbEntity
8
0
100
AcDbLine
10
-308
20
-173
30
0
11
-336
21
-173
31
0
0
LINE
5
312
100
AcDbEntity
8
0
100
AcDbLine
10
-250
20
-145
30
0
11
-278
21
-145
31
0
0
LINE
5
313
100
AcDbEntity
8
0
100
AcDbLine
10
-278
20
-145
30
0
11
-250
21
-145
31
0
0
LINE
5
314
100
AcDbEntity
8
0
100
AcDbLine
10
-278
20
-173
30
0
11
-250
21
-173
31
0
0
LINE
5
315
100
AcDbEntity
8
0
100
AcDbLine
10
-250
20
-173
30
0
11
-278
21
-173
31
0
0
LINE
5
316
100
AcDbEntity
8
0
100
AcDbLine
10
-452
20
-145
30
0
11
-452
21
-173
31
0
0
LINE
5
317
100
AcDbEntity
8
0
100
AcDbLine
10
-452
20
-173
30
0
11
-452
21
-145
31
0
0
LINE
5
318
100
AcDbEntity
8
0
100
AcDbLine
10
-308
20
-173
30
0
11
-308
21
-145
31
0
0
LINE
5
319
100
AcDbEntity
8
0
100
AcDbLine
10
-308
20
-145
30
0
11
-308
21
-173
31
0
0
LWPOLYLINE
5
320
100
AcDbEntity
8
0
100
AcDbPolyline
90
4
70
1
43
0.0
10
-424
20
-145
10
-424
20
-173
10
-452
20
-173
10
-452
20
-145
0
LINE
5
321
100
AcDbEntity
8
0
100
AcDbLine
10
-278
20
-145
30
0
11
-278
21
-173
31
0
0
LINE
5
322
100
AcDbEntity
8
0
100
AcDbLine
10
-278
20
-173
30
0
11
-278
21
-145
31
0
0
LWPOLYLINE
5
323
100
AcDbEntity
8
0
100
AcDbPolyline
90
4
70
1
43
0.0
10
-250
20
-173
10
-250
20
-145
10
-278
20
-145
10
-278
20
-173
0
LWPOLYLINE
5
324
100
AcDbEntity
8
0
100
AcDbPolyline
90
4
70
1
43
0.0
10
-424
20
-173
10
-424
20
-145
10
-452
20
-145
10
-452
20
-173
0
LWPOLYLINE
5
325
100
AcDbEntity
8
0
100
AcDbPolyline
90
4
70
1
43
0.0
10
-279
20
-86
10
-279
20
-58
10
-307
20
-58
10
-307
20
-86
0
LINE
5
326
100
AcDbEntity
8
0
100
AcDbLine
10
-365
20
-56.999999999999993
30
0
11
-337
21
-56.999999999999993
31
0
0
LINE
5
327
100
AcDbEntity
8
0
100
AcDbLine
10
-337
20
-56.999999999999993
30
0
11
-365
21
-56.999999999999993
31
0
0
LWPOLYLINE
5
328
100
AcDbEntity
8
0
100
AcDbPolyline
90
4
70
1
43
0.0
10
-366
20
-145
10
-366
20
-173
10
-394
20
-173
10
-394
20
-145
0
LINE
5
329
100
AcDbEntity
8
0
100
AcDbLine
10
-250
20
-173
30
0
11
-250
21
-145
31
0
0
LINE
5
330
100
AcDbEntity
8
0
100
AcDbLine
10
-250
20
-145
30
0
11
-250
21
-173
31
0
0
LINE
5
331
100
AcDbEntity
8
0
100
AcDbLine
10
-452
20
-173
30
0
11
-424
21
-173
31
0
0
LINE
5
332
100
AcDbEntity
8
0
100
AcDbLine
10
-424
20
-173
30
0
11
-452
21
-173
31
0
0
LWPOLYLINE
5
333
100
AcDbEntity
8
0
100
AcDbPolyline
90
4
70
1
43
0.0
10
-250
20
-145
10
-250
20
-173
10
-278
20
-173
10
-278
20
-145
0
LINE
5
334
100
AcDbEntity
8
0
100
AcDbLine
10
-424
20
-173
30
0
11
-424
21
-145
31
0
0
LINE
5
335
100
AcDbEntity
8
0
100
AcDbLine
10
-424
20
-145
30
0
11
-424
21
-173
31
0
0
LWPOLYLINE
5
336
100
AcDbEntity
8
0
100
AcDbPolyline
90
4
70
1
43
0.0
10
-308
20
-173
10
-308
20
-145
10
-336
20
-145
10
-336
20
-173
0
LINE
5
337
100
AcDbEntity
8
0
100
AcDbLine
10
-279
20
-86
30
0
11
-279
21
-58
31
0
0
LINE
5
338
100
AcDbEntity
8
0
100
AcDbLine
10
-279
20
-58
30
0
11
-279
21
-86
31
0
0
LWPOLYLINE
5
339
100
AcDbEntity
8
0
100
AcDbPolyline
90
4
70
1
43
0.0
10
-250
20
-87
10
-250
20
-115
10
-278
20
-115
10
-278
20
-87
0
LINE
5
340
100
AcDbEntity
8
0
100
AcDbLine
10
-365
20
-29
30
0
11
-365
21
-56.999999999999993
31
0
0
LINE
5
341
100
AcDbEntity
8
0
100
AcDbLine
10
-365
20
-56.999999999999993
30
0
11
-365
21
-29
31
0
0
LINE
5
342
100
AcDbEntity
8
0
100
AcDbLine
10
-307
20
-58
30
0
11
-307
21
-86
31
0
0
LINE
5
343
100
AcDbEntity
8
0
100
AcDbLine
10
-307
20
-86
30
0
11
-307
21
-58
31
0
0
LWPOLYLINE
5
344
100
AcDbEntity
8
0
100
AcDbPolyline
90
4
70
1
43
0.0
10
-250
20
-115
10
-250
20
-87
10
-278
20
-87
10
-278
20
-115
0
LINE
5
345
100
AcDbEntity
8
0
100
AcDbLine
10
-481
20
-56.999999999999993
30
0
11
-453
21
-56.999999999999993
31
0
0
LINE
5
346
100
AcDbEntity
8
0
100
AcDbLine
10
-453
20
-56.999999999999993
30
0
11
-481
21
-56.999999999999993
31
0
0
LWPOLYLINE
5
347
100
AcDbEntity
8
0
100
AcDbPolyline
90
4
70
1
43
0.0
10
-482
20
-28
10
-482
20
0
10
-510
20
0
10
-510
20
-28
0
LINE
5
348
100
AcDbEntity
8
0
100
AcDbLine
10
-452
20
-115
30
0
11
-424
21
-115
31
0
0
LINE
5
349
100
AcDbEntity
8
0
100
AcDbLine
10
-424
20
-115
30
0
11
-452
21
-115
31
0
0
LINE
5
350
100
AcDbEntity
8
0
100
AcDbLine
10
-424
20
-115
30
0
11
-424
21
-87
31
0
0
LINE
5
351
100
AcDbEntity
8
0
100
AcDbLine
10
-424
20
-87
30
0
11
-424
21
-115
31
0
0
LINE
5
352
100
AcDbEntity
8
0
100
AcDbLine
10
-481
20
-28
30
0
11
-453
21
-28
31
0
0
LINE
5
353
100
AcDbEntity
8
0
100
AcDbLine
10
-453
20
-28
30
0
11
-481
21
-28
31
0
0
LINE
5
354
100
AcDbEntity
8
0
100
AcDbLine
10
-395
20
-28
30
0
11
-395
21
0
31
0
0
LINE
5
355
100
AcDbEntity
8
0
100
AcDbLine
10
-395
20
0
30
0
11
-395
21
-28
31
0
0
LINE
5
356
100
AcDbEntity
8
0
100
AcDbLine
10
-424
20
-116
30
0
11
-452
21
-116
31
0
0
LINE
5
357
100
AcDbEntity
8
0
100
AcDbLine
10
-452
20
-116
30
0
11
-424
21
-116
31
0
0
LWPOLYLINE
5
358
100
AcDbEntity
8
0
100
AcDbPolyline
90
4
70
1
43
0.0
10
-482
20
-145
10
-482
20
-173
10
-510
20
-173
10
-510
20
-145
0
LWPOLYLINE
5
359
100
AcDbEntity
8
0
100
AcDbPolyline
90
4
70
1
43
0.0
10
-482
20
-173
10
-482
20
-145
10
-510
20
-145
10
-510
20
-173
0
LWPOLYLINE
5
360
100
AcDbEntity
8
0
100
AcDbPolyline
90
4
70
1
43
0.0
10
-424
20
-29
10
-424
20
-56.999999999999993
10
-452
20
-56.999999999999993
10
-452
20
-29
0
LWPOLYLINE
5
361
100
AcDbEntity
8
0
100
AcDbPolyline
90
4
70
1
43
0.0
10
-482
20
-203
10
-482
20
-231
10
-510
20
-231
10
-510
20
-203
0
LWPOLYLINE
5
362
100
AcDbEntity
8
0
100
AcDbPolyline
90
4
70
1
43
0.0
10
-453
20
-56.999999999999993
10
-453
20
-29
10
-481
20
-29
10
-481
20
-56.999999999999993
0
LWPOLYLINE
5
363
100
AcDbEntity
8
0
100
AcDbPolyline
90
4
70
1
43
0.0
10
-395
20
0
10
-395
20
-28
10
-423
20
-28
10
-423
20
0
0
LWPOLYLINE
5
364
100
AcDbEntity
8
0
100
AcDbPolyline
90
4
70
1
43
0.0
10
-366
20
-29
10
-366
20
-56.999999999999993
10
-394
20
-56.999999999999993
10
-394
20
-29
0
LINE
5
365
100
AcDbEntity
8
0
100
AcDbLine
10
-510
20
-203
30
0
11
-510
21
-231
31
0
0
LINE
5
366
100
AcDbEntity
8
0
100
AcDbLine
10
-510
20
-231
30
0
11
-510
21
-203
31
0
0
LINE
5
367
100
AcDbEntity
8
0
100
AcDbLine
10
-453
20
-29
30
0
11
-481
21
-29
31
0
0
LINE
5
368
100
AcDbEntity
8
0
100
AcDbLine
10
-481
20
-29
30
0
11
-453
21
-29
31
0
0
LINE
5
369
100
AcDbEntity
8
0
100
AcDbLine
10
-452
20
-87
30
0
11
-452
21
-115
31
0
0
LINE
5
370
100
AcDbEntity
8
0
100
AcDbLine
10
-452
20
-115
30
0
11
-452
21
-87
31
0
0
LINE
5
371
100
AcDbEntity
8
0
100
AcDbLine
10
-510
20
-28
30
0
11
-482
21
-28
31
0
0
LINE
5
372
100
AcDbEntity
8
0
100
AcDbLine
10
-482
20
-28
30
0
11
-510
21
-28
31
0
0
LWPOLYLINE
5
373
100
AcDbEntity
8
0
100
AcDbPolyline
90
4
70
1
43
0.0
10
-482
20
0
10
-482
20
-28
10
-510
20
-28
10
-510
20
0
0
LINE
5
374
100
AcDbEntity
8
0
100
AcDbLine
10
-482
20
-28
30
0
11
-482
21
0
31
0
0
LINE
5
375
100
AcDbEntity
8
0
100
AcDbLine
10
-482
20
0
30
0
11
-482
21
-28
31
0
0
LINE
5
376
100
AcDbEntity
8
0
100
AcDbLine
10
-395
20
0
30
0
11
-423
21
0
31
0
0
LINE
5
377
100
AcDbEntity
8
0
100
AcDbLine
10
-423
20
0
30
0
11
-395
21
0
31
0
0
LINE
5
378
100
AcDbEntity
8
0
100
AcDbLine
10
-482
20
-231
30
0
11
-482
21
-203
31
0
0
LINE
5
379
100
AcDbEntity
8
0
100
AcDbLine
10
-482
20
-203
30
0
11
-482
21
-231
31
0
0
LINE
5
380
100
AcDbEntity
8
0
100
AcDbLine
10
-510
20
0
30
0
11
-510
21
-28
31
0
0
LINE
5
381
100
AcDbEntity
8
0
100
AcDbLine
10
-510
20
-28
30
0
11
-510
21
0
31
0
0
LWPOLYLINE
5
382
100
AcDbEntity
8
0
100
AcDbPolyline
90
4
70
1
43
0.0
10
-482
20
-231
10
-482
20
-203
10
-510
20
-203
10
-510
20
-231
0
LINE
5
383
100
AcDbEntity
8
0
100
AcDbLine
10
-394
20
-56.999999999999993
30
0
11
-366
21
-56.999999999999993
31
0
0
LINE
5
384
100
AcDbEntity
8
0
100
AcDbLine
10
-366
20
-56.999999999999993
30
0
11
-394
21
-56.999999999999993
31
0
0
LINE
5
385
100
AcDbEntity
8
0
100
AcDbLine
10
-424
20
-29
30
0
11
-452
21
-29
31
0
0
LINE
5
386
100
AcDbEntity
8
0
100
AcDbLine
10
-452
20
-29
30
0
11
-424
21
-29
31
0
0
LWPOLYLINE
5
387
100
AcDbEntity
8
0
100
AcDbPolyline
90
4
70
1
43
0.0
10
-424
20
-87
10
-424
20
-115
10
-452
20
-115
10
-452
20
-87
0
LINE
5
388
100
AcDbEntity
8
0
100
AcDbLine
10
-452
20
-29
30
0
11
-452
21
-56.999999999999993
31
0
0
LINE
5
389
100
AcDbEntity
8
0
100
AcDbLine
10
-452
20
-56.999999999999993
30
0
11
-452
21
-29
31
0
0
LINE
5
390
100
AcDbEntity
8
0
100
AcDbLine
10
-366
20
-56.999999999999993
30
0
11
-366
21
-29
31
0
0
LINE
5
391
100
AcDbEntity
8
0
100
AcDbLine
10
-366
20
-29
30
0
11
-366
21
-56.999999999999993
31
0
0
LINE
5
392
100
AcDbEntity
8
0
100
AcDbLine
10
-423
20
0
30
0
11
-423
21
-28
31
0
0
LINE
5
393
100
AcDbEntity
8
0
100
AcDbLine
10
-423
20
-28
30
0
11
-423
21
0
31
0
0
LINE
5
394
100
AcDbEntity
8
0
100
AcDbLine
10
-424
20
-56.999999999999993
30
0
11
-424
21
-29
31
0
0
LINE
5
395
100
AcDbEntity
8
0
100
AcDbLine
10
-424
20
-29
30
0
11
-424
21
-56.999999999999993
31
0
0
LWPOLYLINE
5
396
100
AcDbEntity
8
0
100
AcDbPolyline
90
4
70
1
43
0.0
10
-424
20
-56.999999999999993
10
-424
20
-29
10
-452
20
-29
10
-452
20
-56.999999999999993
0
LINE
5
397
100
AcDbEntity
8
0
100
AcDbLine
10
-424
20
-87
30
0
11
-452
21
-87
31
0
0
LINE
5
398
100
AcDbEntity
8
0
100
AcDbLine
10
-452
20
-87
30
0
11
-424
21
-87
31
0
0
LINE
5
399
100
AcDbEntity
8
0
100
AcDbLine
10
-482
20
0
30
0
11
-510
21
0
31
0
0
LINE
5
400
100
AcDbEntity
8
0
100
AcDbLine
10
-510
20
0
30
0
11
-482
21
0
31
0
0
LWPOLYLINE
5
401
100
AcDbEntity
8
0
100
AcDbPolyline
90
4
70
1
43
0.0
10
-453
20
-29
10
-453
20
-56.999999999999993
10
-481
20
-56.999999999999993
10
-481
20
-29
0
LWPOLYLINE
5
402
100
AcDbEntity
8
0
100
AcDbPolyline
90
4
70
1
43
0.0
10
-424
20
-115
10
-424
20
-87
10
-452
20
-87
10
-452
20
-115
0
LINE
5
403
100
AcDbEntity
8
0
100
AcDbLine
10
-366
20
-29
30
0
11
-394
21
-29
31
0
0
LINE
5
404
100
AcDbEntity
8
0
100
AcDbLine
10
-394
20
-29
30
0
11
-366
21
-29
31
0
0
LINE
5
405
100
AcDbEntity
8
0
100
AcDbLine
10
-482
20
-203
30
0
11
-510
21
-203
31
0
0
LINE
5
406
100
AcDbEntity
8
0
100
AcDbLine
10
-510
20
-203
30
0
11
-482
21
-203
31
0
0
LWPOLYLINE
5
407
100
AcDbEntity
8
0
100
AcDbPolyline
90
4
70
1
43
0.0
10
-366
20
-56.999999999999993
10
-366
20
-29
10
-394
20
-29
10
-394
20
-56.999999999999993
0
LINE
5
408
100
AcDbEntity
8
0
100
AcDbLine
10
-453
20
-56.999999999999993
30
0
11
-453
21
-29
31
0
0
LINE
5
409
100
AcDbEntity
8
0
100
AcDbLine
10
-453
20
-29
30
0
11
-453
21
-56.999999999999993
31
0
0
LINE
5
410
100
AcDbEntity
8
0
100
AcDbLine
10
-510
20
-231
30
0
11
-482
21
-231
31
0
0
LINE
5
411
100
AcDbEntity
8
0
100
AcDbLine
10
-482
20
-231
30
0
11
-510
21
-231
31
0
0
LINE
5
412
100
AcDbEntity
8
0
100
AcDbLine
10
-423
20
-28
30
0
11
-395
21
-28
31
0
0
LINE
5
413
100
AcDbEntity
8
0
100
AcDbLine
10
-395
20
-28
30
0
11
-423
21
-28
31
0
0
LWPOLYLINE
5
414
100
AcDbEntity
8
0
100
AcDbPolyline
90
4
70
1
43
0.0
10
-395
20
-28
10
-395
20
0
10
-423
20
0
10
-423
20
-28
0
LINE
5
415
100
AcDbEntity
8
0
100
AcDbLine
10
-394
20
-29
30
0
11
-394
21
-56.999999999999993
31
0
0
LINE
5
416
100
AcDbEntity
8
0
100
AcDbLine
10
-394
20
-56.999999999999993
30
0
11
-394
21
-29
31
0
0
LINE
5
417
100
AcDbEntity
8
0
100
AcDbLine
10
-481
20
-29
30
0
11
-481
21
-56.999999999999993
31
0
0
LINE
5
418
100
AcDbEntity
8
0
100
AcDbLine
10
-481
20
-56.999999999999993
30
0
11
-481
21
-29
31
0
0
LINE
5
419
100
AcDbEntity
8
0
100
AcDbLine
10
-481
20
0
30
0
11
-481
21
-28
31
0
0
LINE
5
420
100
AcDbEntity
8
0
100
AcDbLine
10
-481
20
-28
30
0
11
-481
21
0
31
0
0
LINE
5
421
100
AcDbEntity
8
0
100
AcDbLine
10
-453
20
0
30
0
11
-481
21
0
31
0
0
LINE
5
422
100
AcDbEntity
8
0
100
AcDbLine
10
-481
20
0
30
0
11
-453
21
0
31
0
0
LINE
5
423
100
AcDbEntity
8
0
100
AcDbLine
10
-452
20
-144
30
0
11
-424
21
-144
31
0
0
LINE
5
424
100
AcDbEntity
8
0
100
AcDbLine
10
-424
20
-144
30
0
11
-452
21
-144
31
0
0
LINE
5
425
100
AcDbEntity
8
0
100
AcDbLine
10
-453
20
-28
30
0
11
-453
21
0
31
0
0
LINE
5
426
100
AcDbEntity
8
0
100
AcDbLine
10
-453
20
0
30
0
11
-453
21
-28
31
0
0
LINE
5
427
100
AcDbEntity
8
0
100
AcDbLine
10
-452
20
-116
30
0
11
-452
21
-144
31
0
0
LINE
5
428
100
AcDbEntity
8
0
100
AcDbLine
10
-452
20
-144
30
0
11
-452
21
-116
31
0
0
LINE
5
429
100
AcDbEntity
8
0
100
AcDbLine
10
-279
20
-28
30
0
11
-279
21
0
31
0
0
LINE
5
430
100
AcDbEntity
8
0
100
AcDbLine
10
-279
20
0
30
0
11
-279
21
-28
31
0
0
LINE
5
431
100
AcDbEntity
8
0
100
AcDbLine
10
-337
20
-28
30
0
11
-337
21
0
31
0
0
LINE
5
432
100
AcDbEntity
8
0
100
AcDbLine
10
-337
20
0
30
0
11
-337
21
-28
31
0
0
LINE
5
433
100
AcDbEntity
8
0
100
AcDbLine
10
-337
20
0
30
0
11
-365
21
0
31
0
0
LINE
5
434
100
AcDbEntity
8
0
100
AcDbLine
10
-365
20
0
30
0
11
-337
21
0
31
0
0
LWPOLYLINE
5
435
100
AcDbEntity
8
0
100
AcDbPolyline
90
4
70
1
43
0.0
10
-337
20
-28
10
-337
20
0
10
-365
20
0
10
-365
20
-28
0
LINE
5
436
100
AcDbEntity
8
0
100
AcDbLine
10
-365
20
-28
30
0
11
-337
21
-28
31
0
0
LINE
5
437
100
AcDbEntity
8
0
100
AcDbLine
10
-337
20
-28
30
0
11
-365
21
-28
31
0
0
LWPOLYLINE
5
438
100
AcDbEntity
8
0
100
AcDbPolyline
90
4
70
1
43
0.0
10
-337
20
0
10
-337
20
-28
10
-365
20
-28
10
-365
20
0
0
LINE
5
439
100
AcDbEntity
8
0
100
AcDbLine
10
-365
20
0
30
0
11
-365
21
-28
31
0
0
LINE
5
440
100
AcDbEntity
8
0
100
AcDbLine
10
-365
20
-28
30
0
11
-365
21
0
31
0
0
LINE
5
441
100
AcDbEntity
8
0
100
AcDbLine
10
-336
20
-203
30
0
11
-336
21
-231
31
0
0
LINE
5
442
100
AcDbEntity
8
0
100
AcDbLine
10
-336
20
-231
30
0
11
-336
21
-203
31
0
0
LINE
5
443
100
AcDbEntity
8
0
100
AcDbLine
10
-395
20
-202
30
0
11
-395
21
-174
31
0
0
LINE
5
444
100
AcDbEntity
8
0
100
AcDbLine
10
-395
20
-174
30
0
11
-395
21
-202
31
0
0
LWPOLYLINE
5
445
100
AcDbEntity
8
0
100
AcDbPolyline
90
4
70
1
43
0.0
10
-395
20
-202
10
-395
20
-174
10
-423
20
-174
10
-423
20
-202
0
LINE
5
446
100
AcDbEntity
8
0
100
AcDbLine
10
-424
20
-144
30
0
11
-424
21
-116
31
0
0
LINE
5
447
100
AcDbEntity
8
0
100
AcDbLine
10
-424
20
-116
30
0
11
-424
21
-144
31
0
0
LINE
5
448
100
AcDbEntity
8
0
100
AcDbLine
10
-453
20
-145
30
0
11
-481
21
-145
31
0
0
LINE
5
449
100
AcDbEntity
8
0
100
AcDbLine
10
-481
20
-145
30
0
11
-453
21
-145
31
0
0
LINE
5
450
100
AcDbEntity
8
0
100
AcDbLine
10
-481
20
-202
30
0
11
-453
21
-202
31
0
0
LINE
5
451
100
AcDbEntity
8
0
100
AcDbLine
10
-453
20
-202
30
0
11
-481
21
-202
31
0
0
LINE
5
452
100
AcDbEntity
8
0
100
AcDbLine
10
-481
20
-174
30
0
11
-481
21
-202
31
0
0
LINE
5
453
100
AcDbEntity
8
0
100
AcDbLine
10
-481
20
-202
30
0
11
-481
21
-174
31
0
0
LINE
5
454
100
AcDbEntity
8
0
100
AcDbLine
10
-395
20
-174
30
0
11
-423
21
-174
31
0
0
LINE
5
455
100
AcDbEntity
8
0
100
AcDbLine
10
-423
20
-174
30
0
11
-395
21
-174
31
0
0
LWPOLYLINE
5
456
100
AcDbEntity
8
0
100
AcDbPolyline
90
4
70
1
43
0.0
10
-453
20
-28
10
-453
20
0
10
-481
20
0
10
-481
20
-28
0
LINE
5
457
100
AcDbEntity
8
0
100
AcDbLine
10
-278
20
-174
30
0
11
-278
21
-202
31
0
0
LINE
5
458
100
AcDbEntity
8
0
100
AcDbLine
10
-278
20
-202
30
0
11
-278
21
-174
31
0
0
LWPOLYLINE
5
459
100
AcDbEntity
8
0
100
AcDbPolyline
90
4
70
1
43
0.0
10
-453
20
-173
10
-453
20
-145
10
-481
20
-145
10
-481
20
-173
0
LINE
5
460
100
AcDbEntity
8
0
100
AcDbLine
10
-278
20
-115
30
0
11
-250
21
-115
31
0
0
LINE
5
461
100
AcDbEntity
8
0
100
AcDbLine
10
-250
20
-115
30
0
11
-278
21
-115
31
0
0
LWPOLYLINE
5
462
100
AcDbEntity
8
0
100
AcDbPolyline
90
4
70
1
43
0.0
10
-250
20
-202
10
-250
20
-174
10
-278
20
-174
10
-278
20
-202
0
LWPOLYLINE
5
463
100
AcDbEntity
8
0
100
AcDbPolyline
90
4
70
1
43
0.0
10
-395
20
-231
10
-395
20
-203
10
-423
20
-203
10
-423
20
-231
0
LINE
5
464
100
AcDbEntity
8
0
100
AcDbLine
10
-423
20
-86
30
0
11
-395
21
-86
31
0
0
LINE
5
465
100
AcDbEntity
8
0
100
AcDbLine
10
-395
20
-86
30
0
11
-423
21
-86
31
0
0
LINE
5
466
100
AcDbEntity
8
0
100
AcDbLine
10
-481
20
-173
30
0
11
-453
21
-173
31
0
0
LINE
5
467
100
AcDbEntity
8
0
100
AcDbLine
10
-453
20
-173
30
0
11
-481
21
-173
31
0
0
LWPOLYLINE
5
468
100
AcDbEntity
8
0
100
AcDbPolyline
90
4
70
1
43
0.0
10
-424
20
-116
10
-424
20
-144
10
-452
20
-144
10
-452
20
-116
0
LINE
5
469
100
AcDbEntity
8
0
100
AcDbLine
10
-423
20
-174
30
0
11
-423
21
-202
31
0
0
LINE
5
470
100
AcDbEntity
8
0
100
AcDbLine
10
-423
20
-202
30
0
11
-423
21
-174
31
0
0
LINE
5
471
100
AcDbEntity
8
0
100
AcDbLine
10
-278
20
-202
30
0
11
-250
21
-202
31
0
0
LINE
5
472
100
AcDbEntity
8
0
100
AcDbLine
10
-250
20
-202
30
0
11
-278
21
-202
31
0
0
LINE
5
473
100
AcDbEntity
8
0
100
AcDbLine
10
-481
20
-145
30
0
11
-481
21
-173
31
0
0
LINE
5
474
100
AcDbEntity
8
0
100
AcDbLine
10
-481
20
-173
30
0
11
-481
21
-145
31
0
0
LWPOLYLINE
5
475
100
AcDbEntity
8
0
100
AcDbPolyline
90
4
70
1
43
0.0
10
-453
20
-145
10
-453
20
-173
10
-481
20
-173
10
-481
20
-145
0
LWPOLYLINE
5
476
100
AcDbEntity
8
0
100
AcDbPolyline
90
4
70
1
43
0.0
10
-482
20
-144
10
-482
20
-116
10
-510
20
-116
10
-510
20
-144
0
LWPOLYLINE
5
477
100
AcDbEntity
8
0
100
AcDbPolyline
90
4
70
1
43
0.0
10
-424
20
-144
10
-424
20
-116
10
-452
20
-116
10
-452
20
-144
0
LWPOLYLINE
5
478
100
AcDbEntity
8
0
100
AcDbPolyline
90
4
70
1
43
0.0
10
-279
20
-28
10
-279
20
0
10
-307
20
0
10
-307
20
-28
0
LINE
5
479
100
AcDbEntity
8
0
100
AcDbLine
10
-250
20
-174
30
0
11
-278
21
-174
31
0
0
LINE
5
480
100
AcDbEntity
8
0
100
AcDbLine
10
-278
20
-174
30
0
11
-250
21
-174
31
0
0
LWPOLYLINE
5
481
100
AcDbEntity
8
0
100
AcDbPolyline
90
4
70
1
43
0.0
10
-250
20
-174
10
-250
20
-202
10
-278
20
-202
10
-278
20
-174
0
LINE
5
482
100
AcDbEntity
8
0
100
AcDbLine
10
-510
20
-116
30
0
11
-510
21
-144
31
0
0
LINE
5
483
100
AcDbEntity
8
0
100
AcDbLine
10
-510
20
-144
30
0
11
-510
21
-116
31
0
0
LINE
5
484
100
AcDbEntity
8
0
100
AcDbLine
10
-482
20
-144
30
0
11
-482
21
-116
31
0
0
LINE
5
485
100
AcDbEntity
8
0
100
AcDbLine
10
-482
20
-116
30
0
11
-482
21
-144
31
0
0
LWPOLYLINE
5
486
100
AcDbEntity
8
0
100
AcDbPolyline
90
4
70
1
43
0.0
10
-395
20
-174
10
-395
20
-202
10
-423
20
-202
10
-423
20
-174
0
LINE
5
487
100
AcDbEntity
8
0
100
AcDbLine
10
-336
20
-231
30
0
11
-308
21
-231
31
0
0
LINE
5
488
100
AcDbEntity
8
0
100
AcDbLine
10
-308
20
-231
30
0
11
-336
21
-231
31
0
0
LINE
5
489
100
AcDbEntity
8
0
100
AcDbLine
10
-482
20
-116
30
0
11
-510
21
-116
31
0
0
LINE
5
490
100
AcDbEntity
8
0
100
AcDbLine
10
-510
20
-116
30
0
11
-482
21
-116
31
0
0
LINE
5
491
100
AcDbEntity
8
0
100
AcDbLine
10
-250
20
-202
30
0
11
-250
21
-174
31
0
0
LINE
5
492
100
AcDbEntity
8
0
100
AcDbLine
10
-250
20
-174
30
0
11
-250
21
-202
31
0
0
LINE
5
493
100
AcDbEntity
8
0
100
AcDbLine
10
-453
20
-173
30
0
11
-453
21
-145
31
0
0
LINE
5
494
100
AcDbEntity
8
0
100
AcDbLine
10
-453
20
-145
30
0
11
-453
21
-173
31
0
0
LINE
5
495
100
AcDbEntity
8
0
100
AcDbLine
10
-423
20
-203
30
0
11
-423
21
-231
31
0
0
LINE
5
496
100
AcDbEntity
8
0
100
AcDbLine
10
-423
20
-231
30
0
11
-423
21
-203
31
0
0
LINE
5
497
100
AcDbEntity
8
0
100
AcDbLine
10
-395
20
-203
30
0
11
-423
21
-203
31
0
0
LINE
5
498
100
AcDbEntity
8
0
100
AcDbLine
10
-423
20
-203
30
0
11
-395
21
-203
31
0
0
LINE
5
499
100
AcDbEntity
8
0
100
AcDbLine
10
-510
20
-144
30
0
11
-482
21
-144
31
0
0
LINE
5
500
100
AcDbEntity
8
0
100
AcDbLine
10
-482
20
-144
30
0
11
-510
21
-144
31
0
0
LINE
5
501
100
AcDbEntity
8
0
100
AcDbLine
10
-423
20
-231
30
0
11
-395
21
-231
31
0
0
LINE
5
502
100
AcDbEntity
8
0
100
AcDbLine
10
-395
20
-231
30
0
11
-423
21
-231
31
0
0
LINE
5
503
100
AcDbEntity
8
0
100
AcDbLine
10
-308
20
-231
30
0
11
-308
21
-203
31
0
0
LINE
5
504
100
AcDbEntity
8
0
100
AcDbLine
10
-308
20
-203
30
0
11
-308
21
-231
31
0
0
LINE
5
505
100
AcDbEntity
8
0
100
AcDbLine
10
-395
20
-231
30
0
11
-395
21
-203
31
0
0
LINE
5
506
100
AcDbEntity
8
0
100
AcDbLine
10
-395
20
-203
30
0
11
-395
21
-231
31
0
0
LWPOLYLINE
5
507
100
AcDbEntity
8
0
100
AcDbPolyline
90
4
70
1
43
0.0
10
-308
20
-203
10
-308
20
-231
10
-336
20
-231
10
-336
20
-203
0
LWPOLYLINE
5
508
100
AcDbEntity
8
0
100
AcDbPolyline
90
4
70
1
43
0.0
10
-395
20
-203
10
-395
20
-231
10
-423
20
-231
10
-423
20
-203
0
LINE
5
509
100
AcDbEntity
8
0
100
AcDbLine
10
-308
20
-203
30
0
11
-336
21
-203
31
0
0
LINE
5
510
100
AcDbEntity
8
0
100
AcDbLine
10
-336
20
-203
30
0
11
-308
21
-203
31
0
0
LWPOLYLINE
5
511
100
AcDbEntity
8
0
100
AcDbPolyline
90
4
70
1
43
0.0
10
-308
20
-231
10
-308
20
-203
10
-336
20
-203
10
-336
20
-231
0
LWPOLYLINE
5
512
100
AcDbEntity
8
0
100
AcDbPolyline
90
4
70
1
43
0.0
10
-453
20
0
10
-453
20
-28
10
-481
20
-28
10
-481
20
0
0
LINE
5
513
100
AcDbEntity
8
0
100
AcDbLine
10
-423
20
-202
30
0
11
-395
21
-202
31
0
0
LINE
5
514
100
AcDbEntity
8
0
100
AcDbLine
10
-395
20
-202
30
0
11
-423
21
-202
31
0
0
LWPOLYLINE
5
515
100
AcDbEntity
8
0
100
AcDbPolyline
90
4
70
1
43
0.0
10
-482
20
-116
10
-482
20
-144
10
-510
20
-144
10
-510
20
-116
0
LINE
5
516
100
AcDbEntity
8
0
100
AcDbLine
10
-308
20
0
30
0
11
-336
21
0
31
0
0
LINE
5
517
100
AcDbEntity
8
0
100
AcDbLine
10
-336
20
0
30
0
11
-308
21
0
31
0
0
LWPOLYLINE
5
518
100
AcDbEntity
8
0
100
AcDbPolyline
90
4
70
1
43
0.0
10
-250
20
-28
10
-250
20
0
10
-278
20
0
10
-278
20
-28
0
LINE
5
519
100
AcDbEntity
8
0
100
AcDbLine
10
-365
20
-174
30
0
11
-365
21
-202
31
0
0
LINE
5
520
100
AcDbEntity
8
0
100
AcDbLine
10
-365
20
-202
30
0
11
-365
21
-174
31
0
0
LINE
5
521
100
AcDbEntity
8
0
100
AcDbLine
10
-365
20
-232
30
0
11
-365
21
-260
31
0
0
LINE
5
522
100
AcDbEntity
8
0
100
AcDbLine
10
-365
20
-260
30
0
11
-365
21
-232
31
0
0
LWPOLYLINE
5
523
100
AcDbEntity
8
0
100
AcDbPolyline
90
4
70
1
43
0.0
10
-337
20
-232
10
-337
20
-260
10
-365
20
-260
10
-365
20
-232
0
LINE
5
524
100
AcDbEntity
8
0
100
AcDbLine
10
-308
20
-28
30
0
11
-308
21
0
31
0
0
LINE
5
525
100
AcDbEntity
8
0
100
AcDbLine
10
-308
20
0
30
0
11
-308
21
-28
31
0
0
LINE
5
526
100
AcDbEntity
8
0
100
AcDbLine
10
-336
20
-58
30
0
11
-336
21
-86
31
0
0
LINE
5
527
100
AcDbEntity
8
0
100
AcDbLine
10
-336
20
-86
30
0
11
-336
21
-58
31
0
0
LINE
5
528
100
AcDbEntity
8
0
100
AcDbLine
10
-336
20
-56.999999999999993
30
0
11
-308
21
-56.999999999999993
31
0
0
LINE
5
529
100
AcDbEntity
8
0
100
AcDbLine
10
-308
20
-56.999999999999993
30
0
11
-336
21
-56.999999999999993
31
0
0
LWPOLYLINE
5
530
100
AcDbEntity
8
0
100
AcDbPolyline
90
4
70
1
43
0.0
10
-308
20
0
10
-308
20
-28
10
-336
20
-28
10
-336
20
0
0
LINE
5
531
100
AcDbEntity
8
0
100
AcDbLine
10
-250
20
0
30
0
11
-278
21
0
31
0
0
LINE
5
532
100
AcDbEntity
8
0
100
AcDbLine
10
-278
20
0
30
0
11
-250
21
0
31
0
0
LINE
5
533
100
AcDbEntity
8
0
100
AcDbLine
10
-250
20
-28
30
0
11
-250
21
0
31
0
0
LINE
5
534
100
AcDbEntity
8
0
100
AcDbLine
10
-250
20
0
30
0
11
-250
21
-28
31
0
0
LINE
5
535
100
AcDbEntity
8
0
100
AcDbLine
10
-307
20
-174
30
0
11
-307
21
-202
31
0
0
LINE
5
536
100
AcDbEntity
8
0
100
AcDbLine
10
-307
20
-202
30
0
11
-307
21
-174
31
0
0
LWPOLYLINE
5
537
100
AcDbEntity
8
0
100
AcDbPolyline
90
4
70
1
43
0.0
10
-279
20
-202
10
-279
20
-174
10
-307
20
-174
10
-307
20
-202
0
LINE
5
538
100
AcDbEntity
8
0
100
AcDbLine
10
-278
20
-232
30
0
11
-278
21
-260
31
0
0
LINE
5
539
100
AcDbEntity
8
0
100
AcDbLine
10
-278
20
-260
30
0
11
-278
21
-232
31
0
0
LWPOLYLINE
5
540
100
AcDbEntity
8
0
100
AcDbPolyline
90
4
70
1
43
0.0
10
-337
20
-174
10
-337
20
-202
10
-365
20
-202
10
-365
20
-174
0
LWPOLYLINE
5
541
100
AcDbEntity
8
0
100
AcDbPolyline
90
4
70
1
43
0.0
10
-250
20
-232
10
-250
20
-260
10
-278
20
-260
10
-278
20
-232
0
LWPOLYLINE
5
542
100
AcDbEntity
8
0
100
AcDbPolyline
90
4
70
1
43
0.0
10
-250
20
-260
10
-250
20
-232
10
-278
20
-232
10
-278
20
-260
0
LINE
5
543
100
AcDbEntity
8
0
100
AcDbLine
10
-278
20
-260
30
0
11
-250
21
-260
31
0
0
LINE
5
544
100
AcDbEntity
8
0
100
AcDbLine
10
-250
20
-260
30
0
11
-278
21
-260
31
0
0
LWPOLYLINE
5
545
100
AcDbEntity
8
0
100
AcDbPolyline
90
4
70
1
43
0.0
10
-250
20
0
10
-250
20
-28
10
-278
20
-28
10
-278
20
0
0
LINE
5
546
100
AcDbEntity
8
0
100
AcDbLine
10
-307
20
-202
30
0
11
-279
21
-202
31
0
0
LINE
5
547
100
AcDbEntity
8
0
100
AcDbLine
10
-279
20
-202
30
0
11
-307
21
-202
31
0
0
LINE
5
548
100
AcDbEntity
8
0
100
AcDbLine
10
-365
20
-260
30
0
11
-337
21
-260
31
0
0
LINE
5
549
100
AcDbEntity
8
0
100
AcDbLine
10
-337
20
-260
30
0
11
-365
21
-260
31
0
0
LINE
5
550
100
AcDbEntity
8
0
100
AcDbLine
10
-308
20
-58
30
0
11
-336
21
-58
31
0
0
LINE
5
551
100
AcDbEntity
8
0
100
AcDbLine
10
-336
20
-58
30
0
11
-308
21
-58
31
0
0
LINE
5
552
100
AcDbEntity
8
0
100
AcDbLine
10
-337
20
-260
30
0
11
-337
21
-232
31
0
0
LINE
5
553
100
AcDbEntity
8
0
100
AcDbLine
10
-337
20
-232
30
0
11
-337
21
-260
31
0
0
LINE
5
554
100
AcDbEntity
8
0
100
AcDbLine
10
-308
20
-86
30
0
11
-308
21
-58
31
0
0
LINE
5
555
100
AcDbEntity
8
0
100
AcDbLine
10
-308
20
-58
30
0
11
-308
21
-86
31
0
0
LINE
5
556
100
AcDbEntity
8
0
100
AcDbLine
10
-308
20
-29
30
0
11
-336
21
-29
31
0
0
LINE
5
557
100
AcDbEntity
8
0
100
AcDbLine
10
-336
20
-29
30
0
11
-308
21
-29
31
0
0
LINE
5
558
100
AcDbEntity
8
0
100
AcDbLine
10
-250
20
-144
30
0
11
-250
21
-116
31
0
0
LINE
5
559
100
AcDbEntity
8
0
100
AcDbLine
10
-250
20
-116
30
0
11
-250
21
-144
31
0
0
LWPOLYLINE
5
560
100
AcDbEntity
8
0
100
AcDbPolyline
90
4
70
1
43
0.0
10
-250
20
-116
10
-250
20
-144
10
-278
20
-144
10
-278
20
-116
0
LINE
5
561
100
AcDbEntity
8
0
100
AcDbLine
10
-250
20
-260
30
0
11
-250
21
-232
31
0
0
LINE
5
562
100
AcDbEntity
8
0
100
AcDbLine
10
-250
20
-232
30
0
11
-250
21
-260
31
0
0
LWPOLYLINE
5
563
100
AcDbEntity
8
0
100
AcDbPolyline
90
4
70
1
43
0.0
10
-308
20
-86
10
-308
20
-58
10
-336
20
-58
10
-336
20
-86
0
LWPOLYLINE
5
564
100
AcDbEntity
8
0
100
AcDbPolyline
90
4
70
1
43
0.0
10
-250
20
-144
10
-250
20
-116
10
-278
20
-116
10
-278
20
-144
0
LWPOLYLINE
5
565
100
AcDbEntity
8
0
100
AcDbPolyline
90
4
70
1
43
0.0
10
-337
20
-202
10
-337
20
-174
10
-365
20
-174
10
-365
20
-202
0
LWPOLYLINE
5
566
100
AcDbEntity
8
0
100
AcDbPolyline
90
4
70
1
43
0.0
10
-308
20
-28
10
-308
20
0
10
-336
20
0
10
-336
20
-28
0
LWPOLYLINE
5
567
100
AcDbEntity
8
0
100
AcDbPolyline
90
4
70
1
43
0.0
10
-279
20
-174
10
-279
20
-202
10
-307
20
-202
10
-307
20
-174
0
LWPOLYLINE
5
568
100
AcDbEntity
8
0
100
AcDbPolyline
90
4
70
1
43
0.0
10
-337
20
-260
10
-337
20
-232
10
-365
20
-232
10
-365
20
-260
0
LINE
5
569
100
AcDbEntity
8
0
100
AcDbLine
10
-337
20
-202
30
0
11
-337
21
-174
31
0
0
LINE
5
570
100
AcDbEntity
8
0
100
AcDbLine
10
-337
20
-174
30
0
11
-337
21
-202
31
0
0
LINE
5
571
100
AcDbEntity
8
0
100
AcDbLine
10
-278
20
-203
30
0
11
-278
21
-231
31
0
0
LINE
5
572
100
AcDbEntity
8
0
100
AcDbLine
10
-278
20
-231
30
0
11
-278
21
-203
31
0
0
LINE
5
573
100
AcDbEntity
8
0
100
AcDbLine
10
-250
20
-203
30
0
11
-278
21
-203
31
0
0
LINE
5
574
100
AcDbEntity
8
0
100
AcDbLine
10
-278
20
-203
30
0
11
-250
21
-203
31
0
0
LINE
5
575
100
AcDbEntity
8
0
100
AcDbLine
10
-250
20
-231
30
0
11
-250
21
-203
31
0
0
LINE
5
576
100
AcDbEntity
8
0
100
AcDbLine
10
-250
20
-203
30
0
11
-250
21
-231
31
0
0
LINE
5
577
100
AcDbEntity
8
0
100
AcDbLine
10
-278
20
-28
30
0
11
-250
21
-28
31
0
0
LINE
5
578
100
AcDbEntity
8
0
100
AcDbLine
10
-250
20
-28
30
0
11
-278
21
-28
31
0
0
LINE
5
579
100
AcDbEntity
8
0
100
AcDbLine
10
-278
20
0
30
0
11
-278
21
-28
31
0
0
LINE
5
580
100
AcDbEntity
8
0
100
AcDbLine
10
-278
20
-28
30
0
11
-278
21
0
31
0
0
LINE
5
581
100
AcDbEntity
8
0
100
AcDbLine
10
-279
20
-174
30
0
11
-307
21
-174
31
0
0
LINE
5
582
100
AcDbEntity
8
0
100
AcDbLine
10
-307
20
-174
30
0
11
-279
21
-174
31
0
0
LINE
5
583
100
AcDbEntity
8
0
100
AcDbLine
10
-279
20
-202
30
0
11
-279
21
-174
31
0
0
LINE
5
584
100
AcDbEntity
8
0
100
AcDbLine
10
-279
20
-174
30
0
11
-279
21
-202
31
0
0
LINE
5
585
100
AcDbEntity
8
0
100
AcDbLine
10
-365
20
-202
30
0
11
-337
21
-202
31
0
0
LINE
5
586
100
AcDbEntity
8
0
100
AcDbLine
10
-337
20
-202
30
0
11
-365
21
-202
31
0
0
LINE
5
587
100
AcDbEntity
8
0
100
AcDbLine
10
-337
20
-174
30
0
11
-365
21
-174
31
0
0
LINE
5
588
100
AcDbEntity
8
0
100
AcDbLine
10
-365
20
-174
30
0
11
-337
21
-174
31
0
0
LINE
5
589
100
AcDbEntity
8
0
100
AcDbLine
10
-278
20
-231
30
0
11
-250
21
-231
31
0
0
LINE
5
590
100
AcDbEntity
8
0
100
AcDbLine
10
-250
20
-231
30
0
11
-278
21
-231
31
0
0
LWPOLYLINE
5
591
100
AcDbEntity
8
0
100
AcDbPolyline
90
4
70
1
43
0.0
10
-250
20
-203
10
-250
20
-231
10
-278
20
-231
10
-278
20
-203
0
LWPOLYLINE
5
592
100
AcDbEntity
8
0
100
AcDbPolyline
90
4
70
1
43
0.0
10
-250
20
-231
10
-250
20
-203
10
-278
20
-203
10
-278
20
-231
0
LINE
5
593
100
AcDbEntity
8
0
100
AcDbLine
10
-250
20
-232
30
0
11
-278
21
-232
31
0
0
LINE
5
594
100
AcDbEntity
8
0
100
AcDbLine
10
-278
20
-232
30
0
11
-250
21
-232
31
0
0
LINE
5
595
100
AcDbEntity
8
0
100
AcDbLine
10
-337
20
-232
30
0
11
-365
21
-232
31
0
0
LINE
5
596
100
AcDbEntity
8
0
100
AcDbLine
10
-365
20
-232
30
0
11
-337
21
-232
31
0
0
LINE
5
597
100
AcDbEntity
8
0
100
AcDbLine
10
-336
20
-86
30
0
11
-308
21
-86
31
0
0
LINE
5
598
100
AcDbEntity
8
0
100
AcDbLine
10
-308
20
-86
30
0
11
-336
21
-86
31
0
0
LWPOLYLINE
5
599
100
AcDbEntity
8
0
100
AcDbPolyline
90
4
70
1
43
0.0
10
-308
20
-58
10
-308
20
-86
10
-336
20
-86
10
-336
20
-58
0
LINE
5
600
100
AcDbEntity
8
0
100
AcDbLine
10
-336
20
-29
30
0
11
-336
21
-56.999999999999993
31
0
0
LINE
5
601
100
AcDbEntity
8
0
100
AcDbLine
10
-336
20
-56.999999999999993
30
0
11
-336
21
-29
31
0
0
LINE
5
602
100
AcDbEntity
8
0
100
AcDbLine
10
-308
20
-56.999999999999993
30
0
11
-308
21
-29
31
0
0
LINE
5
603
100
AcDbEntity
8
0
100
AcDbLine
10
-308
20
-29
30
0
11
-308
21
-56.999999999999993
31
0
0
LWPOLYLINE
5
604
100
AcDbEntity
8
0
100
AcDbPolyline
90
4
70
1
43
0.0
10
-308
20
-56.999999999999993
10
-308
20
-29
10
-336
20
-29
10
-336
20
-56.999999999999993
0
LINE
5
605
100
AcDbEntity
8
0
100
AcDbLine
10
-278
20
-144
30
0
11
-250
21
-144
31
0
0
LINE
5
606
100
AcDbEntity
8
0
100
AcDbLine
10
-250
20
-144
30
0
11
-278
21
-144
31
0
0
LINE
5
607
100
AcDbEntity
8
0
100
AcDbLine
10
-278
20
-116
30
0
11
-278
21
-144
31
0
0
LINE
5
608
100
AcDbEntity
8
0
100
AcDbLine
10
-278
20
-144
30
0
11
-278
21
-116
31
0
0
LWPOLYLINE
5
609
100
AcDbEntity
8
0
100
AcDbPolyline
90
4
70
1
43
0.0
10
-308
20
-29
10
-308
20
-56.999999999999993
10
-336
20
-56.999999999999993
10
-336
20
-29
0
LINE
5
610
100
AcDbEntity
8
0
100
AcDbLine
10
-250
20
-116
30
0
11
-278
21
-116
31
0
0
LINE
5
611
100
AcDbEntity
8
0
100
AcDbLine
10
-278
20
-116
30
0
11
-250
21
-116
31
0
0
LWPOLYLINE
5
612
100
AcDbEntity
8
0
100
AcDbPolyline
90
4
70
1
43
0.0
10
-279
20
-144
10
-279
20
-116
10
-307
20
-116
10
-307
20
-144
0
LWPOLYLINE
5
613
100
AcDbEntity
8
0
100
AcDbPolyline
90
4
70
1
43
0.0
10
-250
20
-29
10
-250
20
-56.999999999999993
10
-278
20
-56.999999999999993
10
-278
20
-29
0
LINE
5
614
100
AcDbEntity
8
0
100
AcDbLine
10
-365
20
-116
30
0
11
-365
21
-144
31
0
0
LINE
5
615
100
AcDbEntity
8
0
100
AcDbLine
10
-365
20
-144
30
0
11
-365
21
-116
31
0
0
LINE
5
616
100
AcDbEntity
8
0
100
AcDbLine
10
-337
20
-116
30
0
11
-365
21
-116
31
0
0
LINE
5
617
100
AcDbEntity
8
0
100
AcDbLine
10
-365
20
-116
30
0
11
-337
21
-116
31
0
0
LINE
5
618
100
AcDbEntity
8
0
100
AcDbLine
10
-337
20
-144
30
0
11
-337
21
-116
31
0
0
LINE
5
619
100
AcDbEntity
8
0
100
AcDbLine
10
-337
20
-116
30
0
11
-337
21
-144
31
0
0
LWPOLYLINE
5
620
100
AcDbEntity
8
0
100
AcDbPolyline
90
4
70
1
43
0.0
10
-337
20
-116
10
-337
20
-144
10
-365
20
-144
10
-365
20
-116
0
LWPOLYLINE
5
621
100
AcDbEntity
8
0
100
AcDbPolyline
90
4
70
1
43
0.0
10
-250
20
-86
10
-250
20
-58
10
-278
20
-58
10
-278
20
-86
0
LWPOLYLINE
5
622
100
AcDbEntity
8
0
100
AcDbPolyline
90
4
70
1
43
0.0
10
-337
20
-144
10
-337
20
-116
10
-365
20
-116
10
-365
20
-144
0
LINE
5
623
100
AcDbEntity
8
0
100
AcDbLine
10
-336
20
-28
30
0
11
-308
21
-28
31
0
0
LINE
5
624
100
AcDbEntity
8
0
100
AcDbLine
10
-308
20
-28
30
0
11
-336
21
-28
31
0
0
LINE
5
625
100
AcDbEntity
8
0
100
AcDbLine
10
-336
20
0
30
0
11
-336
21
-28
31
0
0
LINE
5
626
100
AcDbEntity
8
0
100
AcDbLine
10
-336
20
-28
30
0
11
-336
21
0
31
0
0
LINE
5
627
100
AcDbEntity
8
0
100
AcDbLine
10
-337
20
-87
30
0
11
-365
21
-87
31
0
0
LINE
5
628
100
AcDbEntity
8
0
100
AcDbLine
10
-365
20
-87
30
0
11
-337
21
-87
31
0
0
LINE
5
629
100
AcDbEntity
8
0
100
AcDbLine
10
-250
20
-29
30
0
11
-278
21
-29
31
0
0
LINE
5
630
100
AcDbEntity
8
0
100
AcDbLine
10
-278
20
-29
30
0
11
-250
21
-29
31
0
0
LWPOLYLINE
5
631
100
AcDbEntity
8
0
100
AcDbPolyline
90
4
70
1
43
0.0
10
-337
20
-87
10
-337
20
-115
10
-365
20
-115
10
-365
20
-87
0
LINE
5
632
100
AcDbEntity
8
0
100
AcDbLine
10
-307
20
-144
30
0
11
-279
21
-144
31
0
0
LINE
5
633
100
AcDbEntity
8
0
100
AcDbLine
10
-279
20
-144
30
0
11
-307
21
-144
31
0
0
LINE
5
634
100
AcDbEntity
8
0
100
AcDbLine
10
-279
20
-116
30
0
11
-307
21
-116
31
0
0
LINE
5
635
100
AcDbEntity
8
0
100
AcDbLine
10
-307
20
-116
30
0
11
-279
21
-116
31
0
0
LINE
5
636
100
AcDbEntity
8
0
100
AcDbLine
10
-365
20
-144
30
0
11
-337
21
-144
31
0
0
LINE
5
637
100
AcDbEntity
8
0
100
AcDbLine
10
-337
20
-144
30
0
11
-365
21
-144
31
0
0
LWPOLYLINE
5
638
100
AcDbEntity
8
0
100
AcDbPolyline
90
4
70
1
43
0.0
10
-337
20
-115
10
-337
20
-87
10
-365
20
-87
10
-365
20
-115
0
LWPOLYLINE
5
639
100
AcDbEntity
8
0
100
AcDbPolyline
90
4
70
1
43
0.0
10
-250
20
-58
10
-250
20
-86
10
-278
20
-86
10
-278
20
-58
0
LINE
5
640
100
AcDbEntity
8
0
100
AcDbLine
10
-365
20
-87
30
0
11
-365
21
-115
31
0
0
LINE
5
641
100
AcDbEntity
8
0
100
AcDbLine
10
-365
20
-115
30
0
11
-365
21
-87
31
0
0
LWPOLYLINE
5
642
100
AcDbEntity
8
0
100
AcDbPolyline
90
4
70
1
43
0.0
10
-250
20
-56.999999999999993
10
-250
20
-29
10
-278
20
-29
10
-278
20
-56.999999999999993
0
LINE
5
643
100
AcDbEntity
8
0
100
AcDbLine
10
-278
20
-56.999999999999993
30
0
11
-250
21
-56.999999999999993
31
0
0
LINE
5
644
100
AcDbEntity
8
0
100
AcDbLine
10
-250
20
-56.999999999999993
30
0
11
-278
21
-56.999999999999993
31
0
0
LINE
5
645
100
AcDbEntity
8
0
100
AcDbLine
10
-279
20
-144
30
0
11
-279
21
-116
31
0
0
LINE
5
646
100
AcDbEntity
8
0
100
AcDbLine
10
-279
20
-116
30
0
11
-279
21
-144
31
0
0
LINE
5
647
100
AcDbEntity
8
0
100
AcDbLine
10
-278
20
-29
30
0
11
-278
21
-56.999999999999993
31
0
0
LINE
5
648
100
AcDbEntity
8
0
100
AcDbLine
10
-278
20
-56.999999999999993
30
0
11
-278
21
-29
31
0
0
LWPOLYLINE
5
649
100
AcDbEntity
8
0
100
AcDbPolyline
90
4
70
1
43
0.0
10
-279
20
-116
10
-279
20
-144
10
-307
20
-144
10
-307
20
-116
0
LINE
5
650
100
AcDbEntity
8
0
100
AcDbLine
10
-337
20
-115
30
0
11
-337
21
-87
31
0
0
LINE
5
651
100
AcDbEntity
8
0
100
AcDbLine
10
-337
20
-87
30
0
11
-337
21
-115
31
0
0
LINE
5
652
100
AcDbEntity
8
0
100
AcDbLine
10
-250
20
-56.999999999999993
30
0
11
-250
21
-29
31
0
0
LINE
5
653
100
AcDbEntity
8
0
100
AcDbLine
10
-250
20
-29
30
0
11
-250
21
-56.999999999999993
31
0
0
LINE
5
654
100
AcDbEntity
8
0
100
AcDbLine
10
-250
20
-58
30
0
11
-278
21
-58
31
0
0
LINE
5
655
100
AcDbEntity
8
0
100
AcDbLine
10
-278
20
-58
30
0
11
-250
21
-58
31
0
0
LINE
5
656
100
AcDbEntity
8
0
100
AcDbLine
10
-250
20
-86
30
0
11
-250
21
-58
31
0
0
LINE
5
657
100
AcDbEntity
8
0
100
AcDbLine
10
-250
20
-58
30
0
11
-250
21
-86
31
0
0
LINE
5
658
100
AcDbEntity
8
0
100
AcDbLine
10
-365
20
-115
30
0
11
-337
21
-115
31
0
0
LINE
5
659
100
AcDbEntity
8
0
100
AcDbLine
10
-337
20
-115
30
0
11
-365
21
-115
31
0
0
LINE
5
660
100
AcDbEntity
8
0
100
AcDbLine
10
-307
20
-116
30
0
11
-307
21
-144
31
0
0
LINE
5
661
100
AcDbEntity
8
0
100
AcDbLine
10
-307
20
-144
30
0
11
-307
21
-116
31
0
0
LINE
5
662
100
AcDbEntity
8
0
100
AcDbLine
10
-394
20
-231
30
0
11
-366
21
-231
31
0
0
LINE
5
663
100
AcDbEntity
8
0
100
AcDbLine
10
-366
20
-231
30
0
11
-394
21
-231
31
0
0
LINE
5
664
100
AcDbEntity
8
0
100
AcDbLine
10
-395
20
-232
30
0
11
-423
21
-232
31
0
0
LINE
5
665
100
AcDbEntity
8
0
100
AcDbLine
10
-423
20
-232
30
0
11
-395
21
-232
31
0
0
LWPOLYLINE
5
666
100
AcDbEntity
8
0
100
AcDbPolyline
90
4
70
1
43
0.0
10
-482
20
-232
10
-482
20
-260
10
-510
20
-260
10
-510
20
-232
0
LINE
5
667
100
AcDbEntity
8
0
100
AcDbLine
10
-337
20
-173
30
0
11
-337
21
-145
31
0
0
LINE
5
668
100
AcDbEntity
8
0
100
AcDbLine
10
-337
20
-145
30
0
11
-337
21
-173
31
0
0
LINE
5
669
100
AcDbEntity
8
0
100
AcDbLine
10
-424
20
-174
30
0
11
-452
21
-174
31
0
0
LINE
5
670
100
AcDbEntity
8
0
100
AcDbLine
10
-452
20
-174
30
0
11
-424
21
-174
31
0
0
LINE
5
671
100
AcDbEntity
8
0
100
AcDbLine
10
-365
20
-145
30
0
11
-365
21
-173
31
0
0
LINE
5
672
100
AcDbEntity
8
0
100
AcDbLine
10
-365
20
-173
30
0
11
-365
21
-145
31
0
0
LWPOLYLINE
5
673
100
AcDbEntity
8
0
100
AcDbPolyline
90
4
70
1
43
0.0
10
-366
20
-231
10
-366
20
-203
10
-394
20
-203
10
-394
20
-231
0
LINE
5
674
100
AcDbEntity
8
0
100
AcDbLine
10
-395
20
-144
30
0
11
-395
21
-116
31
0
0
LINE
5
675
100
AcDbEntity
8
0
100
AcDbLine
10
-395
20
-116
30
0
11
-395
21
-144
31
0
0
LWPOLYLINE
5
676
100
AcDbEntity
8
0
100
AcDbPolyline
90
4
70
1
43
0.0
10
-424
20
-231
10
-424
20
-203
10
-452
20
-203
10
-452
20
-231
0
LINE
5
677
100
AcDbEntity
8
0
100
AcDbLine
10
-510
20
-260
30
0
11
-482
21
-260
31
0
0
LINE
5
678
100
AcDbEntity
8
0
100
AcDbLine
10
-482
20
-260
30
0
11
-510
21
-260
31
0
0
LWPOLYLINE
5
679
100
AcDbEntity
8
0
100
AcDbPolyline
90
4
70
1
43
0.0
10
-424
20
-203
10
-424
20
-231
10
-452
20
-231
10
-452
20
-203
0
LINE
5
680
100
AcDbEntity
8
0
100
AcDbLine
10
-482
20
-260
30
0
11
-482
21
-232
31
0
0
LINE
5
681
100
AcDbEntity
8
0
100
AcDbLine
10
-482
20
-232
30
0
11
-482
21
-260
31
0
0
LINE
5
682
100
AcDbEntity
8
0
100
AcDbLine
10
-366
20
-231
30
0
11
-366
21
-203
31
0
0
LINE
5
683
100
AcDbEntity
8
0
100
AcDbLine
10
-366
20
-203
30
0
11
-366
21
-231
31
0
0
LINE
5
684
100
AcDbEntity
8
0
100
AcDbLine
10
-482
20
-232
30
0
11
-510
21
-232
31
0
0
LINE
5
685
100
AcDbEntity
8
0
100
AcDbLine
10
-510
20
-232
30
0
11
-482
21
-232
31
0
0
LWPOLYLINE
5
686
100
AcDbEntity
8
0
100
AcDbPolyline
90
4
70
1
43
0.0
10
-453
20
-260
10
-453
20
-232
10
-481
20
-232
10
-481
20
-260
0
LINE
5
687
100
AcDbEntity
8
0
100
AcDbLine
10
-394
20
-203
30
0
11
-394
21
-231
31
0
0
LINE
5
688
100
AcDbEntity
8
0
100
AcDbLine
10
-394
20
-231
30
0
11
-394
21
-203
31
0
0
LWPOLYLINE
5
689
100
AcDbEntity
8
0
100
AcDbPolyline
90
4
70
1
43
0.0
10
-337
20
-145
10
-337
20
-173
10
-365
20
-173
10
-365
20
-145
0
LWPOLYLINE
5
690
100
AcDbEntity
8
0
100
AcDbPolyline
90
4
70
1
43
0.0
10
-482
20
-260
10
-482
20
-232
10
-510
20
-232
10
-510
20
-260
0
LINE
5
691
100
AcDbEntity
8
0
100
AcDbLine
10
-452
20
-231
30
0
11
-424
21
-231
31
0
0
LINE
5
692
100
AcDbEntity
8
0
100
AcDbLine
10
-424
20
-231
30
0
11
-452
21
-231
31
0
0
LINE
5
693
100
AcDbEntity
8
0
100
AcDbLine
10
-423
20
-232
30
0
11
-423
21
-260
31
0
0
LINE
5
694
100
AcDbEntity
8
0
100
AcDbLine
10
-423
20
-260
30
0
11
-423
21
-232
31
0
0
LINE
5
695
100
AcDbEntity
8
0
100
AcDbLine
10
-366
20
-86
30
0
11
-366
21
-58
31
0
0
LINE
5
696
100
AcDbEntity
8
0
100
AcDbLine
10
-366
20
-58
30
0
11
-366
21
-86
31
0
0
LWPOLYLINE
5
697
100
AcDbEntity
8
0
100
AcDbPolyline
90
4
70
1
43
0.0
10
-453
20
-232
10
-453
20
-260
10
-481
20
-260
10
-481
20
-232
0
LINE
5
698
100
AcDbEntity
8
0
100
AcDbLine
10
-365
20
-173
30
0
11
-337
21
-173
31
0
0
LINE
5
699
100
AcDbEntity
8
0
100
AcDbLine
10
-337
20
-173
30
0
11
-365
21
-173
31
0
0
LWPOLYLINE
5
700
100
AcDbEntity
8
0
100
AcDbPolyline
90
4
70
1
43
0.0
10
-366
20
-86
10
-366
20
-58
10
-394
20
-58
10
-394
20
-86
0
LINE
5
701
100
AcDbEntity
8
0
100
AcDbLine
10
-510
20
-232
30
0
11
-510
21
-260
31
0
0
LINE
5
702
100
AcDbEntity
8
0
100
AcDbLine
10
-510
20
-260
30
0
11
-510
21
-232
31
0
0
LINE
5
703
100
AcDbEntity
8
0
100
AcDbLine
10
-394
20
-260
30
0
11
-366
21
-260
31
0
0
LINE
5
704
100
AcDbEntity
8
0
100
AcDbLine
10
-366
20
-260
30
0
11
-394
21
-260
31
0
0
LINE
5
705
100
AcDbEntity
8
0
100
AcDbLine
10
-452
20
-203
30
0
11
-452
21
-231
31
0
0
LINE
5
706
100
AcDbEntity
8
0
100
AcDbLine
10
-452
20
-231
30
0
11
-452
21
-203
31
0
0
LINE
5
707
100
AcDbEntity
8
0
100
AcDbLine
10
-395
20
-260
30
0
11
-395
21
-232
31
0
0
LINE
5
708
100
AcDbEntity
8
0
100
AcDbLine
10
-395
20
-232
30
0
11
-395
21
-260
31
0
0
LWPOLYLINE
5
709
100
AcDbEntity
8
0
100
AcDbPolyline
90
4
70
1
43
0.0
10
-366
20
-203
10
-366
20
-231
10
-394
20
-231
10
-394
20
-203
0
LWPOLYLINE
5
710
100
AcDbEntity
8
0
100
AcDbPolyline
90
4
70
1
43
0.0
10
-424
20
-174
10
-424
20
-202
10
-452
20
-202
10
-452
20
-174
0
LINE
5
711
100
AcDbEntity
8
0
100
AcDbLine
10
-366
20
-203
30
0
11
-394
21
-203
31
0
0
LINE
5
712
100
AcDbEntity
8
0
100
AcDbLine
10
-394
20
-203
30
0
11
-366
21
-203
31
0
0
LINE
5
713
100
AcDbEntity
8
0
100
AcDbLine
10
-394
20
-86
30
0
11
-366
21
-86
31
0
0
LINE
5
714
100
AcDbEntity
8
0
100
AcDbLine
10
-366
20
-86
30
0
11
-394
21
-86
31
0
0
LINE
5
715
100
AcDbEntity
8
0
100
AcDbLine
10
-424
20
-202
30
0
11
-424
21
-174
31
0
0
LINE
5
716
100
AcDbEntity
8
0
100
AcDbLine
10
-424
20
-174
30
0
11
-424
21
-202
31
0
0
LWPOLYLINE
5
717
100
AcDbEntity
8
0
100
AcDbPolyline
90
4
70
1
43
0.0
10
-424
20
-202
10
-424
20
-174
10
-452
20
-174
10
-452
20
-202
0
LWPOLYLINE
5
718
100
AcDbEntity
8
0
100
AcDbPolyline
90
4
70
1
43
0.0
10
-366
20
-58
10
-366
20
-86
10
-394
20
-86
10
-394
20
-58
0
LWPOLYLINE
5
719
100
AcDbEntity
8
0
100
AcDbPolyline
90
4
70
1
43
0.0
10
-395
20
-232
10
-395
20
-260
10
-423
20
-260
10
-423
20
-232
0
LWPOLYLINE
5
720
100
AcDbEntity
8
0
100
AcDbPolyline
90
4
70
1
43
0.0
10
-366
20
-260
10
-366
20
-232
10
-394
20
-232
10
-394
20
-260
0
LINE
5
721
100
AcDbEntity
8
0
100
AcDbLine
10
-424
20
-203
30
0
11
-452
21
-203
31
0
0
LINE
5
722
100
AcDbEntity
8
0
100
AcDbLine
10
-452
20
-203
30
0
11
-424
21
-203
31
0
0
LINE
5
723
100
AcDbEntity
8
0
100
AcDbLine
10
-423
20
-260
30
0
11
-395
21
-260
31
0
0
LINE
5
724
100
AcDbEntity
8
0
100
AcDbLine
10
-395
20
-260
30
0
11
-423
21
-260
31
0
0
LINE
5
725
100
AcDbEntity
8
0
100
AcDbLine
10
-424
20
-231
30
0
11
-424
21
-203
31
0
0
LINE
5
726
100
AcDbEntity
8
0
100
AcDbLine
10
-424
20
-203
30
0
11
-424
21
-231
31
0
0
LINE
5
727
100
AcDbEntity
8
0
100
AcDbLine
10
-337
20
-145
30
0
11
-365
21
-145
31
0
0
LINE
5
728
100
AcDbEntity
8
0
100
AcDbLine
10
-365
20
-145
30
0
11
-337
21
-145
31
0
0
LWPOLYLINE
5
729
100
AcDbEntity
8
0
100
AcDbPolyline
90
4
70
1
43
0.0
10
-337
20
-173
10
-337
20
-145
10
-365
20
-145
10
-365
20
-173
0
LWPOLYLINE
5
730
100
AcDbEntity
8
0
100
AcDbPolyline
90
4
70
1
43
0.0
10
-395
20
-260
10
-395
20
-232
10
-423
20
-232
10
-423
20
-260
0
LINE
5
731
100
AcDbEntity
8
0
100
AcDbLine
10
-394
20
-232
30
0
11
-394
21
-260
31
0
0
LINE
5
732
100
AcDbEntity
8
0
100
AcDbLine
10
-394
20
-260
30
0
11
-394
21
-232
31
0
0
LINE
5
733
100
AcDbEntity
8
0
100
AcDbLine
10
-366
20
-232
30
0
11
-394
21
-232
31
0
0
LINE
5
734
100
AcDbEntity
8
0
100
AcDbLine
10
-394
20
-232
30
0
11
-366
21
-232
31
0
0
LINE
5
735
100
AcDbEntity
8
0
100
AcDbLine
10
-366
20
-260
30
0
11
-366
21
-232
31
0
0
LINE
5
736
100
AcDbEntity
8
0
100
AcDbLine
10
-366
20
-232
30
0
11
-366
21
-260
31
0
0
LWPOLYLINE
5
737
100
AcDbEntity
8
0
100
AcDbPolyline
90
4
70
1
43
0.0
10
-366
20
-232
10
-366
20
-260
10
-394
20
-260
10
-394
20
-232
0
LINE
5
738
100
AcDbEntity
8
0
100
AcDbLine
10
-394
20
-58
30
0
11
-394
21
-86
31
0
0
LINE
5
739
100
AcDbEntity
8
0
100
AcDbLine
10
-394
20
-86
30
0
11
-394
21
-58
31
0
0
LINE
5
740
100
AcDbEntity
8
0
100
AcDbLine
10
-366
20
-58
30
0
11
-394
21
-58
31
0
0
LINE
5
741
100
AcDbEntity
8
0
100
AcDbLine
10
-394
20
-58
30
0
11
-366
21
-58
31
0
0
LINE
5
742
100
AcDbEntity
8
0
100
AcDbLine
10
-423
20
-144
30
0
11
-395
21
-144
31
0
0
LINE
5
743
100
AcDbEntity
8
0
100
AcDbLine
10
-395
20
-144
30
0
11
-423
21
-144
31
0
0
LINE
5
744
100
AcDbEntity
8
0
100
AcDbLine
10
-423
20
-116
30
0
11
-423
21
-144
31
0
0
LINE
5
745
100
AcDbEntity
8
0
100
AcDbLine
10
-423
20
-144
30
0
11
-423
21
-116
31
0
0
LINE
5
746
100
AcDbEntity
8
0
100
AcDbLine
10
-395
20
-116
30
0
11
-423
21
-116
31
0
0
LINE
5
747
100
AcDbEntity
8
0
100
AcDbLine
10
-423
20
-116
30
0
11
-395
21
-116
31
0
0
LWPOLYLINE
5
748
100
AcDbEntity
8
0
100
AcDbPolyline
90
4
70
1
43
0.0
10
-395
20
-144
10
-395
20
-116
10
-423
20
-116
10
-423
20
-144
0
LWPOLYLINE
5
749
100
AcDbEntity
8
0
100
AcDbPolyline
90
4
70
1
43
0.0
10
-395
20
-116
10
-395
20
-144
10
-423
20
-144
10
-423
20
-116
0
LINE
5
750
100
AcDbEntity
8
0
100
AcDbLine
10
-394
20
-173
30
0
11
-366
21
-173
31
0
0
LINE
5
751
100
AcDbEntity
8
0
100
AcDbLine
10
-366
20
-173
30
0
11
-394
21
-173
31
0
0
LINE
5
752
100
AcDbEntity
8
0
100
AcDbLine
10
-394
20
-145
30
0
11
-394
21
-173
31
0
0
LINE
5
753
100
AcDbEntity
8
0
100
AcDbLine
10
-394
20
-173
30
0
11
-394
21
-145
31
0
0
LINE
5
754
100
AcDbEntity
8
0
100
AcDbLine
10
-366
20
-145
30
0
11
-394
21
-145
31
0
0
LINE
5
755
100
AcDbEntity
8
0
100
AcDbLine
10
-394
20
-145
30
0
11
-366
21
-145
31
0
0
LINE
5
756
100
AcDbEntity
8
0
100
AcDbLine
10
-366
20
-173
30
0
11
-366
21
-145
31
0
0
LINE
5
757
100
AcDbEntity
8
0
100
AcDbLine
10
-366
20
-145
30
0
11
-366
21
-173
31
0
0
LWPOLYLINE
5
758
100
AcDbEntity
8
0
100
AcDbPolyline
90
4
70
1
43
0.0
10
-366
20
-28
10
-366
20
0
10
-394
20
0
10
-394
20
-28
0
LWPOLYLINE
5
759
100
AcDbEntity
8
0
100
AcDbPolyline
90
4
70
1
43
0.0
10
-453
20
-87
10
-453
20
-115
10
-481
20
-115
10
-481
20
-87
0
LWPOLYLINE
5
760
100
AcDbEntity
8
0
100
AcDbPolyline
90
4
70
1
43
0.0
10
-395
20
-145
10
-395
20
-173
10
-423
20
-173
10
-423
20
-145
0
LINE
5
761
100
AcDbEntity
8
0
100
AcDbLine
10
-481
20
-87
30
0
11
-481
21
-115
31
0
0
LINE
5
762
100
AcDbEntity
8
0
100
AcDbLine
10
-481
20
-115
30
0
11
-481
21
-87
31
0
0
LINE
5
763
100
AcDbEntity
8
0
100
AcDbLine
10
-423
20
-173
30
0
11
-395
21
-173
31
0
0
LINE
5
764
100
AcDbEntity
8
0
100
AcDbLine
10
-395
20
-173
30
0
11
-423
21
-173
31
0
0
LWPOLYLINE
5
765
100
AcDbEntity
8
0
100
AcDbPolyline
90
4
70
1
43
0.0
10
-395
20
-173
10
-395
20
-145
10
-423
20
-145
10
-423
20
-173
0
LINE
5
766
100
AcDbEntity
8
0
100
AcDbLine
10
-366
20
-202
30
0
11
-366
21
-174
31
0
0
LINE
5
767
100
AcDbEntity
8
0
100
AcDbLine
10
-366
20
-174
30
0
11
-366
21
-202
31
0
0
LINE
5
768
100
AcDbEntity
8
0
100
AcDbLine
10
-394
20
-202
30
0
11
-366
21
-202
31
0
0
LINE
5
769
100
AcDbEntity
8
0
100
AcDbLine
10
-366
20
-202
30
0
11
-394
21
-202
31
0
0
LINE
5
770
100
AcDbEntity
8
0
100
AcDbLine
10
-423
20
-145
30
0
11
-423
21
-173
31
0
0
LINE
5
771
100
AcDbEntity
8
0
100
AcDbLine
10
-423
20
-173
30
0
11
-423
21
-145
31
0
0
LINE
5
772
100
AcDbEntity
8
0
100
AcDbLine
10
-481
20
-231
30
0
11
-453
21
-231
31
0
0
LINE
5
773
100
AcDbEntity
8
0
100
AcDbLine
10
-453
20
-231
30
0
11
-481
21
-231
31
0
0
LINE
5
774
100
AcDbEntity
8
0
100
AcDbLine
10
-453
20
-144
30
0
11
-453
21
-116
31
0
0
LINE
5
775
100
AcDbEntity
8
0
100
AcDbLine
10
-453
20
-116
30
0
11
-453
21
-144
31
0
0
LINE
5
776
100
AcDbEntity
8
0
100
AcDbLine
10
-394
20
-174
30
0
11
-394
21
-202
31
0
0
LINE
5
777
100
AcDbEntity
8
0
100
AcDbLine
10
-394
20
-202
30
0
11
-394
21
-174
31
0
0
LWPOLYLINE
5
778
100
AcDbEntity
8
0
100
AcDbPolyline
90
4
70
1
43
0.0
10
-453
20
-231
10
-453
20
-203
10
-481
20
-203
10
-481
20
-231
0
LWPOLYLINE
5
779
100
AcDbEntity
8
0
100
AcDbPolyline
90
4
70
1
43
0.0
10
-366
20
-202
10
-366
20
-174
10
-394
20
-174
10
-394
20
-202
0
LINE
5
780
100
AcDbEntity
8
0
100
AcDbLine
10
-452
20
-202
30
0
11
-424
21
-202
31
0
0
LINE
5
781
100
AcDbEntity
8
0
100
AcDbLine
10
-424
20
-202
30
0
11
-452
21
-202
31
0
0
LINE
5
782
100
AcDbEntity
8
0
100
AcDbLine
10
-395
20
-173
30
0
11
-395
21
-145
31
0
0
LINE
5
783
100
AcDbEntity
8
0
100
AcDbLine
10
-395
20
-145
30
0
11
-395
21
-173
31
0
0
LINE
5
784
100
AcDbEntity
8
0
100
AcDbLine
10
-481
20
-232
30
0
11
-481
21
-260
31
0
0
LINE
5
785
100
AcDbEntity
8
0
100
AcDbLine
10
-481
20
-260
30
0
11
-481
21
-232
31
0
0
LINE
5
786
100
AcDbEntity
8
0
100
AcDbLine
10
-452
20
-174
30
0
11
-452
21
-202
31
0
0
LINE
5
787
100
AcDbEntity
8
0
100
AcDbLine
10
-452
20
-202
30
0
11
-452
21
-174
31
0
0
LINE
5
788
100
AcDbEntity
8
0
100
AcDbLine
10
-453
20
-232
30
0
11
-481
21
-232
31
0
0
LINE
5
789
100
AcDbEntity
8
0
100
AcDbLine
10
-481
20
-232
30
0
11
-453
21
-232
31
0
0
LINE
5
790
100
AcDbEntity
8
0
100
AcDbLine
10
-453
20
-87
30
0
11
-481
21
-87
31
0
0
LINE
5
791
100
AcDbEntity
8
0
100
AcDbLine
10
-481
20
-87
30
0
11
-453
21
-87
31
0
0
LINE
5
792
100
AcDbEntity
8
0
100
AcDbLine
10
-395
20
-145
30
0
11
-423
21
-145
31
0
0
LINE
5
793
100
AcDbEntity
8
0
100
AcDbLine
10
-423
20
-145
30
0
11
-395
21
-145
31
0
0
LINE
5
794
100
AcDbEntity
8
0
100
AcDbLine
10
-453
20
-115
30
0
11
-453
21
-87
31
0
0
LINE
5
795
100
AcDbEntity
8
0
100
AcDbLine
10
-453
20
-87
30
0
11
-453
21
-115
31
0
0
LINE
5
796
100
AcDbEntity
8
0
100
AcDbLine
10
-481
20
-144
30
0
11
-453
21
-144
31
0
0
LINE
5
797
100
AcDbEntity
8
0
100
AcDbLine
10
-453
20
-144
30
0
11
-481
21
-144
31
0
0
LINE
5
798
100
AcDbEntity
8
0
100
AcDbLine
10
-366
20
-28
30
0
11
-366
21
0
31
0
0
LINE
5
799
100
AcDbEntity
8
0
100
AcDbLine
10
-366
20
0
30
0
11
-366
21
-28
31
0
0
LWPOLYLINE
5
800
100
AcDbEntity
8
0
100
AcDbPolyline
90
4
70
1
43
0.0
10
-453
20
-144
10
-453
20
-116
10
-481
20
-116
10
-481
20
-144
0
LWPOLYLINE
5
801
100
AcDbEntity
8
0
100
AcDbPolyline
90
4
70
1
43
0.0
10
-453
20
-116
10
-453
20
-144
10
-481
20
-144
10
-481
20
-116
0
LINE
5
802
100
AcDbEntity
8
0
100
AcDbLine
10
-453
20
-231
30
0
11
-453
21
-203
31
0
0
LINE
5
803
100
AcDbEntity
8
0
100
AcDbLine
10
-453
20
-203
30
0
11
-453
21
-231
31
0
0
LINE
5
804
100
AcDbEntity
8
0
100
AcDbLine
10
-453
20
-116
30
0
11
-481
21
-116
31
0
0
LINE
5
805
100
AcDbEntity
8
0
100
AcDbLine
10
-481
20
-116
30
0
11
-453
21
-116
31
0
0
LWPOLYLINE
5
806
100
AcDbEntity
8
0
100
AcDbPolyline
90
4
70
1
43
0.0
10
-453
20
-203
10
-453
20
-231
10
-481
20
-231
10
-481
20
-203
0
LWPOLYLINE
5
807
100
AcDbEntity
8
0
100
AcDbPolyline
90
4
70
1
43
0.0
10
-366
20
-174
10
-366
20
-202
10
-394
20
-202
10
-394
20
-174
0
LINE
5
808
100
AcDbEntity
8
0
100
AcDbLine
10
-453
20
-260
30
0
11
-453
21
-232
31
0
0
LINE
5
809
100
AcDbEntity
8
0
100
AcDbLine
10
-453
20
-232
30
0
11
-453
21
-260
31
0
0
LINE
5
810
100
AcDbEntity
8
0
100
AcDbLine
10
-481
20
-260
30
0
11
-453
21
-260
31
0
0
LINE
5
811
100
AcDbEntity
8
0
100
AcDbLine
10
-453
20
-260
30
0
11
-481
21
-260
31
0
0
LWPOLYLINE
5
812
100
AcDbEntity
8
0
100
AcDbPolyline
90
4
70
1
43
0.0
10
-453
20
-115
10
-453
20
-87
10
-481
20
-87
10
-481
20
-115
0
LWPOLYLINE
5
813
100
AcDbEntity
8
0
100
AcDbPolyline
90
4
70
1
43
0.0
10
-366
20
0
10
-366
20
-28
10
-394
20
-28
10
-394
20
0
0
LINE
5
814
100
AcDbEntity
8
0
100
AcDbLine
10
-481
20
-116
30
0
11
-481
21
-144
31
0
0
LINE
5
815
100
AcDbEntity
8
0
100
AcDbLine
10
-481
20
-144
30
0
11
-481
21
-116
31
0
0
LINE
5
816
100
AcDbEntity
8
0
100
AcDbLine
10
-481
20
-203
30
0
11
-481
21
-231
31
0
0
LINE
5
817
100
AcDbEntity
8
0
100
AcDbLine
10
-481
20
-231
30
0
11
-481
21
-203
31
0
0
LINE
5
818
100
AcDbEntity
8
0
100
AcDbLine
10
-453
20
-203
30
0
11
-481
21
-203
31
0
0
LINE
5
819
100
AcDbEntity
8
0
100
AcDbLine
10
-481
20
-203
30
0
11
-453
21
-203
31
0
0
LINE
5
820
100
AcDbEntity
8
0
100
AcDbLine
10
-366
20
-174
30
0
11
-394
21
-174
31
0
0
LINE
5
821
100
AcDbEntity
8
0
100
AcDbLine
10
-394
20
-174
30
0
11
-366
21
-174
31
0
0
LWPOLYLINE
5
822
100
AcDbEntity
8
0
100
AcDbPolyline
90
4
70
1
43
0.0
10
-395
20
-58
10
-395
20
-86
10
-423
20
-86
10
-423
20
-58
0
LINE
5
823
100
AcDbEntity
8
0
100
AcDbLine
10
-482
20
-56.999999999999993
30
0
11
-482
21
-29
31
0
0
LINE
5
824
100
AcDbEntity
8
0
100
AcDbLine
10
-482
20
-29
30
0
11
-482
21
-56.999999999999993
31
0
0
LINE
5
825
100
AcDbEntity
8
0
100
AcDbLine
10
-510
20
-202
30
0
11
-482
21
-202
31
0
0
LINE
5
826
100
AcDbEntity
8
0
100
AcDbLine
10
-482
20
-202
30
0
11
-510
21
-202
31
0
0
LINE
5
827
100
AcDbEntity
8
0
100
AcDbLine
10
-395
20
-58
30
0
11
-423
21
-58
31
0
0
LINE
5
828
100
AcDbEntity
8
0
100
AcDbLine
10
-423
20
-58
30
0
11
-395
21
-58
31
0
0
LWPOLYLINE
5
829
100
AcDbEntity
8
0
100
AcDbPolyline
90
4
70
1
43
0.0
10
-453
20
-202
10
-453
20
-174
10
-481
20
-174
10
-481
20
-202
0
LWPOLYLINE
5
830
100
AcDbEntity
8
0
100
AcDbPolyline
90
4
70
1
43
0.0
10
-395
20
-86
10
-395
20
-58
10
-423
20
-58
10
-423
20
-86
0
LINE
5
831
100
AcDbEntity
8
0
100
AcDbLine
10
-452
20
-58
30
0
11
-452
21
-86
31
0
0
LINE
5
832
100
AcDbEntity
8
0
100
AcDbLine
10
-452
20
-86
30
0
11
-452
21
-58
31
0
0
LINE
5
833
100
AcDbEntity
8
0
100
AcDbLine
10
-424
20
-86
30
0
11
-424
21
-58
31
0
0
LINE
5
834
100
AcDbEntity
8
0
100
AcDbLine
10
-424
20
-58
30
0
11
-424
21
-86
31
0
0
LWPOLYLINE
5
835
100
AcDbEntity
8
0
100
AcDbPolyline
90
4
70
1
43
0.0
10
-424
20
-86
10
-424
20
-58
10
-452
20
-58
10
-452
20
-86
0
LINE
5
836
100
AcDbEntity
8
0
100
AcDbLine
10
-250
20
-87
30
0
11
-278
21
-87
31
0
0
LINE
5
837
100
AcDbEntity
8
0
100
AcDbLine
10
-278
20
-87
30
0
11
-250
21
-87
31
0
0
LINE
5
838
100
AcDbEntity
8
0
100
AcDbLine
10
-278
20
-87
30
0
11
-278
21
-115
31
0
0
LINE
5
839
100
AcDbEntity
8
0
100
AcDbLine
10
-278
20
-115
30
0
11
-278
21
-87
31
0
0
LINE
5
840
100
AcDbEntity
8
0
100
AcDbLine
10
-452
20
-28
30
0
11
-424
21
-28
31
0
0
LINE
5
841
100
AcDbEntity
8
0
100
AcDbLine
10
-424
20
-28
30
0
11
-452
21
-28
31
0
0
LINE
5
842
100
AcDbEntity
8
0
100
AcDbLine
10
-482
20
-86
30
0
11
-482
21
-58
31
0
0
LINE
5
843
100
AcDbEntity
8
0
100
AcDbLine
10
-482
20
-58
30
0
11
-482
21
-86
31
0
0
LINE
5
844
100
AcDbEntity
8
0
100
AcDbLine
10
-423
20
-58
30
0
11
-423
21
-86
31
0
0
LINE
5
845
100
AcDbEntity
8
0
100
AcDbLine
10
-423
20
-86
30
0
11
-423
21
-58
31
0
0
LWPOLYLINE
5
846
100
AcDbEntity
8
0
100
AcDbPolyline
90
4
70
1
43
0.0
10
-453
20
-174
10
-453
20
-202
10
-481
20
-202
10
-481
20
-174
0
LINE
5
847
100
AcDbEntity
8
0
100
AcDbLine
10
-510
20
-174
30
0
11
-510
21
-202
31
0
0
LINE
5
848
100
AcDbEntity
8
0
100
AcDbLine
10
-510
20
-202
30
0
11
-510
21
-174
31
0
0
LINE
5
849
100
AcDbEntity
8
0
100
AcDbLine
10
-510
20
-58
30
0
11
-510
21
-86
31
0
0
LINE
5
850
100
AcDbEntity
8
0
100
AcDbLine
10
-510
20
-86
30
0
11
-510
21
-58
31
0
0
LINE
5
851
100
AcDbEntity
8
0
100
AcDbLine
10
-424
20
0
30
0
11
-452
21
0
31
0
0
LINE
5
852
100
AcDbEntity
8
0
100
AcDbLine
10
-452
20
0
30
0
11
-424
21
0
31
0
0
LINE
5
853
100
AcDbEntity
8
0
100
AcDbLine
10
-394
20
-144
30
0
11
-366
21
-144
31
0
0
LINE
5
854
100
AcDbEntity
8
0
100
AcDbLine
10
-366
20
-144
30
0
11
-394
21
-144
31
0
0
LINE
5
855
100
AcDbEntity
8
0
100
AcDbLine
10
-482
20
-202
30
0
11
-482
21
-174
31
0
0
LINE
5
856
100
AcDbEntity
8
0
100
AcDbLine
10
-482
20
-174
30
0
11
-482
21
-202
31
0
0
LINE
5
857
100
AcDbEntity
8
0
100
AcDbLine
10
-453
20
-174
30
0
11
-481
21
-174
31
0
0
LINE
5
858
100
AcDbEntity
8
0
100
AcDbLine
10
-481
20
-174
30
0
11
-453
21
-174
31
0
0
LINE
5
859
100
AcDbEntity
8
0
100
AcDbLine
10
-366
20
-116
30
0
11
-394
21
-116
31
0
0
LINE
5
860
100
AcDbEntity
8
0
100
AcDbLine
10
-394
20
-116
30
0
11
-366
21
-116
31
0
0
LINE
5
861
100
AcDbEntity
8
0
100
AcDbLine
10
-510
20
-56.999999999999993
30
0
11
-482
21
-56.999999999999993
31
0
0
LINE
5
862
100
AcDbEntity
8
0
100
AcDbLine
10
-482
20
-56.999999999999993
30
0
11
-510
21
-56.999999999999993
31
0
0
LWPOLYLINE
5
863
100
AcDbEntity
8
0
100
AcDbPolyline
90
4
70
1
43
0.0
10
-424
20
0
10
-424
20
-28
10
-452
20
-28
10
-452
20
0
0
LINE
5
864
100
AcDbEntity
8
0
100
AcDbLine
10
-510
20
-86
30
0
11
-482
21
-86
31
0
0
LINE
5
865
100
AcDbEntity
8
0
100
AcDbLine
10
-482
20
-86
30
0
11
-510
21
-86
31
0
0
LINE
5
866
100
AcDbEntity
8
0
100
AcDbLine
10
-395
20
-86
30
0
11
-395
21
-58
31
0
0
LINE
5
867
100
AcDbEntity
8
0
100
AcDbLine
10
-395
20
-58
30
0
11
-395
21
-86
31
0
0
LINE
5
868
100
AcDbEntity
8
0
100
AcDbLine
10
-424
20
-28
30
0
11
-424
21
0
31
0
0
LINE
5
869
100
AcDbEntity
8
0
100
AcDbLine
10
-424
20
0
30
0
11
-424
21
-28
31
0
0
LWPOLYLINE
5
870
100
AcDbEntity
8
0
100
AcDbPolyline
90
4
70
1
43
0.0
10
-424
20
-28
10
-424
20
0
10
-452
20
0
10
-452
20
-28
0
LWPOLYLINE
5
871
100
AcDbEntity
8
0
100
AcDbPolyline
90
4
70
1
43
0.0
10
-424
20
-58
10
-424
20
-86
10
-452
20
-86
10
-452
20
-58
0
LWPOLYLINE
5
872
100
AcDbEntity
8
0
100
AcDbPolyline
90
4
70
1
43
0.0
10
-482
20
-86
10
-482
20
-58
10
-510
20
-58
10
-510
20
-86
0
LINE
5
873
100
AcDbEntity
8
0
100
AcDbLine
10
-250
20
-115
30
0
11
-250
21
-87
31
0
0
LINE
5
874
100
AcDbEntity
8
0
100
AcDbLine
10
-250
20
-87
30
0
11
-250
21
-115
31
0
0
LINE
5
875
100
AcDbEntity
8
0
100
AcDbLine
10
-482
20
-174
30
0
11
-510
21
-174
31
0
0
LINE
5
876
100
AcDbEntity
8
0
100
AcDbLine
10
-510
20
-174
30
0
11
-482
21
-174
31
0
0
LINE
5
877
100
AcDbEntity
8
0
100
AcDbLine
10
-452
20
-86
30
0
11
-424
21
-86
31
0
0
LINE
5
878
100
AcDbEntity
8
0
100
AcDbLine
10
-424
20
-86
30
0
11
-452
21
-86
31
0
0
LWPOLYLINE
5
879
100
AcDbEntity
8
0
100
AcDbPolyline
90
4
70
1
43
0.0
10
-482
20
-202
10
-482
20
-174
10
-510
20
-174
10
-510
20
-202
0
LINE
5
880
100
AcDbEntity
8
0
100
AcDbLine
10
-482
20
-58
30
0
11
-510
21
-58
31
0
0
LINE
5
881
100
AcDbEntity
8
0
100
AcDbLine
10
-510
20
-58
30
0
11
-482
21
-58
31
0
0
LWPOLYLINE
5
882
100
AcDbEntity
8
0
100
AcDbPolyline
90
4
70
1
43
0.0
10
-482
20
-58
10
-482
20
-86
10
-510
20
-86
10
-510
20
-58
0
LINE
5
883
100
AcDbEntity
8
0
100
AcDbLine
10
-424
20
-58
30
0
11
-452
21
-58
31
0
0
LINE
5
884
100
AcDbEntity
8
0
100
AcDbLine
10
-452
20
-58
30
0
11
-424
21
-58
31
0
0
LINE
5
885
100
AcDbEntity
8
0
100
AcDbLine
10
-394
20
-116
30
0
11
-394
21
-144
31
0
0
LINE
5
886
100
AcDbEntity
8
0
100
AcDbLine
10
-394
20
-144
30
0
11
-394
21
-116
31
0
0
LINE
5
887
100
AcDbEntity
8
0
100
AcDbLine
10
-366
20
-144
30
0
11
-366
21
-116
31
0
0
LINE
5
888
100
AcDbEntity
8
0
100
AcDbLine
10
-366
20
-116
30
0
11
-366
21
-144
31
0
0
LINE
5
889
100
AcDbEntity
8
0
100
AcDbLine
10
-453
20
-202
30
0
11
-453
21
-174
31
0
0
LINE
5
890
100
AcDbEntity
8
0
100
AcDbLine
10
-453
20
-174
30
0
11
-453
21
-202
31
0
0
LWPOLYLINE
5
891
100
AcDbEntity
8
0
100
AcDbPolyline
90
4
70
1
43
0.0
10
-366
20
-116
10
-366
20
-144
10
-394
20
-144
10
-394
20
-116
0
LINE
5
892
100
AcDbEntity
8
0
100
AcDbLine
10
-510
20
-29
30
0
11
-510
21
-56.999999999999993
31
0
0
LINE
5
893
100
AcDbEntity
8
0
100
AcDbLine
10
-510
20
-56.999999999999993
30
0
11
-510
21
-29
31
0
0
LWPOLYLINE
5
894
100
AcDbEntity
8
0
100
AcDbPolyline
90
4
70
1
43
0.0
10
-366
20
-144
10
-366
20
-116
10
-394
20
-116
10
-394
20
-144
0
LWPOLYLINE
5
895
100
AcDbEntity
8
0
100
AcDbPolyline
90
4
70
1
43
0.0
10
-482
20
-174
10
-482
20
-202
10
-510
20
-202
10
-510
20
-174
0
LINE
5
896
100
AcDbEntity
8
0
100
AcDbLine
10
-482
20
-29
30
0
11
-510
21
-29
31
0
0
LINE
5
897
100
AcDbEntity
8
0
100
AcDbLine
10
-510
20
-29
30
0
11
-482
21
-29
31
0
0
LINE
5
898
100
AcDbEntity
8
0
100
AcDbLine
10
-394
20
-28
30
0
11
-366
21
-28
31
0
0
LINE
5
899
100
AcDbEntity
8
0
100
AcDbLine
10
-366
20
-28
30
0
11
-394
21
-28
31
0
0
LINE
5
900
100
AcDbEntity
8
0
100
AcDbLine
10
-452
20
0
30
0
11
-452
21
-28
31
0
0
LINE
5
901
100
AcDbEntity
8
0
100
AcDbLine
10
-452
20
-28
30
0
11
-452
21
0
31
0
0
LWPOLYLINE
5
902
100
AcDbEntity
8
0
100
AcDbPolyline
90
4
70
1
43
0.0
10
-482
20
-29
10
-482
20
-56.999999999999993
10
-510
20
-56.999999999999993
10
-510
20
-29
0
LWPOLYLINE
5
903
100
AcDbEntity
8
0
100
AcDbPolyline
90
4
70
1
43
0.0
10
-482
20
-56.999999999999993
10
-482
20
-29
10
-510
20
-29
10
-510
20
-56.999999999999993
0
LINE
5
904
100
AcDbEntity
8
0
100
AcDbLine
10
-394
20
0
30
0
11
-394
21
-28
31
0
0
LINE
5
905
100
AcDbEntity
8
0
100
AcDbLine
10
-394
20
-28
30
0
11
-394
21
0
31
0
0
LINE
5
906
100
AcDbEntity
8
0
100
AcDbLine
10
-366
20
0
30
0
11
-394
21
0
31
0
0
LINE
5
907
100
AcDbEntity
8
0
100
AcDbLine
10
-394
20
0
30
0
11
-366
21
0
31
0
0
LINE
5
908
100
AcDbEntity
8
0
100
AcDbLine
10
-481
20
-115
30
0
11
-453
21
-115
31
0
0
LINE
5
909
100
AcDbEntity
8
0
100
AcDbLine
10
-453
20
-115
30
0
11
-481
21
-115
31
0
0
LINE
5
910
100
AcDbEntity
8
0
100
AcDbLine
10
-250
20
0
30
0
11
-246.46446609406726
21
3.5355339059327373
31
0
0
LINE
5
911
100
AcDbEntity
8
0
100
AcDbLine
10
-510
20
0
30
0
11
-513.53553390593265
21
3.5355339059327662
31
0
0
LINE
5
912
100
AcDbEntity
8
0
100
AcDbLine
10
-510
20
0
30
0
11
-505
21
0
31
0
0
LINE
5
913
100
AcDbEntity
8
0
100
AcDbLine
10
-510
20
-260
30
0
11
-513.53553522302002
21
-263.535532588845
31
0
0
LINE
5
914
100
AcDbEntity
8
0
100
AcDbLine
10
-250
20
-260
30
0
11
-246.46446878092979
21
-263.53553659279322
31
0
0
LWPOLYLINE
5
915
100
AcDbEntity
8
0
100
AcDbPolyline
90
4
70
1
43
0.0
10
-513.53553522302002
20
3.5355339059327373
10
-246.46446609406726
20
3.5355339059327306
10
-246.46446609406726
20
-263.535532588845
10
-513.53553522302002
20
-263.535532588845
0
ENDSEC
0
SECTION
2
OBJECTS
0
DICTIONARY
5
C
100
AcDbDictionary
3
ACAD_GROUP
350
D
3
ACAD_MLINESTYLE
350
17
0
DICTIONARY
5
D
100
AcDbDictionary
0
DICTIONARY
5
1A
330
C
100
AcDbDictionary
0
DICTIONARY
5
17
100
AcDbDictionary
0
ENDSEC
0
EOF
