0
SECTION
2
HEADER
9
$INSUNITS
70
4
9
$ACADVER
1
AC1014
9
$HANDSEED
5
FFFF
0
ENDSEC
0
SECTION
2
TABLES
0
TABLE
2
VPORT
5
8
100
AcDbSymbolTable
0
ENDTAB
0
TABLE
2
LTYPE
5
5
100
AcDbSymbolTable
0
LTYPE
5
14
100
AcDbSymbolTableRecord
100
AcDbLinetypeTableRecord
2
BYBLOCK
70
0
0
LTYPE
5
15
100
AcDbSymbolTableRecord
100
AcDbLinetypeTableRecord
2
BYLAYER
70
0
0
ENDTAB
0
TABLE
2
LAYER
5
2
100
AcDbSymbolTable
70
2
0
LAYER
5
50
100
AcDbSymbolTableRecord
100
AcDbLayerTableRecord
2
0
70
0
6
CONTINUOUS
0
ENDTAB
0
TABLE
2
STYLE
5
3
100
AcDbSymbolTable
70
1
0
STYLE
5
11
100
AcDbSymbolTableRecord
100
AcDbTextStyleTableRecord
2
STANDARD
70
0
0
ENDTAB
0
TABLE
2
VIEW
5
6
100
AcDbSymbolTable
70
0
0
ENDTAB
0
TABLE
2
UCS
5
7
100
AcDbSymbolTable
70
0
0
ENDTAB
0
TABLE
2
APPID
5
9
100
AcDbSymbolTable
70
2
0
APPID
5
12
100
AcDbSymbolTableRecord
100
AcDbRegAppTableRecord
2
ACAD
70
0
0
ENDTAB
0
TABLE
2
DIMSTYLE
5
A
100
AcDbSymbolTable
70
1
0
ENDTAB
0
TABLE
2
BLOCK_RECORD
5
1
100
AcDbSymbolTable
70
1
0
BLOCK_RECORD
5
1F
100
AcDbSymbolTableRecord
100
AcDbBlockTableRecord
2
*MODEL_SPACE
0
BLOCK_RECORD
5
1B
100
AcDbSymbolTableRecord
100
AcDbBlockTableRecord
2
*PAPER_SPACE
0
ENDTAB
0
ENDSEC
0
SECTION
2
BLOCKS
0
BLOCK
5
20
100
AcDbEntity
100
AcDbBlockBegin
2
*MODEL_SPACE
0
ENDBLK
5
21
100
AcDbEntity
100
AcDbBlockEnd
0
BLOCK
5
1C
100
AcDbEntity
100
AcDbBlockBegin
2
*PAPER_SPACE
0
ENDBLK
5
1D
100
AcDbEntity
100
AcDbBlockEnd
0
ENDSEC
0
SECTION
2
ENTITIES
0
LWPOLYLINE
5
100
100
AcDbEntity
8
0
100
AcDbPolyline
90
5
70
1
43
0.0
10
66.843883577163155
20
-35.02257752686976
10
91.843883577163155
20
-35.02257752686976
10
89.343883577163155
20
-60.522577526869775
10
79.343883577163155
20
-62.52257752686976
10
69.343883577163155
20
-60.522577526869803
0
LINE
5
101
100
AcDbEntity
8
0
100
AcDbLine
10
169.34388357716315
20
-62.52257752686976
30
0
11
179.34388357716315
21
-60.522577526869775
31
0
0
LINE
5
102
100
AcDbEntity
8
0
100
AcDbLine
10
179.34388357716315
20
-60.522577526869775
30
0
11
169.34388357716315
21
-62.52257752686976
31
0
0
LINE
5
103
100
AcDbEntity
8
0
100
AcDbLine
10
79.343883577163155
20
-62.52257752686976
30
0
11
89.343883577163155
21
-60.522577526869775
31
0
0
LINE
5
104
100
AcDbEntity
8
0
100
AcDbLine
10
89.343883577163155
20
-60.522577526869775
30
0
11
79.343883577163155
21
-62.52257752686976
31
0
0
LINE
5
105
100
AcDbEntity
8
0
100
AcDbLine
10
66.843883577163155
20
-67.522577526869753
30
0
11
69.343883577163155
21
-93.02257752686981
31
0
0
LINE
5
106
100
AcDbEntity
8
0
100
AcDbLine
10
69.343883577163155
20
-93.02257752686981
30
0
11
66.843883577163155
21
-67.522577526869753
31
0
0
LWPOLYLINE
5
107
100
AcDbEntity
8
0
100
AcDbPolyline
90
5
70
1
43
0.0
10
66.843883577163155
20
-67.522577526869753
10
91.843883577163155
20
-67.522577526869753
10
89.343883577163155
20
-93.022577526869767
10
79.343883577163155
20
-95.022577526869753
10
69.343883577163155
20
-93.02257752686981
0
LINE
5
108
100
AcDbEntity
8
0
100
AcDbLine
10
119.34388357716315
20
-60.522577526869775
30
0
11
121.84388357716315
21
-35.02257752686976
31
0
0
LINE
5
109
100
AcDbEntity
8
0
100
AcDbLine
10
121.84388357716315
20
-35.02257752686976
30
0
11
119.34388357716315
21
-60.522577526869775
31
0
0
LINE
5
110
100
AcDbEntity
8
0
100
AcDbLine
10
199.34388357716315
20
-62.52257752686976
30
0
11
209.34388357716315
21
-60.522577526869775
31
0
0
LINE
5
111
100
AcDbEntity
8
0
100
AcDbLine
10
209.34388357716315
20
-60.522577526869775
30
0
11
199.34388357716315
21
-62.52257752686976
31
0
0
LINE
5
112
100
AcDbEntity
8
0
100
AcDbLine
10
209.34388357716315
20
-93.022577526869767
30
0
11
211.84388357716315
21
-67.522577526869753
31
0
0
LINE
5
113
100
AcDbEntity
8
0
100
AcDbLine
10
211.84388357716315
20
-67.522577526869753
30
0
11
209.34388357716315
21
-93.022577526869767
31
0
0
LINE
5
114
100
AcDbEntity
8
0
100
AcDbLine
10
99.343883577163155
20
-60.522577526869803
30
0
11
109.34388357716315
21
-62.52257752686976
31
0
0
LINE
5
115
100
AcDbEntity
8
0
100
AcDbLine
10
109.34388357716315
20
-62.52257752686976
30
0
11
99.343883577163155
21
-60.522577526869803
31
0
0
LWPOLYLINE
5
116
100
AcDbEntity
8
0
100
AcDbPolyline
90
5
70
1
43
0.0
10
211.84388357716315
20
-35.02257752686976
10
186.84388357716315
20
-35.02257752686976
10
189.34388357716315
20
-60.522577526869803
10
199.34388357716315
20
-62.52257752686976
10
209.34388357716315
20
-60.522577526869775
0
LINE
5
117
100
AcDbEntity
8
0
100
AcDbLine
10
91.843883577163155
20
-35.02257752686976
30
0
11
66.843883577163155
21
-35.02257752686976
31
0
0
LINE
5
118
100
AcDbEntity
8
0
100
AcDbLine
10
66.843883577163155
20
-35.02257752686976
30
0
11
91.843883577163155
21
-35.02257752686976
31
0
0
LINE
5
119
100
AcDbEntity
8
0
100
AcDbLine
10
69.343883577163155
20
-93.02257752686981
30
0
11
79.343883577163155
21
-95.022577526869753
31
0
0
LINE
5
120
100
AcDbEntity
8
0
100
AcDbLine
10
79.343883577163155
20
-95.022577526869753
30
0
11
69.343883577163155
21
-93.02257752686981
31
0
0
LINE
5
121
100
AcDbEntity
8
0
100
AcDbLine
10
91.843883577163155
20
-67.522577526869753
30
0
11
66.843883577163155
21
-67.522577526869753
31
0
0
LINE
5
122
100
AcDbEntity
8
0
100
AcDbLine
10
66.843883577163155
20
-67.522577526869753
30
0
11
91.843883577163155
21
-67.522577526869753
31
0
0
LINE
5
123
100
AcDbEntity
8
0
100
AcDbLine
10
66.843883577163155
20
-35.02257752686976
30
0
11
69.343883577163155
21
-60.522577526869803
31
0
0
LINE
5
124
100
AcDbEntity
8
0
100
AcDbLine
10
69.343883577163155
20
-60.522577526869803
30
0
11
66.843883577163155
21
-35.02257752686976
31
0
0
LINE
5
125
100
AcDbEntity
8
0
100
AcDbLine
10
109.34388357716315
20
-62.52257752686976
30
0
11
119.34388357716315
21
-60.522577526869775
31
0
0
LINE
5
126
100
AcDbEntity
8
0
100
AcDbLine
10
119.34388357716315
20
-60.522577526869775
30
0
11
109.34388357716315
21
-62.52257752686976
31
0
0
LINE
5
127
100
AcDbEntity
8
0
100
AcDbLine
10
96.843883577163155
20
-35.02257752686976
30
0
11
99.343883577163155
21
-60.522577526869803
31
0
0
LINE
5
128
100
AcDbEntity
8
0
100
AcDbLine
10
99.343883577163155
20
-60.522577526869803
30
0
11
96.843883577163155
21
-35.02257752686976
31
0
0
LINE
5
129
100
AcDbEntity
8
0
100
AcDbLine
10
121.84388357716315
20
-35.02257752686976
30
0
11
96.843883577163155
21
-35.02257752686976
31
0
0
LINE
5
130
100
AcDbEntity
8
0
100
AcDbLine
10
96.843883577163155
20
-35.02257752686976
30
0
11
121.84388357716315
21
-35.02257752686976
31
0
0
LINE
5
131
100
AcDbEntity
8
0
100
AcDbLine
10
186.84388357716315
20
-67.522577526869753
30
0
11
189.34388357716315
21
-93.02257752686981
31
0
0
LINE
5
132
100
AcDbEntity
8
0
100
AcDbLine
10
189.34388357716315
20
-93.02257752686981
30
0
11
186.84388357716315
21
-67.522577526869753
31
0
0
LWPOLYLINE
5
133
100
AcDbEntity
8
0
100
AcDbPolyline
90
5
70
1
43
0.0
10
121.84388357716315
20
-35.02257752686976
10
96.843883577163155
20
-35.02257752686976
10
99.343883577163155
20
-60.522577526869803
10
109.34388357716315
20
-62.52257752686976
10
119.34388357716315
20
-60.522577526869775
0
LINE
5
134
100
AcDbEntity
8
0
100
AcDbLine
10
89.343883577163155
20
-60.522577526869775
30
0
11
91.843883577163155
21
-35.02257752686976
31
0
0
LINE
5
135
100
AcDbEntity
8
0
100
AcDbLine
10
91.843883577163155
20
-35.02257752686976
30
0
11
89.343883577163155
21
-60.522577526869775
31
0
0
LINE
5
136
100
AcDbEntity
8
0
100
AcDbLine
10
189.34388357716315
20
-60.522577526869803
30
0
11
199.34388357716315
21
-62.52257752686976
31
0
0
LINE
5
137
100
AcDbEntity
8
0
100
AcDbLine
10
199.34388357716315
20
-62.52257752686976
30
0
11
189.34388357716315
21
-60.522577526869803
31
0
0
LINE
5
138
100
AcDbEntity
8
0
100
AcDbLine
10
79.343883577163155
20
-95.022577526869753
30
0
11
89.343883577163155
21
-93.022577526869767
31
0
0
LINE
5
139
100
AcDbEntity
8
0
100
AcDbLine
10
89.343883577163155
20
-93.022577526869767
30
0
11
79.343883577163155
21
-95.022577526869753
31
0
0
LWPOLYLINE
5
140
100
AcDbEntity
8
0
100
AcDbPolyline
90
5
70
1
43
0.0
10
186.84388357716315
20
-35.02257752686976
10
211.84388357716315
20
-35.02257752686976
10
209.34388357716315
20
-60.522577526869775
10
199.34388357716315
20
-62.52257752686976
10
189.34388357716315
20
-60.522577526869803
0
LWPOLYLINE
5
141
100
AcDbEntity
8
0
100
AcDbPolyline
90
5
70
1
43
0.0
10
91.843883577163155
20
-35.02257752686976
10
66.843883577163155
20
-35.02257752686976
10
69.343883577163155
20
-60.522577526869803
10
79.343883577163155
20
-62.52257752686976
10
89.343883577163155
20
-60.522577526869775
0
LINE
5
142
100
AcDbEntity
8
0
100
AcDbLine
10
186.84388357716315
20
-35.02257752686976
30
0
11
189.34388357716315
21
-60.522577526869803
31
0
0
LINE
5
143
100
AcDbEntity
8
0
100
AcDbLine
10
189.34388357716315
20
-60.522577526869803
30
0
11
186.84388357716315
21
-35.02257752686976
31
0
0
LINE
5
144
100
AcDbEntity
8
0
100
AcDbLine
10
211.84388357716315
20
-67.522577526869753
30
0
11
186.84388357716315
21
-67.522577526869753
31
0
0
LINE
5
145
100
AcDbEntity
8
0
100
AcDbLine
10
186.84388357716315
20
-67.522577526869753
30
0
11
211.84388357716315
21
-67.522577526869753
31
0
0
LWPOLYLINE
5
146
100
AcDbEntity
8
0
100
AcDbPolyline
90
5
70
1
43
0.0
10
91.843883577163155
20
-67.522577526869753
10
66.843883577163155
20
-67.522577526869753
10
69.343883577163155
20
-93.02257752686981
10
79.343883577163155
20
-95.022577526869753
10
89.343883577163155
20
-93.022577526869767
0
LINE
5
147
100
AcDbEntity
8
0
100
AcDbLine
10
199.34388357716315
20
-95.022577526869753
30
0
11
209.34388357716315
21
-93.022577526869767
31
0
0
LINE
5
148
100
AcDbEntity
8
0
100
AcDbLine
10
209.34388357716315
20
-93.022577526869767
30
0
11
199.34388357716315
21
-95.022577526869753
31
0
0
LINE
5
149
100
AcDbEntity
8
0
100
AcDbLine
10
69.343883577163155
20
-60.522577526869803
30
0
11
79.343883577163155
21
-62.52257752686976
31
0
0
LINE
5
150
100
AcDbEntity
8
0
100
AcDbLine
10
79.343883577163155
20
-62.52257752686976
30
0
11
69.343883577163155
21
-60.522577526869803
31
0
0
LINE
5
151
100
AcDbEntity
8
0
100
AcDbLine
10
189.34388357716315
20
-93.02257752686981
30
0
11
199.34388357716315
21
-95.022577526869753
31
0
0
LINE
5
152
100
AcDbEntity
8
0
100
AcDbLine
10
199.34388357716315
20
-95.022577526869753
30
0
11
189.34388357716315
21
-93.02257752686981
31
0
0
LINE
5
153
100
AcDbEntity
8
0
100
AcDbLine
10
149.34388357716315
20
-93.022577526869767
30
0
11
151.84388357716315
21
-67.522577526869753
31
0
0
LINE
5
154
100
AcDbEntity
8
0
100
AcDbLine
10
151.84388357716315
20
-67.522577526869753
30
0
11
149.34388357716315
21
-93.022577526869767
31
0
0
LWPOLYLINE
5
155
100
AcDbEntity
8
0
100
AcDbPolyline
90
5
70
1
43
0.0
10
186.84388357716315
20
-67.522577526869753
10
211.84388357716315
20
-67.522577526869753
10
209.34388357716315
20
-93.022577526869767
10
199.34388357716315
20
-95.022577526869753
10
189.34388357716315
20
-93.02257752686981
0
LINE
5
156
100
AcDbEntity
8
0
100
AcDbLine
10
139.34388357716315
20
-95.022577526869753
30
0
11
149.34388357716315
21
-93.022577526869767
31
0
0
LINE
5
157
100
AcDbEntity
8
0
100
AcDbLine
10
149.34388357716315
20
-93.022577526869767
30
0
11
139.34388357716315
21
-95.022577526869753
31
0
0
LINE
5
158
100
AcDbEntity
8
0
100
AcDbLine
10
129.34388357716315
20
-93.02257752686981
30
0
11
139.34388357716315
21
-95.022577526869753
31
0
0
LINE
5
159
100
AcDbEntity
8
0
100
AcDbLine
10
139.34388357716315
20
-95.022577526869753
30
0
11
129.34388357716315
21
-93.02257752686981
31
0
0
LINE
5
160
100
AcDbEntity
8
0
100
AcDbLine
10
209.34388357716315
20
-60.522577526869775
30
0
11
211.84388357716315
21
-35.02257752686976
31
0
0
LINE
5
161
100
AcDbEntity
8
0
100
AcDbLine
10
211.84388357716315
20
-35.02257752686976
30
0
11
209.34388357716315
21
-60.522577526869775
31
0
0
LINE
5
162
100
AcDbEntity
8
0
100
AcDbLine
10
211.84388357716315
20
-35.02257752686976
30
0
11
186.84388357716315
21
-35.02257752686976
31
0
0
LINE
5
163
100
AcDbEntity
8
0
100
AcDbLine
10
186.84388357716315
20
-35.02257752686976
30
0
11
211.84388357716315
21
-35.02257752686976
31
0
0
LWPOLYLINE
5
164
100
AcDbEntity
8
0
100
AcDbPolyline
90
5
70
1
43
0.0
10
96.843883577163155
20
-35.02257752686976
10
121.84388357716315
20
-35.02257752686976
10
119.34388357716315
20
-60.522577526869775
10
109.34388357716315
20
-62.52257752686976
10
99.343883577163155
20
-60.522577526869803
0
LINE
5
165
100
AcDbEntity
8
0
100
AcDbLine
10
179.34388357716315
20
-60.522577526869775
30
0
11
181.84388357716315
21
-35.02257752686976
31
0
0
LINE
5
166
100
AcDbEntity
8
0
100
AcDbLine
10
181.84388357716315
20
-35.02257752686976
30
0
11
179.34388357716315
21
-60.522577526869775
31
0
0
LINE
5
167
100
AcDbEntity
8
0
100
AcDbLine
10
89.343883577163155
20
-93.022577526869767
30
0
11
91.843883577163155
21
-67.522577526869753
31
0
0
LINE
5
168
100
AcDbEntity
8
0
100
AcDbLine
10
91.843883577163155
20
-67.522577526869753
30
0
11
89.343883577163155
21
-93.022577526869767
31
0
0
LWPOLYLINE
5
169
100
AcDbEntity
8
0
100
AcDbPolyline
90
5
70
1
43
0.0
10
211.84388357716315
20
-67.522577526869753
10
186.84388357716315
20
-67.522577526869753
10
189.34388357716315
20
-93.02257752686981
10
199.34388357716315
20
-95.022577526869753
10
209.34388357716315
20
-93.022577526869767
0
LINE
5
170
100
AcDbEntity
8
0
100
AcDbLine
10
149.34388357716315
20
-60.522577526869775
30
0
11
151.84388357716315
21
-35.02257752686976
31
0
0
LINE
5
171
100
AcDbEntity
8
0
100
AcDbLine
10
151.84388357716315
20
-35.02257752686976
30
0
11
149.34388357716315
21
-60.522577526869775
31
0
0
LINE
5
172
100
AcDbEntity
8
0
100
AcDbLine
10
126.84388357716315
20
-67.522577526869753
30
0
11
129.34388357716315
21
-93.02257752686981
31
0
0
LINE
5
173
100
AcDbEntity
8
0
100
AcDbLine
10
129.34388357716315
20
-93.02257752686981
30
0
11
126.84388357716315
21
-67.522577526869753
31
0
0
LINE
5
174
100
AcDbEntity
8
0
100
AcDbLine
10
139.34388357716315
20
-62.52257752686976
30
0
11
149.34388357716315
21
-60.522577526869775
31
0
0
LINE
5
175
100
AcDbEntity
8
0
100
AcDbLine
10
149.34388357716315
20
-60.522577526869775
30
0
11
139.34388357716315
21
-62.52257752686976
31
0
0
LINE
5
176
100
AcDbEntity
8
0
100
AcDbLine
10
159.34388357716315
20
-60.522577526869803
30
0
11
169.34388357716315
21
-62.52257752686976
31
0
0
LINE
5
177
100
AcDbEntity
8
0
100
AcDbLine
10
169.34388357716315
20
-62.52257752686976
30
0
11
159.34388357716315
21
-60.522577526869803
31
0
0
LINE
5
178
100
AcDbEntity
8
0
100
AcDbLine
10
156.84388357716315
20
-35.02257752686976
30
0
11
159.34388357716315
21
-60.522577526869803
31
0
0
LINE
5
179
100
AcDbEntity
8
0
100
AcDbLine
10
159.34388357716315
20
-60.522577526869803
30
0
11
156.84388357716315
21
-35.02257752686976
31
0
0
LWPOLYLINE
5
180
100
AcDbEntity
8
0
100
AcDbPolyline
90
5
70
1
43
0.0
10
151.84388357716315
20
-67.522577526869753
10
126.84388357716315
20
-67.522577526869753
10
129.34388357716315
20
-93.02257752686981
10
139.34388357716315
20
-95.022577526869753
10
149.34388357716315
20
-93.022577526869767
0
LINE
5
181
100
AcDbEntity
8
0
100
AcDbLine
10
181.84388357716315
20
-35.02257752686976
30
0
11
156.84388357716315
21
-35.02257752686976
31
0
0
LINE
5
182
100
AcDbEntity
8
0
100
AcDbLine
10
156.84388357716315
20
-35.02257752686976
30
0
11
181.84388357716315
21
-35.02257752686976
31
0
0
LINE
5
183
100
AcDbEntity
8
0
100
AcDbLine
10
151.84388357716315
20
-67.522577526869753
30
0
11
126.84388357716315
21
-67.522577526869753
31
0
0
LINE
5
184
100
AcDbEntity
8
0
100
AcDbLine
10
126.84388357716315
20
-67.522577526869753
30
0
11
151.84388357716315
21
-67.522577526869753
31
0
0
LINE
5
185
100
AcDbEntity
8
0
100
AcDbLine
10
151.84388357716315
20
-35.02257752686976
30
0
11
126.84388357716315
21
-35.02257752686976
31
0
0
LINE
5
186
100
AcDbEntity
8
0
100
AcDbLine
10
126.84388357716315
20
-35.02257752686976
30
0
11
151.84388357716315
21
-35.02257752686976
31
0
0
LWPOLYLINE
5
187
100
AcDbEntity
8
0
100
AcDbPolyline
90
5
70
1
43
0.0
10
156.84388357716315
20
-35.02257752686976
10
181.84388357716315
20
-35.02257752686976
10
179.34388357716315
20
-60.522577526869775
10
169.34388357716315
20
-62.52257752686976
10
159.34388357716315
20
-60.522577526869803
0
LWPOLYLINE
5
188
100
AcDbEntity
8
0
100
AcDbPolyline
90
5
70
1
43
0.0
10
126.84388357716315
20
-67.522577526869753
10
151.84388357716315
20
-67.522577526869753
10
149.34388357716315
20
-93.022577526869767
10
139.34388357716315
20
-95.022577526869753
10
129.34388357716315
20
-93.02257752686981
0
LINE
5
189
100
AcDbEntity
8
0
100
AcDbLine
10
129.34388357716315
20
-60.522577526869803
30
0
11
139.34388357716315
21
-62.52257752686976
31
0
0
LINE
5
190
100
AcDbEntity
8
0
100
AcDbLine
10
139.34388357716315
20
-62.52257752686976
30
0
11
129.34388357716315
21
-60.522577526869803
31
0
0
LINE
5
191
100
AcDbEntity
8
0
100
AcDbLine
10
179.34388357716315
20
-93.022577526869767
30
0
11
181.84388357716315
21
-67.522577526869753
31
0
0
LINE
5
192
100
AcDbEntity
8
0
100
AcDbLine
10
181.84388357716315
20
-67.522577526869753
30
0
11
179.34388357716315
21
-93.022577526869767
31
0
0
LWPOLYLINE
5
193
100
AcDbEntity
8
0
100
AcDbPolyline
90
5
70
1
43
0.0
10
126.84388357716315
20
-35.02257752686976
10
151.84388357716315
20
-35.02257752686976
10
149.34388357716315
20
-60.522577526869775
10
139.34388357716315
20
-62.52257752686976
10
129.34388357716315
20
-60.522577526869803
0
LINE
5
194
100
AcDbEntity
8
0
100
AcDbLine
10
126.84388357716315
20
-35.02257752686976
30
0
11
129.34388357716315
21
-60.522577526869803
31
0
0
LINE
5
195
100
AcDbEntity
8
0
100
AcDbLine
10
129.34388357716315
20
-60.522577526869803
30
0
11
126.84388357716315
21
-35.02257752686976
31
0
0
LWPOLYLINE
5
196
100
AcDbEntity
8
0
100
AcDbPolyline
90
5
70
1
43
0.0
10
181.84388357716315
20
-35.02257752686976
10
156.84388357716315
20
-35.02257752686976
10
159.34388357716315
20
-60.522577526869803
10
169.34388357716315
20
-62.52257752686976
10
179.34388357716315
20
-60.522577526869775
0
LINE
5
197
100
AcDbEntity
8
0
100
AcDbLine
10
181.84388357716315
20
-67.522577526869753
30
0
11
156.84388357716315
21
-67.522577526869753
31
0
0
LINE
5
198
100
AcDbEntity
8
0
100
AcDbLine
10
156.84388357716315
20
-67.522577526869753
30
0
11
181.84388357716315
21
-67.522577526869753
31
0
0
LWPOLYLINE
5
199
100
AcDbEntity
8
0
100
AcDbPolyline
90
5
70
1
43
0.0
10
156.84388357716315
20
-67.522577526869753
10
181.84388357716315
20
-67.522577526869753
10
179.34388357716315
20
-93.022577526869767
10
169.34388357716315
20
-95.022577526869753
10
159.34388357716315
20
-93.02257752686981
0
LWPOLYLINE
5
200
100
AcDbEntity
8
0
100
AcDbPolyline
90
5
70
1
43
0.0
10
121.84388357716315
20
-67.522577526869753
10
96.843883577163155
20
-67.522577526869753
10
99.343883577163155
20
-93.02257752686981
10
109.34388357716315
20
-95.022577526869753
10
119.34388357716315
20
-93.022577526869767
0
LWPOLYLINE
5
201
100
AcDbEntity
8
0
100
AcDbPolyline
90
5
70
1
43
0.0
10
151.84388357716315
20
-35.02257752686976
10
126.84388357716315
20
-35.02257752686976
10
129.34388357716315
20
-60.522577526869803
10
139.34388357716315
20
-62.52257752686976
10
149.34388357716315
20
-60.522577526869775
0
LINE
5
202
100
AcDbEntity
8
0
100
AcDbLine
10
119.34388357716315
20
-93.022577526869767
30
0
11
121.84388357716315
21
-67.522577526869753
31
0
0
LINE
5
203
100
AcDbEntity
8
0
100
AcDbLine
10
121.84388357716315
20
-67.522577526869753
30
0
11
119.34388357716315
21
-93.022577526869767
31
0
0
LINE
5
204
100
AcDbEntity
8
0
100
AcDbLine
10
156.84388357716315
20
-67.522577526869753
30
0
11
159.34388357716315
21
-93.02257752686981
31
0
0
LINE
5
205
100
AcDbEntity
8
0
100
AcDbLine
10
159.34388357716315
20
-93.02257752686981
30
0
11
156.84388357716315
21
-67.522577526869753
31
0
0
LWPOLYLINE
5
206
100
AcDbEntity
8
0
100
AcDbPolyline
90
5
70
1
43
0.0
10
96.843883577163155
20
-67.522577526869753
10
121.84388357716315
20
-67.522577526869753
10
119.34388357716315
20
-93.022577526869767
10
109.34388357716315
20
-95.022577526869753
10
99.343883577163155
20
-93.02257752686981
0
LINE
5
207
100
AcDbEntity
8
0
100
AcDbLine
10
121.84388357716315
20
-67.522577526869753
30
0
11
96.843883577163155
21
-67.522577526869753
31
0
0
LINE
5
208
100
AcDbEntity
8
0
100
AcDbLine
10
96.843883577163155
20
-67.522577526869753
30
0
11
121.84388357716315
21
-67.522577526869753
31
0
0
LINE
5
209
100
AcDbEntity
8
0
100
AcDbLine
10
99.343883577163155
20
-93.02257752686981
30
0
11
109.34388357716315
21
-95.022577526869753
31
0
0
LINE
5
210
100
AcDbEntity
8
0
100
AcDbLine
10
109.34388357716315
20
-95.022577526869753
30
0
11
99.343883577163155
21
-93.02257752686981
31
0
0
LWPOLYLINE
5
211
100
AcDbEntity
8
0
100
AcDbPolyline
90
5
70
1
43
0.0
10
181.84388357716315
20
-67.522577526869753
10
156.84388357716315
20
-67.522577526869753
10
159.34388357716315
20
-93.02257752686981
10
169.34388357716315
20
-95.022577526869753
10
179.34388357716315
20
-93.022577526869767
0
LINE
5
212
100
AcDbEntity
8
0
100
AcDbLine
10
169.34388357716315
20
-95.022577526869753
30
0
11
179.34388357716315
21
-93.022577526869767
31
0
0
LINE
5
213
100
AcDbEntity
8
0
100
AcDbLine
10
179.34388357716315
20
-93.022577526869767
30
0
11
169.34388357716315
21
-95.022577526869753
31
0
0
LINE
5
214
100
AcDbEntity
8
0
100
AcDbLine
10
159.34388357716315
20
-93.02257752686981
30
0
11
169.34388357716315
21
-95.022577526869753
31
0
0
LINE
5
215
100
AcDbEntity
8
0
100
AcDbLine
10
169.34388357716315
20
-95.022577526869753
30
0
11
159.34388357716315
21
-93.02257752686981
31
0
0
LINE
5
216
100
AcDbEntity
8
0
100
AcDbLine
10
109.34388357716315
20
-95.022577526869753
30
0
11
119.34388357716315
21
-93.022577526869767
31
0
0
LINE
5
217
100
AcDbEntity
8
0
100
AcDbLine
10
119.34388357716315
20
-93.022577526869767
30
0
11
109.34388357716315
21
-95.022577526869753
31
0
0
LINE
5
218
100
AcDbEntity
8
0
100
AcDbLine
10
96.843883577163155
20
-67.522577526869753
30
0
11
99.343883577163155
21
-93.02257752686981
31
0
0
LINE
5
219
100
AcDbEntity
8
0
100
AcDbLine
10
99.343883577163155
20
-93.02257752686981
30
0
11
96.843883577163155
21
-67.522577526869753
31
0
0
ENDSEC
0
SECTION
2
OBJECTS
0
DICTIONARY
5
C
100
AcDbDictionary
3
ACAD_GROUP
350
D
3
ACAD_MLINESTYLE
350
17
0
DICTIONARY
5
D
100
AcDbDictionary
0
DICTIONARY
5
1A
330
C
100
AcDbDictionary
0
DICTIONARY
5
17
100
AcDbDictionary
0
ENDSEC
0
EOF
