0
SECTION
2
HEADER
9
$INSUNITS
70
4
9
$ACADVER
1
AC1014
9
$HANDSEED
5
FFFF
0
ENDSEC
0
SECTION
2
TABLES
0
TABLE
2
VPORT
5
8
100
AcDbSymbolTable
0
ENDTAB
0
TABLE
2
LTYPE
5
5
100
AcDbSymbolTable
0
LTYPE
5
14
100
AcDbSymbolTableRecord
100
AcDbLinetypeTableRecord
2
BYBLOCK
70
0
0
LTYPE
5
15
100
AcDbSymbolTableRecord
100
AcDbLinetypeTableRecord
2
BYLAYER
70
0
0
ENDTAB
0
TABLE
2
LAYER
5
2
100
AcDbSymbolTable
70
2
0
LAYER
5
50
100
AcDbSymbolTableRecord
100
AcDbLayerTableRecord
2
0
70
0
6
CONTINUOUS
0
ENDTAB
0
TABLE
2
STYLE
5
3
100
AcDbSymbolTable
70
1
0
STYLE
5
11
100
AcDbSymbolTableRecord
100
AcDbTextStyleTableRecord
2
STANDARD
70
0
0
ENDTAB
0
TABLE
2
VIEW
5
6
100
AcDbSymbolTable
70
0
0
ENDTAB
0
TABLE
2
UCS
5
7
100
AcDbSymbolTable
70
0
0
ENDTAB
0
TABLE
2
APPID
5
9
100
AcDbSymbolTable
70
2
0
APPID
5
12
100
AcDbSymbolTableRecord
100
AcDbRegAppTableRecord
2
ACAD
70
0
0
ENDTAB
0
TABLE
2
DIMSTYLE
5
A
100
AcDbSymbolTable
70
1
0
ENDTAB
0
TABLE
2
BLOCK_RECORD
5
1
100
AcDbSymbolTable
70
1
0
BLOCK_RECORD
5
1F
100
AcDbSymbolTableRecord
100
AcDbBlockTableRecord
2
*MODEL_SPACE
0
BLOCK_RECORD
5
1B
100
AcDbSymbolTableRecord
100
AcDbBlockTableRecord
2
*PAPER_SPACE
0
ENDTAB
0
ENDSEC
0
SECTION
2
BLOCKS
0
BLOCK
5
20
100
AcDbEntity
100
AcDbBlockBegin
2
*MODEL_SPACE
0
ENDBLK
5
21
100
AcDbEntity
100
AcDbBlockEnd
0
BLOCK
5
1C
100
AcDbEntity
100
AcDbBlockBegin
2
*PAPER_SPACE
0
ENDBLK
5
1D
100
AcDbEntity
100
AcDbBlockEnd
0
ENDSEC
0
SECTION
2
ENTITIES
0
SPLINE
5
100
100
AcDbEntity
8
0
100
AcDbSpline
70
4
71
3
72
8
73
4
74
0
42
0.000000001
43
0.0000000001
44
0.0000000001
40
0
40
0
40
0
40
0
40
1
40
1
40
1
40
1
41
1
41
1
41
1
41
1
10
23.287113175587567
20
-74.500382587190771
30
0
10
22.724602290984702
20
-74.34539204763999
30
0
10
21.909248312509767
20
-73.580877989209
30
0
10
20.96459344088705
20
-72.322666675325536
30
0
0
SPLINE
5
101
100
AcDbEntity
8
0
100
AcDbSpline
70
4
71
3
72
8
73
4
74
0
42
0.000000001
43
0.0000000001
44
0.0000000001
40
0
40
0
40
0
40
0
40
1
40
1
40
1
40
1
41
1
41
1
41
1
41
1
10
20.96459344088705
20
-72.322666675325536
30
0
10
19.674846584197596
20
-70.604819334423837
30
0
10
18.814626158273928
20
-68.972212268587256
30
0
10
18.456476184722494
20
-67.562517952994796
30
0
0
SPLINE
5
102
100
AcDbEntity
8
0
100
AcDbSpline
70
4
71
3
72
8
73
4
74
0
42
0.000000001
43
0.0000000001
44
0.0000000001
40
0
40
0
40
0
40
0
40
1
40
1
40
1
40
1
41
1
41
1
41
1
41
1
10
18.456476184722494
20
-67.562517952994796
30
0
10
18.222461075978195
20
-66.641424304720061
30
0
10
18.011451668934733
20
-65.286390735384131
30
0
10
18.035397235747887
20
-64.858451740022801
30
0
0
SPLINE
5
103
100
AcDbEntity
8
0
100
AcDbSpline
70
4
71
3
72
8
73
4
74
0
42
0.000000001
43
0.0000000001
44
0.0000000001
40
0
40
0
40
0
40
0
40
1
40
1
40
1
40
1
41
1
41
1
41
1
41
1
10
18.035397235747887
20
-64.858451740022801
30
0
10
18.066785823699544
20
-64.297465310172555
30
0
10
18.243696859873047
20
-64.004343667106127
30
0
10
18.687821882761231
20
-63.77745183157554
30
0
0
SPLINE
5
104
100
AcDbEntity
8
0
100
AcDbSpline
70
4
71
3
72
8
73
4
74
0
42
0.000000001
43
0.0000000001
44
0.0000000001
40
0
40
0
40
0
40
0
40
1
40
1
40
1
40
1
41
1
41
1
41
1
41
1
10
18.687821882761231
20
-63.77745183157554
30
0
10
18.995078644947917
20
-63.62047820893558
30
0
10
19.020306433237305
20
-63.616751046256539
30
0
10
19.752488808827312
20
-63.620129393017599
30
0
0
SPLINE
5
105
100
AcDbEntity
8
0
100
AcDbSpline
70
4
71
3
72
8
73
4
74
0
42
0.000000001
43
0.0000000001
44
0.0000000001
40
0
40
0
40
0
40
0
40
1
40
1
40
1
40
1
41
1
41
1
41
1
41
1
10
19.752488808827312
20
-63.620129393017599
30
0
10
20.552698362863776
20
-63.623804879264334
30
0
10
20.709462049997565
20
-63.651012520865898
30
0
10
21.927845368580737
20
-63.997328591422544
30
0
0
SPLINE
5
106
100
AcDbEntity
8
0
100
AcDbSpline
70
4
71
3
72
8
73
4
74
0
42
0.000000001
43
0.0000000001
44
0.0000000001
40
0
40
0
40
0
40
0
40
1
40
1
40
1
40
1
41
1
41
1
41
1
41
1
10
21.927845368580737
20
-63.997328591422544
30
0
10
22.741926814910482
20
-64.228722736116566
30
0
10
22.805721370574545
20
-64.215803628043631
30
0
10
23.189263851043297
20
-63.741782174186206
30
0
0
SPLINE
5
107
100
AcDbEntity
8
0
100
AcDbSpline
70
4
71
3
72
8
73
4
74
0
42
0.000000001
43
0.0000000001
44
0.0000000001
40
0
40
0
40
0
40
0
40
1
40
1
40
1
40
1
41
1
41
1
41
1
41
1
10
23.189263851043297
20
-63.741782174186206
30
0
10
23.454971146778973
20
-63.413397825634775
30
0
10
23.941734070973308
20
-62.629944354768909
30
0
10
23.941734070973308
20
-62.530673928336604
30
0
0
SPLINE
5
108
100
AcDbEntity
8
0
100
AcDbSpline
70
4
71
3
72
8
73
4
74
0
42
0.000000001
43
0.0000000001
44
0.0000000001
40
0
40
0
40
0
40
0
40
1
40
1
40
1
40
1
41
1
41
1
41
1
41
1
10
23.941734070973308
20
-62.530673928336604
30
0
10
23.941734070973308
20
-62.462603147900424
30
0
10
23.957579357024741
20
-62.466620990511075
30
0
10
22.848625728484709
20
-62.253391111767584
30
0
0
SPLINE
5
109
100
AcDbEntity
8
0
100
AcDbSpline
70
4
71
3
72
8
73
4
74
0
42
0.000000001
43
0.0000000001
44
0.0000000001
40
0
40
0
40
0
40
0
40
1
40
1
40
1
40
1
41
1
41
1
41
1
41
1
10
22.848625728484709
20
-62.253391111767584
30
0
10
21.366474595265302
20
-61.968402047233084
30
0
10
19.408067002491862
20
-61.453892108675142
30
0
10
17.996292710499674
20
-60.9785916631185
30
0
0
SPLINE
5
110
100
AcDbEntity
8
0
100
AcDbSpline
70
4
71
3
72
8
73
4
74
0
42
0.000000001
43
0.0000000001
44
0.0000000001
40
0
40
0
40
0
40
0
40
1
40
1
40
1
40
1
41
1
41
1
41
1
41
1
10
17.996292710499674
20
-60.9785916631185
30
0
10
16.930358096953938
20
-60.619731138623052
30
0
10
16.123370855844726
20
-60.284176685091154
30
0
10
15.143760107553712
20
-59.792475431835967
30
0
0
SPLINE
5
111
100
AcDbEntity
8
0
100
AcDbSpline
70
4
71
3
72
8
73
4
74
0
42
0.000000001
43
0.0000000001
44
0.0000000001
40
0
40
0
40
0
40
0
40
1
40
1
40
1
40
1
41
1
41
1
41
1
41
1
10
15.143760107553712
20
-59.792475431835967
30
0
10
14.63065189222168
20
-59.534933012402362
30
0
10
14.196356695688479
20
-59.324222359733092
30
0
10
14.178665592071127
20
-59.324222359733092
30
0
0
SPLINE
5
112
100
AcDbEntity
8
0
100
AcDbSpline
70
4
71
3
72
8
73
4
74
0
42
0.000000001
43
0.0000000001
44
0.0000000001
40
0
40
0
40
0
40
0
40
1
40
1
40
1
40
1
41
1
41
1
41
1
41
1
10
14.178665592071127
20
-59.324222359733092
30
0
10
14.160976103342286
20
-59.324222359733092
30
0
10
13.625637332793783
20
-59.888122048453809
30
0
10
12.989019214507653
20
-60.57733708548178
30
0
0
SPLINE
5
113
100
AcDbEntity
8
0
100
AcDbSpline
70
4
71
3
72
8
73
4
74
0
42
0.000000001
43
0.0000000001
44
0.0000000001
40
0
40
0
40
0
40
0
40
1
40
1
40
1
40
1
41
1
41
1
41
1
41
1
10
12.989019214507653
20
-60.57733708548178
30
0
10
8.5430664302872739
20
-65.390647937532563
30
0
10
5.3035637460119647
20
-68.607047219352225
30
0
10
4.7656548804012049
20
-68.742051898714209
30
0
0
SPLINE
5
114
100
AcDbEntity
8
0
100
AcDbSpline
70
4
71
3
72
8
73
4
74
0
42
0.000000001
43
0.0000000001
44
0.0000000001
40
0
40
0
40
0
40
0
40
1
40
1
40
1
40
1
41
1
41
1
41
1
41
1
10
4.7656548804012049
20
-68.742051898714209
30
0
10
4.2139371031490072
20
-68.880518899039743
30
0
10
2.4273915976253257
20
-66.813397011832691
30
0
10
1.4761867382096354
20
-64.935959928906257
30
0
0
SPLINE
5
115
100
AcDbEntity
8
0
100
AcDbSpline
70
4
71
3
72
8
73
4
74
0
42
0.000000001
43
0.0000000001
44
0.0000000001
40
0
40
0
40
0
40
0
40
1
40
1
40
1
40
1
41
1
41
1
41
1
41
1
10
1.4761867382096354
20
-64.935959928906257
30
0
10
1.0049041352636716
20
-64.005777688102228
30
0
10
0.78678195178181975
20
-63.39288228201498
30
0
10
0.47860147336791975
20
-62.132868752555346
30
0
0
SPLINE
5
116
100
AcDbEntity
8
0
100
AcDbSpline
70
4
71
3
72
8
73
4
74
0
42
0.000000001
43
0.0000000001
44
0.0000000001
40
0
40
0
40
0
40
0
40
1
40
1
40
1
40
1
41
1
41
1
41
1
41
1
10
0.47860147336791975
20
-62.132868752555346
30
0
10
0.13966180979878715
20
-60.747087706005871
30
0
10
-3.4378004967194906e-06
20
-59.917506559765634
30
0
10
-3.4378004967194906e-06
20
-59.290006102001982
30
0
0
SPLINE
5
117
100
AcDbEntity
8
0
100
AcDbSpline
70
4
71
3
72
8
73
4
74
0
42
0.000000001
43
0.0000000001
44
0.0000000001
40
0
40
0
40
0
40
0
40
1
40
1
40
1
40
1
41
1
41
1
41
1
41
1
10
-3.4378004967194906e-06
20
-59.290006102001982
30
0
10
-3.4378004967194906e-06
20
-58.46152953950196
30
0
10
0.25304192085734023
20
-57.485833280957053
30
0
10
0.51189562976033509
20
-57.316224770621751
30
0
0
SPLINE
5
118
100
AcDbEntity
8
0
100
AcDbSpline
70
4
71
3
72
8
73
4
74
0
42
0.000000001
43
0.0000000001
44
0.0000000001
40
0
40
0
40
0
40
0
40
1
40
1
40
1
40
1
41
1
41
1
41
1
41
1
10
0.51189562976033509
20
-57.316224770621751
30
0
10
1.05135236600708
20
-56.962757973746754
30
0
10
2.6900612880753583
20
-57.948776599641938
30
0
10
4.3735421866145838
20
-59.639803872184274
30
0
0
SPLINE
5
119
100
AcDbEntity
8
0
100
AcDbSpline
70
4
71
3
72
8
73
4
74
0
42
0.000000001
43
0.0000000001
44
0.0000000001
40
0
40
0
40
0
40
0
40
1
40
1
40
1
40
1
41
1
41
1
41
1
41
1
10
4.3735421866145838
20
-59.639803872184274
30
0
10
4.7700764451391606
20
-60.038106433626311
30
0
10
5.2160287143754083
20
-60.543960569775415
30
0
10
5.3645443584488941
20
-60.763914844270843
30
0
0
SPLINE
5
120
100
AcDbEntity
8
0
100
AcDbSpline
70
4
71
3
72
8
73
4
74
0
42
0.000000001
43
0.0000000001
44
0.0000000001
40
0
40
0
40
0
40
0
40
1
40
1
40
1
40
1
41
1
41
1
41
1
41
1
10
5.3645443584488941
20
-60.763914844270843
30
0
10
5.565526115295004
20
-61.061571094270839
30
0
10
5.6606890728043622
20
-61.159375201936861
30
0
10
5.7366857260432944
20
-61.146404417431661
30
0
0
SPLINE
5
121
100
AcDbEntity
8
0
100
AcDbSpline
70
4
71
3
72
8
73
4
74
0
42
0.000000001
43
0.0000000001
44
0.0000000001
40
0
40
0
40
0
40
0
40
1
40
1
40
1
40
1
41
1
41
1
41
1
41
1
10
5.7366857260432944
20
-61.146404417431661
30
0
10
5.8862316689855962
20
-61.120882719433602
30
0
10
6.3525815949804709
20
-60.646422015901713
30
0
10
6.7695312740372726
20
-60.095622302766934
30
0
0
SPLINE
5
122
100
AcDbEntity
8
0
100
AcDbSpline
70
4
71
3
72
8
73
4
74
0
42
0.000000001
43
0.0000000001
44
0.0000000001
40
0
40
0
40
0
40
0
40
1
40
1
40
1
40
1
41
1
41
1
41
1
41
1
10
6.7695312740372726
20
-60.095622302766934
30
0
10
7.6254819347428393
20
-58.964870909130873
30
0
10
9.2935858648982759
20
-56.37984781749676
30
0
10
9.2670080298152673
20
-56.225328825390633
30
0
0
SPLINE
5
123
100
AcDbEntity
8
0
100
AcDbSpline
70
4
71
3
72
8
73
4
74
0
42
0.000000001
43
0.0000000001
44
0.0000000001
40
0
40
0
40
0
40
0
40
1
40
1
40
1
40
1
41
1
41
1
41
1
41
1
10
9.2670080298152673
20
-56.225328825390633
30
0
10
9.2584458909399423
20
-56.175506285107431
30
0
10
9.0009664521582042
20
-55.940294543977878
30
0
10
8.6948449565934247
20
-55.702654010530608
30
0
0
SPLINE
5
124
100
AcDbEntity
8
0
100
AcDbSpline
70
4
71
3
72
8
73
4
74
0
42
0.000000001
43
0.0000000001
44
0.0000000001
40
0
40
0
40
0
40
0
40
1
40
1
40
1
40
1
41
1
41
1
41
1
41
1
10
8.6948449565934247
20
-55.702654010530608
30
0
10
7.047319550709636
20
-54.423681689973975
30
0
10
5.8741749113765476
20
-53.163280587272155
30
0
10
5.0881594198909506
20
-51.8277354924642
30
0
0
SPLINE
5
125
100
AcDbEntity
8
0
100
AcDbSpline
70
4
71
3
72
8
73
4
74
0
42
0.000000001
43
0.0000000001
44
0.0000000001
40
0
40
0
40
0
40
0
40
1
40
1
40
1
40
1
41
1
41
1
41
1
41
1
10
5.0881594198909506
20
-51.8277354924642
30
0
10
4.5302840727535001
20
-50.879828235384124
30
0
10
4.26813922106893
20
-50.16242370454102
30
0
10
3.973017538583985
20
-48.775977323925801
30
0
0
SPLINE
5
126
100
AcDbEntity
8
0
100
AcDbSpline
70
4
71
3
72
8
73
4
74
0
42
0.000000001
43
0.0000000001
44
0.0000000001
40
0
40
0
40
0
40
0
40
1
40
1
40
1
40
1
41
1
41
1
41
1
41
1
10
3.973017538583985
20
-48.775977323925801
30
0
10
3.86537149289917
20
-48.270284676627611
30
0
10
3.637697243885905
20
-47.346000008658862
30
0
10
3.46707377612264
20
-46.722007088736987
30
0
0
SPLINE
5
127
100
AcDbEntity
8
0
100
AcDbSpline
70
4
71
3
72
8
73
4
74
0
42
0.000000001
43
0.0000000001
44
0.0000000001
40
0
40
0
40
0
40
0
40
1
40
1
40
1
40
1
41
1
41
1
41
1
41
1
10
3.46707377612264
20
-46.722007088736987
30
0
10
2.8748174526261394
20
-44.556099241650401
30
0
10
2.730633746978353
20
-43.488011981722011
30
0
10
2.6129447096553555
20
-40.394777016715501
30
0
0
SPLINE
5
128
100
AcDbEntity
8
0
100
AcDbSpline
70
4
71
3
72
8
73
4
74
0
42
0.000000001
43
0.0000000001
44
0.0000000001
40
0
40
0
40
0
40
0
40
1
40
1
40
1
40
1
41
1
41
1
41
1
41
1
10
2.6129447096553555
20
-40.394777016715501
30
0
10
2.5463006832169599
20
-38.643139748649091
30
0
10
2.5465275750524903
20
-33.626178536490897
30
0
10
2.6134735856420899
20
-30.301626941438808
30
0
0
LINE
5
129
100
AcDbEntity
8
0
100
AcDbLine
10
2.6134735856420899
20
-30.301626941438808
30
0
11
2.6658032403356935
21
-27.700267637646494
31
0
0
LINE
5
130
100
AcDbEntity
8
0
100
AcDbLine
10
2.6658032403356935
20
-27.700267637646494
30
0
11
4.990998037851563
21
-22.623209964510092
31
0
0
SPLINE
5
131
100
AcDbEntity
8
0
100
AcDbSpline
70
4
71
3
72
8
73
4
74
0
42
0.000000001
43
0.0000000001
44
0.0000000001
40
0
40
0
40
0
40
0
40
1
40
1
40
1
40
1
41
1
41
1
41
1
41
1
10
4.990998037851563
20
-22.623209964510096
30
0
10
6.2698879990942391
20
-19.830825498974612
30
0
10
7.3716957459814481
20
-17.486165642814129
30
0
10
7.4394984549251308
20
-17.41284647472331
30
0
0
SPLINE
5
132
100
AcDbEntity
8
0
100
AcDbSpline
70
4
71
3
72
8
73
4
74
0
42
0.000000001
43
0.0000000001
44
0.0000000001
40
0
40
0
40
0
40
0
40
1
40
1
40
1
40
1
41
1
41
1
41
1
41
1
10
7.4394984549251308
20
-17.41284647472331
30
0
10
7.7786864076025397
20
-17.046043928540044
30
0
10
9.0696266669002288
20
-14.826202035026048
30
0
10
9.3930872203873701
20
-14.053539249178062
30
0
0
SPLINE
5
133
100
AcDbEntity
8
0
100
AcDbSpline
70
4
71
3
72
8
73
4
74
0
42
0.000000001
43
0.0000000001
44
0.0000000001
40
0
40
0
40
0
40
0
40
1
40
1
40
1
40
1
41
1
41
1
41
1
41
1
10
9.3930872203873701
20
-14.053539249178062
30
0
10
9.7194093563126636
20
-13.274051944490566
30
0
10
9.7273093908992525
20
-13.194744769807949
30
0
10
9.5700063310034196
20
-12.278402123527021
30
0
0
SPLINE
5
134
100
AcDbEntity
8
0
100
AcDbSpline
70
4
71
3
72
8
73
4
74
0
42
0.000000001
43
0.0000000001
44
0.0000000001
40
0
40
0
40
0
40
0
40
1
40
1
40
1
40
1
41
1
41
1
41
1
41
1
10
9.5700063310034196
20
-12.278402123527021
30
0
10
9.3981612000830097
20
-11.277352115388998
30
0
10
9.3406065736181674
20
-9.9812199895345071
30
0
10
9.4347804119156908
20
-9.233053447481284
30
0
0
SPLINE
5
135
100
AcDbEntity
8
0
100
AcDbSpline
70
4
71
3
72
8
73
4
74
0
42
0.000000001
43
0.0000000001
44
0.0000000001
40
0
40
0
40
0
40
0
40
1
40
1
40
1
40
1
41
1
41
1
41
1
41
1
10
9.4347804119156908
20
-9.233053447481284
30
0
10
9.658558742400718
20
-7.455179085807293
30
0
10
10.459583815134279
20
-6.2146604904296883
30
0
10
11.827844936248376
20
-5.5269812123738618
30
0
0
SPLINE
5
136
100
AcDbEntity
8
0
100
AcDbSpline
70
4
71
3
72
8
73
4
74
0
42
0.000000001
43
0.0000000001
44
0.0000000001
40
0
40
0
40
0
40
0
40
1
40
1
40
1
40
1
41
1
41
1
41
1
41
1
10
11.827844936248376
20
-5.5269812123738618
30
0
10
12.707657189564618
20
-5.0847972854736341
30
0
10
13.564279643889973
20
-4.9202466059488952
30
0
10
14.877038661834314
20
-4.9412546905639658
30
0
0
LINE
5
137
100
AcDbEntity
8
0
100
AcDbLine
10
14.877038661834314
20
-4.9412546905639658
30
0
11
15.756855759816082
21
-4.9553349034749354
31
0
0
LINE
5
138
100
AcDbEntity
8
0
100
AcDbLine
10
15.756855759816082
20
-4.9553349034749354
30
0
11
19.596040024952799
21
-3.0328165929280604
31
0
0
SPLINE
5
139
100
AcDbEntity
8
0
100
AcDbSpline
70
4
71
3
72
8
73
4
74
0
42
0.000000001
43
0.0000000001
44
0.0000000001
40
0
40
0
40
0
40
0
40
1
40
1
40
1
40
1
41
1
41
1
41
1
41
1
10
19.596040024952799
20
-3.0328165929280604
30
0
10
21.707642401254891
20
-1.9754295842610681
30
0
10
23.715129685597333
20
-0.99852377422281924
30
0
10
24.057156612273765
20
-0.86191389568278043
30
0
0
SPLINE
5
140
100
AcDbEntity
8
0
100
AcDbSpline
70
4
71
3
72
8
73
4
74
0
42
0.000000001
43
0.0000000001
44
0.0000000001
40
0
40
0
40
0
40
0
40
1
40
1
40
1
40
1
41
1
41
1
41
1
41
1
10
24.057156612273765
20
-0.86191389568278043
30
0
10
27.415679002003586
20
0.47953523151448574
30
0
10
30.505771393971362
20
0.25718123269449861
30
0
10
33.522405737436529
20
-1.5430076583984378
30
0
0
SPLINE
5
141
100
AcDbEntity
8
0
100
AcDbSpline
70
4
71
3
72
8
73
4
74
0
42
0.000000001
43
0.0000000001
44
0.0000000001
40
0
40
0
40
0
40
0
40
1
40
1
40
1
40
1
41
1
41
1
41
1
41
1
10
33.522405737436529
20
-1.5430076583984378
30
0
10
34.817872529225262
20
-2.3160806259277349
30
0
10
37.173232636647136
20
-4.1913279200358078
30
0
10
37.546817714568689
20
-4.7470853408935554
30
0
0
SPLINE
5
142
100
AcDbEntity
8
0
100
AcDbSpline
70
4
71
3
72
8
73
4
74
0
42
0.000000001
43
0.0000000001
44
0.0000000001
40
0
40
0
40
0
40
0
40
1
40
1
40
1
40
1
41
1
41
1
41
1
41
1
10
37.546817714568689
20
-4.7470853408935554
30
0
10
38.227415706512048
20
-5.7595671447875985
30
0
10
38.549450313445639
20
-7.976242241935223
30
0
10
38.480523642099612
20
-11.174131671663414
30
0
0
SPLINE
5
143
100
AcDbEntity
8
0
100
AcDbSpline
70
4
71
3
72
8
73
4
74
0
42
0.000000001
43
0.0000000001
44
0.0000000001
40
0
40
0
40
0
40
0
40
1
40
1
40
1
40
1
41
1
41
1
41
1
41
1
10
38.480523642099612
20
-11.174131671663414
30
0
10
38.36572121798666
20
-16.500486143505864
30
0
10
37.202830313242188
20
-22.716566669222008
30
0
10
35.552734004851899
20
-26.824239068107101
30
0
0
SPLINE
5
144
100
AcDbEntity
8
0
100
AcDbSpline
70
4
71
3
72
8
73
4
74
0
42
0.000000001
43
0.0000000001
44
0.0000000001
40
0
40
0
40
0
40
0
40
1
40
1
40
1
40
1
41
1
41
1
41
1
41
1
10
35.552734004851899
20
-26.824239068107101
30
0
10
35.376016755299482
20
-27.264147617097994
30
0
10
34.934796916839197
20
-28.217797417716479
30
0
10
34.572247986988941
20
-28.943457258618167
30
0
0
SPLINE
5
145
100
AcDbEntity
8
0
100
AcDbSpline
70
4
71
3
72
8
73
4
74
0
42
0.000000001
43
0.0000000001
44
0.0000000001
40
0
40
0
40
0
40
0
40
1
40
1
40
1
40
1
41
1
41
1
41
1
41
1
10
34.572247986988941
20
-28.943457258618167
30
0
10
34.209695827361656
20
-29.669120329296881
30
0
10
33.778730530934247
20
-30.578583550528975
30
0
10
33.614551275766601
20
-30.964486997998051
30
0
0
SPLINE
5
146
100
AcDbEntity
8
0
100
AcDbSpline
70
4
71
3
72
8
73
4
74
0
42
0.000000001
43
0.0000000001
44
0.0000000001
40
0
40
0
40
0
40
0
40
1
40
1
40
1
40
1
41
1
41
1
41
1
41
1
10
33.614551275766601
20
-30.964486997998051
30
0
10
32.965469447967124
20
-32.490143227653
30
0
10
32.386344590382492
20
-34.292284518953466
30
0
10
31.972057862477218
20
-36.075660805778
30
0
0
SPLINE
5
147
100
AcDbEntity
8
0
100
AcDbSpline
70
4
71
3
72
8
73
4
74
0
42
0.000000001
43
0.0000000001
44
0.0000000001
40
0
40
0
40
0
40
0
40
1
40
1
40
1
40
1
41
1
41
1
41
1
41
1
10
31.972057862477218
20
-36.075660805778
30
0
10
31.709809657928062
20
-37.204571226513679
30
0
10
31.37724920769206
20
-39.213279366569019
30
0
10
31.441896424488935
20
-39.27792658336589
30
0
0
SPLINE
5
148
100
AcDbEntity
8
0
100
AcDbSpline
70
4
71
3
72
8
73
4
74
0
42
0.000000001
43
0.0000000001
44
0.0000000001
40
0
40
0
40
0
40
0
40
1
40
1
40
1
40
1
41
1
41
1
41
1
41
1
10
31.441896424488935
20
-39.27792658336589
30
0
10
31.473990718719079
20
-39.310017647819024
30
0
10
31.662916525400394
20
-39.271098834749353
30
0
10
31.956141521331389
20
-39.171976978059902
30
0
0
SPLINE
5
149
100
AcDbEntity
8
0
100
AcDbSpline
70
4
71
3
72
8
73
4
74
0
42
0.000000001
43
0.0000000001
44
0.0000000001
40
0
40
0
40
0
40
0
40
1
40
1
40
1
40
1
41
1
41
1
41
1
41
1
10
31.956141521331389
20
-39.171976978059902
30
0
10
32.995994070566411
20
-38.820486804720055
30
0
10
34.655999334848637
20
-38.448565061962896
30
0
10
35.889212174611004
20
-38.290790454622403
30
0
0
SPLINE
5
150
100
AcDbEntity
8
0
100
AcDbSpline
70
4
71
3
72
8
73
4
74
0
42
0.000000001
43
0.0000000001
44
0.0000000001
40
0
40
0
40
0
40
0
40
1
40
1
40
1
40
1
41
1
41
1
41
1
41
1
10
35.889212174611004
20
-38.290790454622403
30
0
10
39.189931245045585
20
-37.868497109488935
30
0
10
42.016741903818364
20
-38.538998818473317
30
0
10
43.937729300058599
20
-40.199847054557296
30
0
0
SPLINE
5
151
100
AcDbEntity
8
0
100
AcDbSpline
70
4
71
3
72
8
73
4
74
0
42
0.000000001
43
0.0000000001
44
0.0000000001
40
0
40
0
40
0
40
0
40
1
40
1
40
1
40
1
41
1
41
1
41
1
41
1
10
43.937729300058599
20
-40.199847054557296
30
0
10
44.157683574554049
20
-40.390016325390633
30
0
10
44.421630641814787
20
-40.654728849804691
30
0
10
44.52427618523113
20
-40.788105721549492
30
0
0
SPLINE
5
152
100
AcDbEntity
8
0
100
AcDbSpline
70
4
71
3
72
8
73
4
74
0
42
0.000000001
43
0.0000000001
44
0.0000000001
40
0
40
0
40
0
40
0
40
1
40
1
40
1
40
1
41
1
41
1
41
1
41
1
10
44.52427618523113
20
-40.788105721549492
30
0
10
44.626921728647481
20
-40.921476133740242
30
0
10
44.746895025766605
20
-41.029957884228523
30
0
10
44.790884588754885
20
-41.029163359082041
30
0
0
SPLINE
5
153
100
AcDbEntity
8
0
100
AcDbSpline
70
4
71
3
72
8
73
4
74
0
42
0.000000001
43
0.0000000001
44
0.0000000001
40
0
40
0
40
0
40
0
40
1
40
1
40
1
40
1
41
1
41
1
41
1
41
1
10
44.790884588754885
20
-41.029163359082041
30
0
10
44.871180075205082
20
-41.027722878531911
30
0
10
45.345237056609704
20
-40.501585742708343
30
0
10
49.085922812021501
20
-36.262287011222334
30
0
0
SPLINE
5
154
100
AcDbEntity
8
0
100
AcDbSpline
70
4
71
3
72
8
73
4
74
0
42
0.000000001
43
0.0000000001
44
0.0000000001
40
0
40
0
40
0
40
0
40
1
40
1
40
1
40
1
41
1
41
1
41
1
41
1
10
49.085922812021501
20
-36.262287011222334
30
0
10
51.287229015227886
20
-33.767565255240889
30
0
10
52.706535147226568
20
-32.298607761140957
30
0
10
53.455765900807322
20
-31.739591495271817
30
0
0
SPLINE
5
155
100
AcDbEntity
8
0
100
AcDbSpline
70
4
71
3
72
8
73
4
74
0
42
0.000000001
43
0.0000000001
44
0.0000000001
40
0
40
0
40
0
40
0
40
1
40
1
40
1
40
1
41
1
41
1
41
1
41
1
10
53.455765900807322
20
-31.739591495271817
30
0
10
54.912647258636085
20
-30.652577742016618
30
0
10
56.119569713470057
20
-30.474846342480472
30
0
10
57.668034628427741
20
-31.119296670035812
30
0
0
SPLINE
5
156
100
AcDbEntity
8
0
100
AcDbSpline
70
4
71
3
72
8
73
4
74
0
42
0.000000001
43
0.0000000001
44
0.0000000001
40
0
40
0
40
0
40
0
40
1
40
1
40
1
40
1
41
1
41
1
41
1
41
1
10
57.668034628427741
20
-31.119296670035812
30
0
10
58.978335786061216
20
-31.664625140901705
30
0
10
59.637966065602228
20
-32.310687127189141
30
0
10
59.831113190846359
20
-33.237872134920252
30
0
0
SPLINE
5
157
100
AcDbEntity
8
0
100
AcDbSpline
70
4
71
3
72
8
73
4
74
0
42
0.000000001
43
0.0000000001
44
0.0000000001
40
0
40
0
40
0
40
0
40
1
40
1
40
1
40
1
41
1
41
1
41
1
41
1
10
59.831113190846359
20
-33.237872134920252
30
0
10
59.924964051442089
20
-33.688393731193038
30
0
10
59.865200257496767
20
-34.510914584871422
30
0
10
59.696592978037124
20
-35.089196470654301
30
0
0
SPLINE
5
158
100
AcDbEntity
8
0
100
AcDbSpline
70
4
71
3
72
8
73
4
74
0
42
0.000000001
43
0.0000000001
44
0.0000000001
40
0
40
0
40
0
40
0
40
1
40
1
40
1
40
1
41
1
41
1
41
1
41
1
10
59.696592978037124
20
-35.089196470654301
30
0
10
59.38587550977541
20
-36.154900155143238
30
0
10
59.069040843841165
20
-36.686166176871751
30
0
10
56.007767752207052
20
-41.274691008007821
30
0
0
SPLINE
5
159
100
AcDbEntity
8
0
100
AcDbSpline
70
4
71
3
72
8
73
4
74
0
42
0.000000001
43
0.0000000001
44
0.0000000001
40
0
40
0
40
0
40
0
40
1
40
1
40
1
40
1
41
1
41
1
41
1
41
1
10
56.007767752207052
20
-41.274691008007821
30
0
10
54.142364818450524
20
-44.070734810904952
30
0
10
53.09414068718425
20
-45.595344592805993
30
0
10
53.016877961354183
20
-45.624845376090512
30
0
0
SPLINE
5
160
100
AcDbEntity
8
0
100
AcDbSpline
70
4
71
3
72
8
73
4
74
0
42
0.000000001
43
0.0000000001
44
0.0000000001
40
0
40
0
40
0
40
0
40
1
40
1
40
1
40
1
41
1
41
1
41
1
41
1
10
53.016877961354183
20
-45.624845376090512
30
0
10
52.941230124033218
20
-45.653732501741544
30
0
10
52.909074464039719
20
-45.699324034130868
30
0
10
52.928550019459664
20
-45.75008320974937
30
0
0
SPLINE
5
161
100
AcDbEntity
8
0
100
AcDbSpline
70
4
71
3
72
8
73
4
74
0
42
0.000000001
43
0.0000000001
44
0.0000000001
40
0
40
0
40
0
40
0
40
1
40
1
40
1
40
1
41
1
41
1
41
1
41
1
10
52.928550019459664
20
-45.75008320974937
30
0
10
52.989418397145194
20
-45.908704018668629
30
0
10
53.849669505950537
20
-46.4166639694336
30
0
10
55.215406556324886
20
-47.100427142854826
30
0
0
SPLINE
5
162
100
AcDbEntity
8
0
100
AcDbSpline
70
4
71
3
72
8
73
4
74
0
42
0.000000001
43
0.0000000001
44
0.0000000001
40
0
40
0
40
0
40
0
40
1
40
1
40
1
40
1
41
1
41
1
41
1
41
1
10
55.215406556324886
20
-47.100427142854826
30
0
10
56.609236207203786
20
-47.798259224967452
30
0
10
57.016937419768894
20
-48.181956734733085
30
0
10
57.016937419768894
20
-48.795885669466159
30
0
0
SPLINE
5
163
100
AcDbEntity
8
0
100
AcDbSpline
70
4
71
3
72
8
73
4
74
0
42
0.000000001
43
0.0000000001
44
0.0000000001
40
0
40
0
40
0
40
0
40
1
40
1
40
1
40
1
41
1
41
1
41
1
41
1
10
57.016937419768894
20
-48.795885669466159
30
0
10
57.016937419768894
20
-49.176282347119162
30
0
10
56.805296591318367
20
-49.543611346956389
30
0
10
56.331888795094407
20
-49.984850564078798
30
0
0
SPLINE
5
164
100
AcDbEntity
8
0
100
AcDbSpline
70
4
71
3
72
8
73
4
74
0
42
0.000000001
43
0.0000000001
44
0.0000000001
40
0
40
0
40
0
40
0
40
1
40
1
40
1
40
1
41
1
41
1
41
1
41
1
10
56.331888795094407
20
-49.984850564078798
30
0
10
55.916778474049487
20
-50.37174555309246
30
0
10
55.089658417897141
20
-50.889162290966823
30
0
10
54.335951193369148
20
-51.233424223339853
30
0
0
SPLINE
5
165
100
AcDbEntity
8
0
100
AcDbSpline
70
4
71
3
72
8
73
4
74
0
42
0.000000001
43
0.0000000001
44
0.0000000001
40
0
40
0
40
0
40
0
40
1
40
1
40
1
40
1
41
1
41
1
41
1
41
1
10
54.335951193369148
20
-51.233424223339853
30
0
10
54.071807109710299
20
-51.354075773632822
30
0
10
53.855683350758468
20
-51.471077675895188
30
0
10
53.855683350758468
20
-51.493408354199239
30
0
0
SPLINE
5
166
100
AcDbEntity
8
0
100
AcDbSpline
70
4
71
3
72
8
73
4
74
0
42
0.000000001
43
0.0000000001
44
0.0000000001
40
0
40
0
40
0
40
0
40
1
40
1
40
1
40
1
41
1
41
1
41
1
41
1
10
53.855683350758468
20
-51.493408354199239
30
0
10
53.855683350758468
20
-51.515745492057299
30
0
10
53.958965160247416
20
-51.60508112438152
30
0
10
54.085204224781904
20
-51.691936287955755
30
0
0
SPLINE
5
167
100
AcDbEntity
8
0
100
AcDbSpline
70
4
71
3
72
8
73
4
74
0
42
0.000000001
43
0.0000000001
44
0.0000000001
40
0
40
0
40
0
40
0
40
1
40
1
40
1
40
1
41
1
41
1
41
1
41
1
10
54.085204224781904
20
-51.691936287955755
30
0
10
54.446009075042326
20
-51.940176949576831
30
0
10
54.949770315683608
20
-52.513598020947271
30
0
10
55.130786398447285
20
-52.882109119173187
30
0
0
SPLINE
5
168
100
AcDbEntity
8
0
100
AcDbSpline
70
4
71
3
72
8
73
4
74
0
42
0.000000001
43
0.0000000001
44
0.0000000001
40
0
40
0
40
0
40
0
40
1
40
1
40
1
40
1
41
1
41
1
41
1
41
1
10
55.130786398447285
20
-52.882109119173187
30
0
10
55.472890839772155
20
-53.578552397167982
30
0
10
55.527047740813806
20
-54.339242399609383
30
0
10
55.298218039072289
20
-55.233948769645203
30
0
0
SPLINE
5
169
100
AcDbEntity
8
0
100
AcDbSpline
70
4
71
3
72
8
73
4
74
0
42
0.000000001
43
0.0000000001
44
0.0000000001
40
0
40
0
40
0
40
0
40
1
40
1
40
1
40
1
41
1
41
1
41
1
41
1
10
55.298218039072289
20
-55.233948769645203
30
0
10
54.971345226165376
20
-56.512003833528652
30
0
10
54.228451295094409
20
-57.122044116731779
30
0
10
52.684488689300153
20
-57.380213112906908
30
0
0
SPLINE
5
170
100
AcDbEntity
8
0
100
AcDbSpline
70
4
71
3
72
8
73
4
74
0
42
0.000000001
43
0.0000000001
44
0.0000000001
40
0
40
0
40
0
40
0
40
1
40
1
40
1
40
1
41
1
41
1
41
1
41
1
10
52.684488689300153
20
-57.380213112906908
30
0
10
52.233689332203781
20
-57.455589648958352
30
0
10
51.946439423756523
20
-57.467068276481129
30
0
10
51.165815237558618
20
-57.44087478486329
30
0
0
SPLINE
5
171
100
AcDbEntity
8
0
100
AcDbSpline
70
4
71
3
72
8
73
4
74
0
42
0.000000001
43
0.0000000001
44
0.0000000001
40
0
40
0
40
0
40
0
40
1
40
1
40
1
40
1
41
1
41
1
41
1
41
1
10
51.165815237558618
20
-57.44087478486329
30
0
10
50.129412090179045
20
-57.406103005485036
30
0
10
49.541922110117191
20
-57.329647723909517
30
0
10
48.423011079029976
20
-57.083926288362647
30
0
0
SPLINE
5
172
100
AcDbEntity
8
0
100
AcDbSpline
70
4
71
3
72
8
73
4
74
0
42
0.000000001
43
0.0000000001
44
0.0000000001
40
0
40
0
40
0
40
0
40
1
40
1
40
1
40
1
41
1
41
1
41
1
41
1
10
48.423011079029976
20
-57.083926288362647
30
0
10
48.030502737558614
20
-56.997729999300155
30
0
10
47.688940898772792
20
-56.939833016471368
30
0
10
47.663971492644862
20
-56.955258431510423
30
0
0
SPLINE
5
173
100
AcDbEntity
8
0
100
AcDbSpline
70
4
71
3
72
8
73
4
74
0
42
0.000000001
43
0.0000000001
44
0.0000000001
40
0
40
0
40
0
40
0
40
1
40
1
40
1
40
1
41
1
41
1
41
1
41
1
10
47.663971492644862
20
-56.955258431510423
30
0
10
47.639008546070968
20
-56.970683846549484
30
0
10
47.517275020476895
20
-57.153838041699245
30
0
10
47.393455058929057
20
-57.362255552685554
30
0
0
SPLINE
5
174
100
AcDbEntity
8
0
100
AcDbSpline
70
4
71
3
72
8
73
4
74
0
42
0.000000001
43
0.0000000001
44
0.0000000001
40
0
40
0
40
0
40
0
40
1
40
1
40
1
40
1
41
1
41
1
41
1
41
1
10
47.393455058929057
20
-57.362255552685554
30
0
10
47.146512767669286
20
-57.777921395377625
30
0
10
46.534279465870789
20
-58.352175749218773
30
0
10
44.737560970183921
20
-59.853401945507834
30
0
0
SPLINE
5
175
100
AcDbEntity
8
0
100
AcDbSpline
70
4
71
3
72
8
73
4
74
0
42
0.000000001
43
0.0000000001
44
0.0000000001
40
0
40
0
40
0
40
0
40
1
40
1
40
1
40
1
41
1
41
1
41
1
41
1
10
44.737560970183921
20
-59.853401945507834
30
0
10
42.346508596933596
20
-61.851212817903658
30
0
10
40.698889527516286
20
-62.959426827506526
30
0
10
39.69859851697754
20
-63.242678272005222
30
0
0
SPLINE
5
176
100
AcDbEntity
8
0
100
AcDbSpline
70
4
71
3
72
8
73
4
74
0
42
0.000000001
43
0.0000000001
44
0.0000000001
40
0
40
0
40
0
40
0
40
1
40
1
40
1
40
1
41
1
41
1
41
1
41
1
10
39.69859851697754
20
-63.242678272005222
30
0
10
39.522633805470385
20
-63.29250727184246
30
0
10
39.030735535817058
20
-63.498244067903656
30
0
10
38.605490174488935
20
-63.699885506705741
30
0
0
SPLINE
5
177
100
AcDbEntity
8
0
100
AcDbSpline
70
4
71
3
72
8
73
4
74
0
42
0.000000001
43
0.0000000001
44
0.0000000001
40
0
40
0
40
0
40
0
40
1
40
1
40
1
40
1
41
1
41
1
41
1
41
1
10
38.605490174488935
20
-63.699885506705741
30
0
10
37.487363979217129
20
-64.230046944694024
30
0
10
36.822362580494797
20
-64.348082375602218
30
0
10
35.592776780323895
20
-64.234626768505876
30
0
0
SPLINE
5
178
100
AcDbEntity
8
0
100
AcDbSpline
70
4
71
3
72
8
73
4
74
0
42
0.000000001
43
0.0000000001
44
0.0000000001
40
0
40
0
40
0
40
0
40
1
40
1
40
1
40
1
41
1
41
1
41
1
41
1
10
35.592776780323895
20
-64.234626768505876
30
0
10
34.480409277475587
20
-64.131990914420584
30
0
10
32.48554073194336
20
-63.718049772656258
30
0
10
30.953902955250658
20
-63.272049864208995
30
0
0
SPLINE
5
179
100
AcDbEntity
8
0
100
AcDbSpline
70
4
71
3
72
8
73
4
74
0
42
0.000000001
43
0.0000000001
44
0.0000000001
40
0
40
0
40
0
40
0
40
1
40
1
40
1
40
1
41
1
41
1
41
1
41
1
10
30.953902955250658
20
-63.272049864208995
30
0
10
30.748705531951508
20
-63.21229898937176
30
0
10
30.530627757903659
20
-63.163413084423837
30
0
10
30.469284602996431
20
-63.163413084423837
30
0
0
SPLINE
5
180
100
AcDbEntity
8
0
100
AcDbSpline
70
4
71
3
72
8
73
4
74
0
42
0.000000001
43
0.0000000001
44
0.0000000001
40
0
40
0
40
0
40
0
40
1
40
1
40
1
40
1
41
1
41
1
41
1
41
1
10
30.469284602996431
20
-63.163413084423837
30
0
10
30.311309749480806
20
-63.163413084423837
30
0
10
30.027331605152998
20
-63.76210393118491
30
0
10
28.724116578297529
20
-66.842652332063807
30
0
0
SPLINE
5
181
100
AcDbEntity
8
0
100
AcDbSpline
70
4
71
3
72
8
73
4
74
0
42
0.000000001
43
0.0000000001
44
0.0000000001
40
0
40
0
40
0
40
0
40
1
40
1
40
1
40
1
41
1
41
1
41
1
41
1
10
28.724116578297529
20
-66.842652332063807
30
0
10
27.517694738901373
20
-69.694396869417332
30
0
10
26.815867422617188
20
-71.148888192252613
30
0
10
26.210332678354504
20
-72.052321419791681
30
0
0
SPLINE
5
182
100
AcDbEntity
8
0
100
AcDbSpline
70
4
71
3
72
8
73
4
74
0
42
0.000000001
43
0.0000000001
44
0.0000000001
40
0
40
0
40
0
40
0
40
1
40
1
40
1
40
1
41
1
41
1
41
1
41
1
10
26.210332678354504
20
-72.052321419791681
30
0
10
25.86694278577637
20
-72.564641569531261
30
0
10
24.703328410979818
20
-73.968690234895845
30
0
10
24.456457174814457
20
-74.168594053662119
30
0
0
SPLINE
5
183
100
AcDbEntity
8
0
100
AcDbSpline
70
4
71
3
72
8
73
4
74
0
42
0.000000001
43
0.0000000001
44
0.0000000001
40
0
40
0
40
0
40
0
40
1
40
1
40
1
40
1
41
1
41
1
41
1
41
1
10
24.456457174814457
20
-74.168594053662119
30
0
10
24.016936199065757
20
-74.524496102408875
30
0
10
23.70058599968425
20
-74.614264524853525
30
0
10
23.287222988006185
20
-74.500369668082698
30
0
0
LINE
5
184
100
AcDbEntity
8
0
100
AcDbLine
10
23.287222988006189
20
-74.500369668082698
30
0
11
23.287113175587567
21
-74.500382587190771
31
0
0
SPLINE
5
185
100
AcDbEntity
8
0
100
AcDbSpline
70
4
71
3
72
8
73
4
74
0
42
0.000000001
43
0.0000000001
44
0.0000000001
40
0
40
0
40
0
40
0
40
1
40
1
40
1
40
1
41
1
41
1
41
1
41
1
10
24.254983684417319
20
-72.019700671907557
30
0
10
25.246958019134116
20
-71.313348438020839
30
0
10
26.762740820444346
20
-68.101322274283859
30
0
10
28.311787095265302
20
-63.423125914013681
30
0
0
SPLINE
5
186
100
AcDbEntity
8
0
100
AcDbSpline
70
4
71
3
72
8
73
4
74
0
42
0.000000001
43
0.0000000001
44
0.0000000001
40
0
40
0
40
0
40
0
40
1
40
1
40
1
40
1
41
1
41
1
41
1
41
1
10
28.311787095265302
20
-63.423125914013681
30
0
10
28.686841721730154
20
-62.290443113720713
30
0
10
28.769562770721038
20
-62.003160907503272
30
0
10
28.79039160271159
20
-61.760998686230479
30
0
0
SPLINE
5
187
100
AcDbEntity
8
0
100
AcDbSpline
70
4
71
3
72
8
73
4
74
0
42
0.000000001
43
0.0000000001
44
0.0000000001
40
0
40
0
40
0
40
0
40
1
40
1
40
1
40
1
41
1
41
1
41
1
41
1
10
28.79039160271159
20
-61.760998686230479
30
0
10
28.792413443125007
20
-61.737505288199877
30
0
10
28.875409023162444
20
-61.684304401155607
30
0
10
28.974824789560554
20
-61.642763009147146
30
0
0
SPLINE
5
188
100
AcDbEntity
8
0
100
AcDbSpline
70
4
71
3
72
8
73
4
74
0
42
0.000000001
43
0.0000000001
44
0.0000000001
40
0
40
0
40
0
40
0
40
1
40
1
40
1
40
1
41
1
41
1
41
1
41
1
10
28.974824789560554
20
-61.642763009147146
30
0
10
29.522892111337899
20
-61.413765359000664
30
0
10
31.057788733041995
20
-61.5170665471517
30
0
10
34.126299754973964
20
-61.989466652945993
30
0
0
SPLINE
5
189
100
AcDbEntity
8
0
100
AcDbSpline
70
4
71
3
72
8
73
4
74
0
42
0.000000001
43
0.0000000001
44
0.0000000001
40
0
40
0
40
0
40
0
40
1
40
1
40
1
40
1
41
1
41
1
41
1
41
1
10
34.126299754973964
20
-61.989466652945993
30
0
10
36.207396887338874
20
-62.309847614046241
30
0
10
37.054719198740237
20
-62.315473885612001
30
0
10
38.104997468190106
20
-62.015853931184921
30
0
0
SPLINE
5
190
100
AcDbEntity
8
0
100
AcDbSpline
70
4
71
3
72
8
73
4
74
0
42
0.000000001
43
0.0000000001
44
0.0000000001
40
0
40
0
40
0
40
0
40
1
40
1
40
1
40
1
41
1
41
1
41
1
41
1
10
38.104997468190106
20
-62.015853931184921
30
0
10
39.456975668466811
20
-61.630160419222015
30
0
10
41.345949514902351
20
-60.368021696484391
30
0
10
44.560498134490565
20
-57.702519021110035
30
0
0
SPLINE
5
191
100
AcDbEntity
8
0
100
AcDbSpline
70
4
71
3
72
8
73
4
74
0
42
0.000000001
43
0.0000000001
44
0.0000000001
40
0
40
0
40
0
40
0
40
1
40
1
40
1
40
1
41
1
41
1
41
1
41
1
10
44.560498134490565
20
-57.702519021110035
30
0
10
45.27644280612143
20
-57.108860166943387
30
0
10
45.592767167286787
20
-56.812967375195321
30
0
10
45.614858842091479
20
-56.716267851269542
30
0
0
SPLINE
5
192
100
AcDbEntity
8
0
100
AcDbSpline
70
4
71
3
72
8
73
4
74
0
42
0.000000001
43
0.0000000001
44
0.0000000001
40
0
40
0
40
0
40
0
40
1
40
1
40
1
40
1
41
1
41
1
41
1
41
1
10
45.614858842091479
20
-56.716267851269542
30
0
10
45.632215663787441
20
-56.640290576692713
30
0
10
45.754614523447273
20
-56.362161558544948
30
0
10
45.886854513681648
20
-56.098217721061204
30
0
0
SPLINE
5
193
100
AcDbEntity
8
0
100
AcDbSpline
70
4
71
3
72
8
73
4
74
0
42
0.000000001
43
0.0000000001
44
0.0000000001
40
0
40
0
40
0
40
0
40
1
40
1
40
1
40
1
41
1
41
1
41
1
41
1
10
45.886854513681648
20
-56.098217721061204
30
0
10
46.169140254851897
20
-55.534815418001315
30
0
10
46.270946056243496
20
-55.098459623730491
30
0
10
46.316072500742195
20
-54.258594867464218
30
0
0
SPLINE
5
194
100
AcDbEntity
8
0
100
AcDbSpline
70
4
71
3
72
8
73
4
74
0
42
0.000000001
43
0.0000000001
44
0.0000000001
40
0
40
0
40
0
40
0
40
1
40
1
40
1
40
1
41
1
41
1
41
1
41
1
10
46.316072500742195
20
-54.258594867464218
30
0
10
46.38399471143557
20
-52.994473061637386
30
0
10
46.087149135467129
20
-51.522896218375678
30
0
10
45.513986446258144
20
-50.282358244335946
30
0
0
SPLINE
5
195
100
AcDbEntity
8
0
100
AcDbSpline
70
4
71
3
72
8
73
4
74
0
42
0.000000001
43
0.0000000001
44
0.0000000001
40
0
40
0
40
0
40
0
40
1
40
1
40
1
40
1
41
1
41
1
41
1
41
1
10
45.513986446258144
20
-50.282358244335946
30
0
10
45.061730459726583
20
-49.303509723421229
30
0
10
44.153895046111657
20
-48.183539325472012
30
0
10
43.291092413461918
20
-47.540032092806001
30
0
0
SPLINE
5
196
100
AcDbEntity
8
0
100
AcDbSpline
70
4
71
3
72
8
73
4
74
0
42
0.000000001
43
0.0000000001
44
0.0000000001
40
0
40
0
40
0
40
0
40
1
40
1
40
1
40
1
41
1
41
1
41
1
41
1
10
43.291092413461918
20
-47.540032092806001
30
0
10
41.561824581023778
20
-46.250291695670583
30
0
10
39.069974096811528
20
-45.734625496940112
30
0
10
35.319747580087892
20
-45.890449318961608
30
0
0
SPLINE
5
197
100
AcDbEntity
8
0
100
AcDbSpline
70
4
71
3
72
8
73
4
74
0
42
0.000000001
43
0.0000000001
44
0.0000000001
40
0
40
0
40
0
40
0
40
1
40
1
40
1
40
1
41
1
41
1
41
1
41
1
10
35.319747580087892
20
-45.890449318961608
30
0
10
33.793245148854169
20
-45.953875680045577
30
0
10
33.760789119597987
20
-45.953048857128913
30
0
10
33.392943355437829
20
-45.841317950960303
30
0
0
SPLINE
5
198
100
AcDbEntity
8
0
100
AcDbSpline
70
4
71
3
72
8
73
4
74
0
42
0.000000001
43
0.0000000001
44
0.0000000001
40
0
40
0
40
0
40
0
40
1
40
1
40
1
40
1
41
1
41
1
41
1
41
1
10
33.392943355437829
20
-45.841317950960303
30
0
10
32.803098867929691
20
-45.662162219759132
30
0
10
32.208868343230804
20
-45.053433226025412
30
0
10
32.425399054086917
20
-44.850170439160166
30
0
0
SPLINE
5
199
100
AcDbEntity
8
0
100
AcDbSpline
70
4
71
3
72
8
73
4
74
0
42
0.000000001
43
0.0000000001
44
0.0000000001
40
0
40
0
40
0
40
0
40
1
40
1
40
1
40
1
41
1
41
1
41
1
41
1
10
32.425399054086917
20
-44.850170439160166
30
0
10
32.621323787566737
20
-44.666247557080084
30
0
10
34.197852235035811
20
-44.152480467236337
30
0
10
35.358172237273763
20
-43.894427743033859
30
0
0
SPLINE
5
200
100
AcDbEntity
8
0
100
AcDbSpline
70
4
71
3
72
8
73
4
74
0
42
0.000000001
43
0.0000000001
44
0.0000000001
40
0
40
0
40
0
40
0
40
1
40
1
40
1
40
1
41
1
41
1
41
1
41
1
10
35.358172237273763
20
-43.894427743033859
30
0
10
36.526201717254239
20
-43.634650317903649
30
0
10
37.151069906748049
20
-43.570745949820974
30
0
10
38.525398163990886
20
-43.570506946321636
30
0
0
SPLINE
5
201
100
AcDbEntity
8
0
100
AcDbSpline
70
4
71
3
72
8
73
4
74
0
42
0.000000001
43
0.0000000001
44
0.0000000001
40
0
40
0
40
0
40
0
40
1
40
1
40
1
40
1
41
1
41
1
41
1
41
1
10
38.525398163990886
20
-43.570506946321636
30
0
10
39.874543849822594
20
-43.570293781038416
30
0
10
40.602755214568688
20
-43.654203387972011
30
0
10
41.515076788461933
20
-43.915104775504574
30
0
0
SPLINE
5
202
100
AcDbEntity
8
0
100
AcDbSpline
70
4
71
3
72
8
73
4
74
0
42
0.000000001
43
0.0000000001
44
0.0000000001
40
0
40
0
40
0
40
0
40
1
40
1
40
1
40
1
41
1
41
1
41
1
41
1
10
41.515076788461933
20
-43.915104775504574
30
0
10
41.848286423878591
20
-44.010396116650405
30
0
10
41.889821356333023
20
-44.012153115348312
30
0
10
42.006174073414719
20
-43.935917458610035
30
0
0
SPLINE
5
203
100
AcDbEntity
8
0
100
AcDbSpline
70
4
71
3
72
8
73
4
74
0
42
0.000000001
43
0.0000000001
44
0.0000000001
40
0
40
0
40
0
40
0
40
1
40
1
40
1
40
1
41
1
41
1
41
1
41
1
10
42.006174073414719
20
-43.935917458610035
30
0
10
42.206439627207033
20
-43.804698077913422
30
0
10
43.405504034555669
20
-42.614421893831384
30
0
10
43.40491621513835
20
-42.547423399365243
30
0
0
SPLINE
5
204
100
AcDbEntity
8
0
100
AcDbSpline
70
4
71
3
72
8
73
4
74
0
42
0.000000001
43
0.0000000001
44
0.0000000001
40
0
40
0
40
0
40
0
40
1
40
1
40
1
40
1
41
1
41
1
41
1
41
1
10
43.40491621513835
20
-42.547423399365243
30
0
10
43.403763184742843
20
-42.415254464225278
30
0
10
42.314911688364269
20
-41.691060942089848
30
0
10
41.493537405527348
20
-41.276163786328148
30
0
0
SPLINE
5
205
100
AcDbEntity
8
0
100
AcDbSpline
70
4
71
3
72
8
73
4
74
0
42
0.000000001
43
0.0000000001
44
0.0000000001
40
0
40
0
40
0
40
0
40
1
40
1
40
1
40
1
41
1
41
1
41
1
41
1
10
41.493537405527348
20
-41.276163786328148
30
0
10
40.53388667920899
20
-40.791425932324223
30
0
10
39.362824438608399
20
-40.41321904348959
30
0
10
38.319803478118494
20
-40.25118113048503
30
0
0
SPLINE
5
206
100
AcDbEntity
8
0
100
AcDbSpline
70
4
71
3
72
8
73
4
74
0
42
0.000000001
43
0.0000000001
44
0.0000000001
40
0
40
0
40
0
40
0
40
1
40
1
40
1
40
1
41
1
41
1
41
1
41
1
10
38.319803478118494
20
-40.25118113048503
30
0
10
37.516729111866866
20
-40.126421303824877
30
0
10
35.793203822967129
20
-40.127771350618495
30
0
10
34.872814266082358
20
-40.25388768362631
30
0
0
SPLINE
5
207
100
AcDbEntity
8
0
100
AcDbSpline
70
4
71
3
72
8
73
4
74
0
42
0.000000001
43
0.0000000001
44
0.0000000001
40
0
40
0
40
0
40
0
40
1
40
1
40
1
40
1
41
1
41
1
41
1
41
1
10
34.872814266082358
20
-40.25388768362631
30
0
10
33.399703278736979
20
-40.455735828157557
30
0
10
31.311839763518883
20
-41.061906838492845
30
0
10
31.219048269785166
20
-41.314688566601568
30
0
0
SPLINE
5
208
100
AcDbEntity
8
0
100
AcDbSpline
70
4
71
3
72
8
73
4
74
0
42
0.000000001
43
0.0000000001
44
0.0000000001
40
0
40
0
40
0
40
0
40
1
40
1
40
1
40
1
41
1
41
1
41
1
41
1
10
31.219048269785166
20
-41.314688566601568
30
0
10
31.205609167612316
20
-41.351301318880218
30
0
10
31.176382915374354
20
-41.681197203076181
30
0
10
31.154100683725588
20
-42.047789813753262
30
0
0
LINE
5
209
100
AcDbEntity
8
0
100
AcDbLine
10
31.154100683725588
20
-42.047789813753269
30
0
11
31.113589590585939
21
-42.714318897005221
31
0
0
LINE
5
210
100
AcDbEntity
8
0
100
AcDbLine
10
31.113589590585939
20
-42.714318897005221
30
0
11
30.58552104810547
21
-42.701974689241538
31
0
0
SPLINE
5
211
100
AcDbEntity
8
0
100
AcDbSpline
70
4
71
3
72
8
73
4
74
0
42
0.000000001
43
0.0000000001
44
0.0000000001
40
0
40
0
40
0
40
0
40
1
40
1
40
1
40
1
41
1
41
1
41
1
41
1
10
30.58552104810547
20
-42.701974689241553
30
0
10
29.993050751881512
20
-42.688125405387389
30
0
10
29.441181982553715
20
-42.570006000276699
30
0
10
29.340125489430342
20
-42.435414732373069
30
0
0
SPLINE
5
212
100
AcDbEntity
8
0
100
AcDbSpline
70
4
71
3
72
8
73
4
74
0
42
0.000000001
43
0.0000000001
44
0.0000000001
40
0
40
0
40
0
40
0
40
1
40
1
40
1
40
1
41
1
41
1
41
1
41
1
10
29.340125489430342
20
-42.435414732373069
30
0
10
29.170122946298832
20
-42.208994444287114
30
0
10
29.148512508269864
20
-41.946097054557299
30
0
10
29.12757386386069
20
-39.849616494254562
30
0
0
SPLINE
5
213
100
AcDbEntity
8
0
100
AcDbSpline
70
4
71
3
72
8
73
4
74
0
42
0.000000001
43
0.0000000001
44
0.0000000001
40
0
40
0
40
0
40
0
40
1
40
1
40
1
40
1
41
1
41
1
41
1
41
1
10
29.12757386386069
20
-39.849616494254562
30
0
10
29.109283636606449
20
-38.018368452465829
30
0
10
29.118566015756837
20
-37.671651889558923
30
0
10
29.196087123748384
20
-37.290144168611661
30
0
0
SPLINE
5
214
100
AcDbEntity
8
0
100
AcDbSpline
70
4
71
3
72
8
73
4
74
0
42
0.000000001
43
0.0000000001
44
0.0000000001
40
0
40
0
40
0
40
0
40
1
40
1
40
1
40
1
41
1
41
1
41
1
41
1
10
29.196087123748384
20
-37.290144168611661
30
0
10
29.31752996941082
20
-36.692512688712569
30
0
10
29.751905910369469
20
-35.287517698681647
30
0
10
30.371105841196293
20
-33.489549279288745
30
0
0
SPLINE
5
215
100
AcDbEntity
8
0
100
AcDbSpline
70
4
71
3
72
8
73
4
74
0
42
0.000000001
43
0.0000000001
44
0.0000000001
40
0
40
0
40
0
40
0
40
1
40
1
40
1
40
1
41
1
41
1
41
1
41
1
10
30.371105841196293
20
-33.489549279288745
30
0
10
32.810750209685878
20
-26.405556613680016
30
0
10
34.255820272958985
20
-21.700194598909516
30
0
10
35.398502462900396
20
-17.119592410799157
30
0
0
SPLINE
5
216
100
AcDbEntity
8
0
100
AcDbSpline
70
4
71
3
72
8
73
4
74
0
42
0.000000001
43
0.0000000001
44
0.0000000001
40
0
40
0
40
0
40
0
40
1
40
1
40
1
40
1
41
1
41
1
41
1
41
1
10
35.398502462900396
20
-17.119592410799157
30
0
10
36.008668707407232
20
-14.67365966645508
30
0
10
36.200921184417318
20
-13.532689258333335
30
0
10
36.24307300428223
20
-12.107291766878259
30
0
0
SPLINE
5
217
100
AcDbEntity
8
0
100
AcDbSpline
70
4
71
3
72
8
73
4
74
0
42
0.000000001
43
0.0000000001
44
0.0000000001
40
0
40
0
40
0
40
0
40
1
40
1
40
1
40
1
41
1
41
1
41
1
41
1
10
36.24307300428223
20
-12.107291766878259
30
0
10
36.30951274732422
20
-9.8604505523803727
30
0
10
35.913080226775719
20
-8.6137049469116231
30
0
10
34.248094646331381
20
-5.8332545074584976
30
0
0
SPLINE
5
218
100
AcDbEntity
8
0
100
AcDbSpline
70
4
71
3
72
8
73
4
74
0
42
0.000000001
43
0.0000000001
44
0.0000000001
40
0
40
0
40
0
40
0
40
1
40
1
40
1
40
1
41
1
41
1
41
1
41
1
10
34.248094646331381
20
-5.8332545074584976
30
0
10
33.377902283863932
20
-4.3800777038696292
30
0
10
32.913873760100913
20
-3.8091484054687506
30
0
10
32.10535721957357
20
-3.1968844207885749
30
0
0
SPLINE
5
219
100
AcDbEntity
8
0
100
AcDbSpline
70
4
71
3
72
8
73
4
74
0
42
0.000000001
43
0.0000000001
44
0.0000000001
40
0
40
0
40
0
40
0
40
1
40
1
40
1
40
1
41
1
41
1
41
1
41
1
10
32.10535721957357
20
-3.1968844207885749
30
0
10
31.486334926482762
20
-2.7281194290283213
30
0
10
30.720696905649415
20
-2.3592320617797857
30
0
10
29.936681453582359
20
-2.152003108736166
30
0
0
SPLINE
5
220
100
AcDbEntity
8
0
100
AcDbSpline
70
4
71
3
72
8
73
4
74
0
42
0.000000001
43
0.0000000001
44
0.0000000001
40
0
40
0
40
0
40
0
40
1
40
1
40
1
40
1
41
1
41
1
41
1
41
1
10
29.936681453582359
20
-2.152003108736166
30
0
10
29.326625021494142
20
-1.9907564911010747
30
0
10
29.257042705413419
20
-1.9837963216267909
30
0
10
28.234185242848309
20
-1.9817147303385421
30
0
0
SPLINE
5
221
100
AcDbEntity
8
0
100
AcDbSpline
70
4
71
3
72
8
73
4
74
0
42
0.000000001
43
0.0000000001
44
0.0000000001
40
0
40
0
40
0
40
0
40
1
40
1
40
1
40
1
41
1
41
1
41
1
41
1
10
28.234185242848309
20
-1.9817147303385421
30
0
10
27.098017513152683
20
-1.9793973653279628
30
0
10
26.70105207939617
20
-2.0311706909301765
30
0
10
25.756022553639326
20
-2.3048862187825527
30
0
0
SPLINE
5
222
100
AcDbEntity
8
0
100
AcDbSpline
70
4
71
3
72
8
73
4
74
0
42
0.000000001
43
0.0000000001
44
0.0000000001
40
0
40
0
40
0
40
0
40
1
40
1
40
1
40
1
41
1
41
1
41
1
41
1
10
25.756022553639326
20
-2.3048862187825527
30
0
10
25.200588110483402
20
-2.4657597971720384
30
0
10
20.746702993906251
20
-4.364001488761394
30
0
10
20.442456383900556
20
-4.5695235046508795
30
0
0
SPLINE
5
223
100
AcDbEntity
8
0
100
AcDbSpline
70
4
71
3
72
8
73
4
74
0
42
0.000000001
43
0.0000000001
44
0.0000000001
40
0
40
0
40
0
40
0
40
1
40
1
40
1
40
1
41
1
41
1
41
1
41
1
10
20.442456383900556
20
-4.5695235046508795
30
0
10
20.321475396351726
20
-4.6512449376546243
30
0
10
19.877566768523764
20
-4.888402619437664
30
0
10
19.455990433888349
20
-5.0965423696004244
30
0
0
SPLINE
5
224
100
AcDbEntity
8
0
100
AcDbSpline
70
4
71
3
72
8
73
4
74
0
42
0.000000001
43
0.0000000001
44
0.0000000001
40
0
40
0
40
0
40
0
40
1
40
1
40
1
40
1
41
1
41
1
41
1
41
1
10
19.455990433888349
20
-5.0965423696004244
30
0
10
19.034415714141439
20
-5.3046805048746757
30
0
10
18.668890544768885
20
-5.4953520060343433
30
0
10
18.643717662688807
20
-5.5202568166219104
30
0
0
SPLINE
5
225
100
AcDbEntity
8
0
100
AcDbSpline
70
4
71
3
72
8
73
4
74
0
42
0.000000001
43
0.0000000001
44
0.0000000001
40
0
40
0
40
0
40
0
40
1
40
1
40
1
40
1
41
1
41
1
41
1
41
1
10
18.643717662688807
20
-5.5202568166219104
30
0
10
18.61835260887614
20
-5.5453489542765313
30
0
10
18.730109353260907
20
-5.7995097971720391
30
0
10
18.89438227196208
20
-6.0903140752278659
30
0
0
SPLINE
5
226
100
AcDbEntity
8
0
100
AcDbSpline
70
4
71
3
72
8
73
4
74
0
42
0.000000001
43
0.0000000001
44
0.0000000001
40
0
40
0
40
0
40
0
40
1
40
1
40
1
40
1
41
1
41
1
41
1
41
1
10
18.89438227196208
20
-6.0903140752278659
30
0
10
19.985313744740402
20
-8.0215463241699236
30
0
10
20.373285864389651
20
-9.3861125803751637
30
0
10
20.192008169687501
20
-10.654257073478192
30
0
0
SPLINE
5
227
100
AcDbEntity
8
0
100
AcDbSpline
70
4
71
3
72
8
73
4
74
0
42
0.000000001
43
0.0000000001
44
0.0000000001
40
0
40
0
40
0
40
0
40
1
40
1
40
1
40
1
41
1
41
1
41
1
41
1
10
20.192008169687501
20
-10.654257073478192
30
0
10
20.157074901458337
20
-10.898630077119956
30
0
10
20.162888500091146
20
-10.960861420707197
30
0
10
20.220657906727702
20
-10.960861420707197
30
0
0
SPLINE
5
228
100
AcDbEntity
8
0
100
AcDbSpline
70
4
71
3
72
8
73
4
74
0
42
0.000000001
43
0.0000000001
44
0.0000000001
40
0
40
0
40
0
40
0
40
1
40
1
40
1
40
1
41
1
41
1
41
1
41
1
10
20.220657906727702
20
-10.960861420707197
30
0
10
20.26051658490967
20
-10.960861420707197
30
0
10
20.612707619862469
20
-10.819799294547527
30
0
10
21.003299088673511
20
-10.647390567537441
30
0
0
SPLINE
5
229
100
AcDbEntity
8
0
100
AcDbSpline
70
4
71
3
72
8
73
4
74
0
42
0.000000001
43
0.0000000001
44
0.0000000001
40
0
40
0
40
0
40
0
40
1
40
1
40
1
40
1
41
1
41
1
41
1
41
1
10
21.003299088673511
20
-10.647390567537441
30
0
10
21.400209616220703
20
-10.472189698295086
30
0
10
21.758007544077152
20
-10.345569520072431
30
0
10
21.814447897470703
20
-10.36032960104574
30
0
0
SPLINE
5
230
100
AcDbEntity
8
0
100
AcDbSpline
70
4
71
3
72
8
73
4
74
0
42
0.000000001
43
0.0000000001
44
0.0000000001
40
0
40
0
40
0
40
0
40
1
40
1
40
1
40
1
41
1
41
1
41
1
41
1
10
21.814447897470703
20
-10.36032960104574
30
0
10
21.996688065724289
20
-10.407986575838217
30
0
10
22.333812190887045
20
-10.785481298840336
30
0
10
22.394108898040365
20
-11.009404969291181
30
0
0
SPLINE
5
231
100
AcDbEntity
8
0
100
AcDbSpline
70
4
71
3
72
8
73
4
74
0
42
0.000000001
43
0.0000000001
44
0.0000000001
40
0
40
0
40
0
40
0
40
1
40
1
40
1
40
1
41
1
41
1
41
1
41
1
10
22.394108898040365
20
-11.009404969291181
30
0
10
22.457325323618168
20
-11.244179075634769
30
0
10
22.429665513234053
20
-11.422856799837241
30
0
10
22.286063167449544
20
-11.707374316927089
30
0
0
SPLINE
5
232
100
AcDbEntity
8
0
100
AcDbSpline
70
4
71
3
72
8
73
4
74
0
42
0.000000001
43
0.0000000001
44
0.0000000001
40
0
40
0
40
0
40
0
40
1
40
1
40
1
40
1
41
1
41
1
41
1
41
1
10
22.286063167449544
20
-11.707374316927089
30
0
10
22.134492961761069
20
-12.007682213859052
30
0
10
21.928358903126629
20
-12.155838545239259
30
0
10
21.24896561801107
20
-12.452777784741214
30
0
0
SPLINE
5
233
100
AcDbEntity
8
0
100
AcDbSpline
70
4
71
3
72
8
73
4
74
0
42
0.000000001
43
0.0000000001
44
0.0000000001
40
0
40
0
40
0
40
0
40
1
40
1
40
1
40
1
41
1
41
1
41
1
41
1
10
21.24896561801107
20
-12.452777784741214
30
0
10
20.272684769825847
20
-12.879473315950527
30
0
10
18.693709766265464
20
-13.694097364819342
30
0
10
18.144179355498864
20
-14.054595386263022
30
0
0
SPLINE
5
234
100
AcDbEntity
8
0
100
AcDbSpline
70
4
71
3
72
8
73
4
74
0
42
0.000000001
43
0.0000000001
44
0.0000000001
40
0
40
0
40
0
40
0
40
1
40
1
40
1
40
1
41
1
41
1
41
1
41
1
10
18.144179355498864
20
-14.054595386263022
30
0
10
17.369491499460452
20
-14.5628040298584
30
0
10
17.20605670789551
20
-14.884686837272138
30
0
10
17.610484541452639
20
-15.105703708406581
30
0
0
SPLINE
5
235
100
AcDbEntity
8
0
100
AcDbSpline
70
4
71
3
72
8
73
4
74
0
42
0.000000001
43
0.0000000001
44
0.0000000001
40
0
40
0
40
0
40
0
40
1
40
1
40
1
40
1
41
1
41
1
41
1
41
1
10
17.610484541452639
20
-15.105703708406581
30
0
10
17.755863264597167
20
-15.185149763500982
30
0
10
17.913083965179037
20
-15.199166995760098
30
0
10
18.609506249623209
20
-15.194777728792321
30
0
0
SPLINE
5
236
100
AcDbEntity
8
0
100
AcDbSpline
70
4
71
3
72
8
73
4
74
0
42
0.000000001
43
0.0000000001
44
0.0000000001
40
0
40
0
40
0
40
0
40
1
40
1
40
1
40
1
41
1
41
1
41
1
41
1
10
18.609506249623209
20
-15.194777728792321
30
0
10
19.569899824655764
20
-15.188725126660163
30
0
10
19.752117384470218
20
-15.143191730257168
30
0
10
19.710114134348146
20
-14.919778364575198
30
0
0
SPLINE
5
237
100
AcDbEntity
8
0
100
AcDbSpline
70
4
71
3
72
8
73
4
74
0
42
0.000000001
43
0.0000000001
44
0.0000000001
40
0
40
0
40
0
40
0
40
1
40
1
40
1
40
1
41
1
41
1
41
1
41
1
10
19.710114134348146
20
-14.919778364575198
30
0
10
19.620400618112793
20
-14.442562661246747
30
0
10
19.61823666751058
20
-14.172220635489911
30
0
10
19.703436570362957
20
-14.08701588797201
30
0
0
SPLINE
5
238
100
AcDbEntity
8
0
100
AcDbSpline
70
4
71
3
72
8
73
4
74
0
42
0.000000001
43
0.0000000001
44
0.0000000001
40
0
40
0
40
0
40
0
40
1
40
1
40
1
40
1
41
1
41
1
41
1
41
1
10
19.703436570362957
20
-14.08701588797201
30
0
10
19.9479646033016
20
-13.84248624014486
30
0
10
20.509314383066407
20
-14.088805184440112
30
0
10
21.136227021412761
20
-14.715714593009448
30
0
0
SPLINE
5
239
100
AcDbEntity
8
0
100
AcDbSpline
70
4
71
3
72
8
73
4
74
0
42
0.000000001
43
0.0000000001
44
0.0000000001
40
0
40
0
40
0
40
0
40
1
40
1
40
1
40
1
41
1
41
1
41
1
41
1
10
21.136227021412761
20
-14.715714593009448
30
0
10
21.550846416350918
20
-15.130333987947594
30
0
10
21.742756536997071
20
-15.484391834016931
30
0
10
21.682663305795899
20
-15.723831353263353
30
0
0
SPLINE
5
240
100
AcDbEntity
8
0
100
AcDbSpline
70
4
71
3
72
8
73
4
74
0
42
0.000000001
43
0.0000000001
44
0.0000000001
40
0
40
0
40
0
40
0
40
1
40
1
40
1
40
1
41
1
41
1
41
1
41
1
10
21.682663305795899
20
-15.723831353263353
30
0
10
21.595591747161468
20
-16.070744932568363
30
0
10
21.105124268727216
20
-16.332692767854819
30
0
10
20.245439985788579
20
-16.491413699861656
30
0
0
SPLINE
5
241
100
AcDbEntity
8
0
100
AcDbSpline
70
4
71
3
72
8
73
4
74
0
42
0.000000001
43
0.0000000001
44
0.0000000001
40
0
40
0
40
0
40
0
40
1
40
1
40
1
40
1
41
1
41
1
41
1
41
1
10
20.245439985788579
20
-16.491413699861656
30
0
10
19.287761038339845
20
-16.66823107250163
30
0
10
16.595405996835943
20
-16.593997877514649
30
0
10
15.70724799970459
20
-16.366292138175456
30
0
0
SPLINE
5
242
100
AcDbEntity
8
0
100
AcDbSpline
70
4
71
3
72
8
73
4
74
0
42
0.000000001
43
0.0000000001
44
0.0000000001
40
0
40
0
40
0
40
0
40
1
40
1
40
1
40
1
41
1
41
1
41
1
41
1
10
15.70724799970459
20
-16.366292138175456
30
0
10
15.09546848157715
20
-16.209441247062177
30
0
10
14.611371738311361
20
-15.861726683056645
30
0
10
14.524857316212572
20
-15.517002892569991
30
0
0
SPLINE
5
243
100
AcDbEntity
8
0
100
AcDbSpline
70
4
71
3
72
8
73
4
74
0
42
0.000000001
43
0.0000000001
44
0.0000000001
40
0
40
0
40
0
40
0
40
1
40
1
40
1
40
1
41
1
41
1
41
1
41
1
10
14.524857316212572
20
-15.517002892569991
30
0
10
14.445057600534668
20
-15.199066872672528
30
0
10
14.53250865796875
20
-14.752663242097984
30
0
10
14.760500232574056
20
-14.314078901684573
30
0
0
SPLINE
5
244
100
AcDbEntity
8
0
100
AcDbSpline
70
4
71
3
72
8
73
4
74
0
42
0.000000001
43
0.0000000001
44
0.0000000001
40
0
40
0
40
0
40
0
40
1
40
1
40
1
40
1
41
1
41
1
41
1
41
1
10
14.760500232574056
20
-14.314078901684573
30
0
10
14.883199461496588
20
-14.078050026969404
30
0
10
14.983595465219732
20
-13.874884133414715
30
0
10
14.983595465219732
20
-13.862601291414391
30
0
0
SPLINE
5
245
100
AcDbEntity
8
0
100
AcDbSpline
70
4
71
3
72
8
73
4
74
0
42
0.000000001
43
0.0000000001
44
0.0000000001
40
0
40
0
40
0
40
0
40
1
40
1
40
1
40
1
41
1
41
1
41
1
41
1
10
14.983595465219732
20
-13.862601291414391
30
0
10
14.983595465219732
20
-13.850318449414065
30
0
10
14.761638728972983
20
-13.840125273144537
30
0
10
14.490360067880861
20
-13.83995409496257
30
0
0
SPLINE
5
246
100
AcDbEntity
8
0
100
AcDbSpline
70
4
71
3
72
8
73
4
74
0
42
0.000000001
43
0.0000000001
44
0.0000000001
40
0
40
0
40
0
40
0
40
1
40
1
40
1
40
1
41
1
41
1
41
1
41
1
10
14.490360067880861
20
-13.83995409496257
30
0
10
13.876437592701825
20
-13.839637576814781
30
0
10
13.16632428347738
20
-13.734469577547204
30
0
10
12.266510021087242
20
-13.510833357250984
30
0
0
SPLINE
5
247
100
AcDbEntity
8
0
100
AcDbSpline
70
4
71
3
72
8
73
4
74
0
42
0.000000001
43
0.0000000001
44
0.0000000001
40
0
40
0
40
0
40
0
40
1
40
1
40
1
40
1
41
1
41
1
41
1
41
1
10
12.266510021087242
20
-13.510833357250984
30
0
10
11.829043183522137
20
-13.402106143709318
30
0
10
11.554387790557456
20
-13.35709597118327
30
0
10
11.52473197797608
20
-13.389264550284834
30
0
0
SPLINE
5
248
100
AcDbEntity
8
0
100
AcDbSpline
70
4
71
3
72
8
73
4
74
0
42
0.000000001
43
0.0000000001
44
0.0000000001
40
0
40
0
40
0
40
0
40
1
40
1
40
1
40
1
41
1
41
1
41
1
41
1
10
11.52473197797608
20
-13.389264550284834
30
0
10
11.474307084278975
20
-13.443967283642584
30
0
10
10.504521317677414
20
-16.334549889640304
30
0
10
10.504521317677414
20
-16.430144829825849
30
0
0
SPLINE
5
249
100
AcDbEntity
8
0
100
AcDbSpline
70
4
71
3
72
8
73
4
74
0
42
0.000000001
43
0.0000000001
44
0.0000000001
40
0
40
0
40
0
40
0
40
1
40
1
40
1
40
1
41
1
41
1
41
1
41
1
10
10.504521317677414
20
-16.430144829825849
30
0
10
10.504521317677414
20
-16.461793414827476
30
0
10
10.723774730559901
20
-16.516370186881517
30
0
10
10.997117219166668
20
-16.552766544099939
30
0
0
SPLINE
5
250
100
AcDbEntity
8
0
100
AcDbSpline
70
4
71
3
72
8
73
4
74
0
42
0.000000001
43
0.0000000001
44
0.0000000001
40
0
40
0
40
0
40
0
40
1
40
1
40
1
40
1
41
1
41
1
41
1
41
1
10
10.997117219166668
20
-16.552766544099939
30
0
10
12.654522512949224
20
-16.77343459931641
30
0
10
18.432942414479172
20
-18.053714979565431
30
0
10
22.608688823577477
20
-19.125455117301435
30
0
0
SPLINE
5
251
100
AcDbEntity
8
0
100
AcDbSpline
70
4
71
3
72
8
73
4
74
0
42
0.000000001
43
0.0000000001
44
0.0000000001
40
0
40
0
40
0
40
0
40
1
40
1
40
1
40
1
41
1
41
1
41
1
41
1
10
22.608688823577477
20
-19.125455117301435
30
0
10
26.990275381601563
20
-20.250024717724614
30
0
10
29.430778870778003
20
-21.006987557486983
30
0
10
29.692804220712894
20
-21.322711180126955
30
0
0
SPLINE
5
252
100
AcDbEntity
8
0
100
AcDbSpline
70
4
71
3
72
8
73
4
74
0
42
0.000000001
43
0.0000000001
44
0.0000000001
40
0
40
0
40
0
40
0
40
1
40
1
40
1
40
1
41
1
41
1
41
1
41
1
10
29.692804220712894
20
-21.322711180126955
30
0
10
29.746011567311204
20
-21.386822253938806
30
0
10
29.73220427055827
20
-21.421351800040696
30
0
10
29.617175762054039
20
-21.511834003206385
30
0
0
SPLINE
5
253
100
AcDbEntity
8
0
100
AcDbSpline
70
4
71
3
72
8
73
4
74
0
42
0.000000001
43
0.0000000001
44
0.0000000001
40
0
40
0
40
0
40
0
40
1
40
1
40
1
40
1
41
1
41
1
41
1
41
1
10
29.617175762054039
20
-21.511834003206385
30
0
10
29.539777385589193
20
-21.572712070222984
30
0
10
29.388904811736655
20
-21.641151045239262
30
0
10
29.281905528899745
20
-21.663917743440759
30
0
0
SPLINE
5
254
100
AcDbEntity
8
0
100
AcDbSpline
70
4
71
3
72
8
73
4
74
0
42
0.000000001
43
0.0000000001
44
0.0000000001
40
0
40
0
40
0
40
0
40
1
40
1
40
1
40
1
41
1
41
1
41
1
41
1
10
29.281905528899745
20
-21.663917743440759
30
0
10
29.010820654428713
20
-21.721595101432296
30
0
10
27.902965150074873
20
-21.704154305533866
30
0
10
27.327719254689136
20
-21.633157347119148
30
0
0
SPLINE
5
255
100
AcDbEntity
8
0
100
AcDbSpline
70
4
71
3
72
8
73
4
74
0
42
0.000000001
43
0.0000000001
44
0.0000000001
40
0
40
0
40
0
40
0
40
1
40
1
40
1
40
1
41
1
41
1
41
1
41
1
10
27.327719254689136
20
-21.633157347119148
30
0
10
27.063775417205406
20
-21.600578586336265
30
0
10
26.560941122568362
20
-21.548966749584967
30
0
10
26.210313299692384
20
-21.518464735424807
30
0
0
SPLINE
5
256
100
AcDbEntity
8
0
100
AcDbSpline
70
4
71
3
72
8
73
4
74
0
42
0.000000001
43
0.0000000001
44
0.0000000001
40
0
40
0
40
0
40
0
40
1
40
1
40
1
40
1
41
1
41
1
41
1
41
1
10
26.210313299692384
20
-21.518464735424807
30
0
10
25.472551484303388
20
-21.454282606518561
30
0
10
23.977384349700522
20
-21.208635455843101
30
0
10
20.670727334217936
20
-20.608336180126955
30
0
0
SPLINE
5
257
100
AcDbEntity
8
0
100
AcDbSpline
70
4
71
3
72
8
73
4
74
0
42
0.000000001
43
0.0000000001
44
0.0000000001
40
0
40
0
40
0
40
0
40
1
40
1
40
1
40
1
41
1
41
1
41
1
41
1
10
20.670727334217936
20
-20.608336180126955
30
0
10
18.015484045541996
20
-20.126298419710288
30
0
10
12.714236245350751
20
-19.13292236176758
30
0
10
10.824456569549154
20
-18.763290530916343
30
0
0
SPLINE
5
258
100
AcDbEntity
8
0
100
AcDbSpline
70
4
71
3
72
8
73
4
74
0
42
0.000000001
43
0.0000000001
44
0.0000000001
40
0
40
0
40
0
40
0
40
1
40
1
40
1
40
1
41
1
41
1
41
1
41
1
10
10.824456569549154
20
-18.763290530916343
30
0
10
10.135267370737306
20
-18.628486097729496
30
0
10
9.5120754355159516
20
-18.515443902091473
30
0
10
9.4395911647843427
20
-18.512081704215497
30
0
0
SPLINE
5
259
100
AcDbEntity
8
0
100
AcDbSpline
70
4
71
3
72
8
73
4
74
0
42
0.000000001
43
0.0000000001
44
0.0000000001
40
0
40
0
40
0
40
0
40
1
40
1
40
1
40
1
41
1
41
1
41
1
41
1
10
9.4395911647843427
20
-18.512081704215497
30
0
10
9.3147812765804048
20
-18.506293943798831
30
0
10
9.1967878327734383
20
-18.761175026969404
30
0
10
7.2122674928076176
20
-23.323390094514981
30
0
0
LINE
5
260
100
AcDbEntity
8
0
100
AcDbLine
10
7.2122674928076176
20
-23.323390094514981
30
0
11
5.1167324497269693
21
-28.140809222932948
31
0
0
LINE
5
261
100
AcDbEntity
8
0
100
AcDbLine
10
5.1167324497269693
20
-28.140809222932948
30
0
11
4.9854702744848645
21
-28.948896203116874
31
0
0
SPLINE
5
262
100
AcDbEntity
8
0
100
AcDbSpline
70
4
71
3
72
8
73
4
74
0
42
0.000000001
43
0.0000000001
44
0.0000000001
40
0
40
0
40
0
40
0
40
1
40
1
40
1
40
1
41
1
41
1
41
1
41
1
10
4.9854702744848636
20
-28.948896203116874
30
0
10
4.3551477990515144
20
-32.829360248323582
30
0
10
4.1909314014481609
20
-37.638130033886725
30
0
10
4.5618301123347997
20
-41.354595691438824
30
0
0
SPLINE
5
263
100
AcDbEntity
8
0
100
AcDbSpline
70
4
71
3
72
8
73
4
74
0
42
0.000000001
43
0.0000000001
44
0.0000000001
40
0
40
0
40
0
40
0
40
1
40
1
40
1
40
1
41
1
41
1
41
1
41
1
10
4.5618301123347997
20
-41.354595691438824
30
0
10
5.092481668985597
20
-46.671861570751958
30
0
10
6.7169553488460298
20
-50.837595671093759
30
0
10
9.300308645761719
20
-53.505791980501307
30
0
0
SPLINE
5
264
100
AcDbEntity
8
0
100
AcDbSpline
70
4
71
3
72
8
73
4
74
0
42
0.000000001
43
0.0000000001
44
0.0000000001
40
0
40
0
40
0
40
0
40
1
40
1
40
1
40
1
41
1
41
1
41
1
41
1
10
9.300308645761719
20
-53.505791980501307
30
0
10
9.9316153957413746
20
-54.157832284049491
30
0
10
10.527507640716147
20
-54.653745166536467
30
0
10
11.470618678924154
20
-55.311973722851569
30
0
0
SPLINE
5
265
100
AcDbEntity
8
0
100
AcDbSpline
70
4
71
3
72
8
73
4
74
0
42
0.000000001
43
0.0000000001
44
0.0000000001
40
0
40
0
40
0
40
0
40
1
40
1
40
1
40
1
41
1
41
1
41
1
41
1
10
11.470618678924154
20
-55.311973722851569
30
0
10
13.538355838653162
20
-56.755102690136724
30
0
10
15.36151651878825
20
-57.743795571403005
30
0
10
17.280682320790206
20
-58.462750395214869
30
0
0
SPLINE
5
266
100
AcDbEntity
8
0
100
AcDbSpline
70
4
71
3
72
8
73
4
74
0
42
0.000000001
43
0.0000000001
44
0.0000000001
40
0
40
0
40
0
40
0
40
1
40
1
40
1
40
1
41
1
41
1
41
1
41
1
10
17.280682320790206
20
-58.462750395214869
30
0
10
18.385916861093751
20
-58.876794889843758
30
0
10
19.83407297630778
20
-59.271434884147148
30
0
10
22.097463568247072
20
-59.775396370963563
30
0
0
SPLINE
5
267
100
AcDbEntity
8
0
100
AcDbSpline
70
4
71
3
72
8
73
4
74
0
42
0.000000001
43
0.0000000001
44
0.0000000001
40
0
40
0
40
0
40
0
40
1
40
1
40
1
40
1
41
1
41
1
41
1
41
1
10
22.097463568247072
20
-59.775396370963563
30
0
10
24.495960577524414
20
-60.309433541373707
30
0
10
25.281836381153973
20
-60.526752317822279
30
0
10
25.941337469614261
20
-60.838309528108745
30
0
0
SPLINE
5
268
100
AcDbEntity
8
0
100
AcDbSpline
70
4
71
3
72
8
73
4
74
0
42
0.000000001
43
0.0000000001
44
0.0000000001
40
0
40
0
40
0
40
0
40
1
40
1
40
1
40
1
41
1
41
1
41
1
41
1
10
25.941337469614261
20
-60.838309528108745
30
0
10
26.783769898610039
20
-61.236289111848983
30
0
10
26.990281841155603
20
-61.638751626090524
30
0
10
26.683646811044923
20
-62.284933114127625
30
0
0
SPLINE
5
269
100
AcDbEntity
8
0
100
AcDbSpline
70
4
71
3
72
8
73
4
74
0
42
0.000000001
43
0.0000000001
44
0.0000000001
40
0
40
0
40
0
40
0
40
1
40
1
40
1
40
1
41
1
41
1
41
1
41
1
10
26.683646811044923
20
-62.284933114127625
30
0
10
26.63317185580404
20
-62.391309050000032
30
0
10
26.404458426035159
20
-62.734466398632819
30
0
10
26.175396180348312
20
-63.047502846793648
30
0
0
SPLINE
5
270
100
AcDbEntity
8
0
100
AcDbSpline
70
4
71
3
72
8
73
4
74
0
42
0.000000001
43
0.0000000001
44
0.0000000001
40
0
40
0
40
0
40
0
40
1
40
1
40
1
40
1
41
1
41
1
41
1
41
1
10
26.175396180348312
20
-63.047502846793648
30
0
10
25.946333934661467
20
-63.360545754508486
30
0
10
25.538193472421877
20
-64.012592517610685
30
0
10
25.268416657643233
20
-64.496490629589857
30
0
0
SPLINE
5
271
100
AcDbEntity
8
0
100
AcDbSpline
70
4
71
3
72
8
73
4
74
0
42
0.000000001
43
0.0000000001
44
0.0000000001
40
0
40
0
40
0
40
0
40
1
40
1
40
1
40
1
41
1
41
1
41
1
41
1
10
25.268416657643233
20
-64.496490629589857
30
0
10
24.579133795297853
20
-65.73286219127607
30
0
10
24.307370667652997
20
-66.14304387259115
30
0
10
23.955266836679691
20
-66.478494973258478
30
0
0
SPLINE
5
272
100
AcDbEntity
8
0
100
AcDbSpline
70
4
71
3
72
8
73
4
74
0
42
0.000000001
43
0.0000000001
44
0.0000000001
40
0
40
0
40
0
40
0
40
1
40
1
40
1
40
1
41
1
41
1
41
1
41
1
10
23.955266836679691
20
-66.478494973258478
30
0
10
23.359272853728843
20
-67.046296232617209
30
0
10
22.894637131886398
20
-67.088522337353538
30
0
10
22.034637945688477
20
-66.653032123323584
30
0
0
SPLINE
5
273
100
AcDbEntity
8
0
100
AcDbSpline
70
4
71
3
72
8
73
4
74
0
42
0.000000001
43
0.0000000001
44
0.0000000001
40
0
40
0
40
0
40
0
40
1
40
1
40
1
40
1
41
1
41
1
41
1
41
1
10
22.034637945688477
20
-66.653032123323584
30
0
10
21.75191295484375
20
-66.509862567659511
30
0
10
21.234641556935223
20
-66.228897805289719
30
0
10
20.885150615569664
20
-66.028664549267589
30
0
0
SPLINE
5
274
100
AcDbEntity
8
0
100
AcDbSpline
70
4
71
3
72
8
73
4
74
0
42
0.000000001
43
0.0000000001
44
0.0000000001
40
0
40
0
40
0
40
0
40
1
40
1
40
1
40
1
41
1
41
1
41
1
41
1
10
20.885150615569664
20
-66.028664549267589
30
0
10
20.535651599761557
20
-65.828437752799488
30
0
10
20.237696595387369
20
-65.676618854280605
30
0
10
20.223022103505048
20
-65.691294961051454
30
0
0
SPLINE
5
275
100
AcDbEntity
8
0
100
AcDbSpline
70
4
71
3
72
8
73
4
74
0
42
0.000000001
43
0.0000000001
44
0.0000000001
40
0
40
0
40
0
40
0
40
1
40
1
40
1
40
1
41
1
41
1
41
1
41
1
10
20.223022103505048
20
-65.691294961051454
30
0
10
20.181690647002771
20
-65.732623187776696
30
0
10
20.616765834685875
20
-67.153563586946618
30
0
10
20.940951473113607
20
-68.036003263867201
30
0
0
SPLINE
5
276
100
AcDbEntity
8
0
100
AcDbSpline
70
4
71
3
72
8
73
4
74
0
42
0.000000001
43
0.0000000001
44
0.0000000001
40
0
40
0
40
0
40
0
40
1
40
1
40
1
40
1
41
1
41
1
41
1
41
1
10
20.940951473113607
20
-68.036003263867201
30
0
10
21.541628632740888
20
-69.67105204112957
30
0
10
22.195403326547854
20
-70.923165536002614
30
0
10
22.783691061533204
20
-71.565219369010421
30
0
0
SPLINE
5
277
100
AcDbEntity
8
0
100
AcDbSpline
70
4
71
3
72
8
73
4
74
0
42
0.000000001
43
0.0000000001
44
0.0000000001
40
0
40
0
40
0
40
0
40
1
40
1
40
1
40
1
41
1
41
1
41
1
41
1
10
22.783691061533204
20
-71.565219369010421
30
0
10
23.376251791513674
20
-72.211930540478519
30
0
10
23.800844737884116
20
-72.343091785188818
30
0
10
24.25499983330241
20
-72.019700671907557
30
0
0
LINE
5
278
100
AcDbEntity
8
0
100
AcDbLine
10
24.25499983330241
20
-72.019700671907543
30
0
11
24.254983684417319
21
-72.019700671907557
31
0
0
SPLINE
5
279
100
AcDbEntity
8
0
100
AcDbSpline
70
4
71
3
72
8
73
4
74
0
42
0.000000001
43
0.0000000001
44
0.0000000001
40
0
40
0
40
0
40
0
40
1
40
1
40
1
40
1
41
1
41
1
41
1
41
1
10
35.776199046966148
20
-61.169516701774107
30
0
10
35.549668946461594
20
-61.015585529085293
30
0
10
35.36079804598959
20
-60.75042083588869
30
0
10
35.139458197153324
20
-60.27555964000652
30
0
0
SPLINE
5
280
100
AcDbEntity
8
0
100
AcDbSpline
70
4
71
3
72
8
73
4
74
0
42
0.000000001
43
0.0000000001
44
0.0000000001
40
0
40
0
40
0
40
0
40
1
40
1
40
1
40
1
41
1
41
1
41
1
41
1
10
35.139458197153324
20
-60.27555964000652
30
0
10
34.983162827687181
20
-59.940237730419952
30
0
10
34.978201890187179
20
-59.910342914339203
30
0
10
35.050232377247724
20
-59.737956795768241
30
0
0
SPLINE
5
281
100
AcDbEntity
8
0
100
AcDbSpline
70
4
71
3
72
8
73
4
74
0
42
0.000000001
43
0.0000000001
44
0.0000000001
40
0
40
0
40
0
40
0
40
1
40
1
40
1
40
1
41
1
41
1
41
1
41
1
10
35.050232377247724
20
-59.737956795768241
30
0
10
35.215642177459316
20
-59.342070107535818
30
0
10
35.653890621062828
20
-59.205056506868502
30
0
10
36.023709778981122
20
-59.433621366894549
30
0
0
SPLINE
5
282
100
AcDbEntity
8
0
100
AcDbSpline
70
4
71
3
72
8
73
4
74
0
42
0.000000001
43
0.0000000001
44
0.0000000001
40
0
40
0
40
0
40
0
40
1
40
1
40
1
40
1
41
1
41
1
41
1
41
1
10
36.023709778981122
20
-59.433621366894549
30
0
10
36.368410961028651
20
-59.646657459016943
30
0
10
36.602556875742195
20
-60.387516630566438
30
0
10
36.474951615528973
20
-60.861395974235037
30
0
0
SPLINE
5
283
100
AcDbEntity
8
0
100
AcDbSpline
70
4
71
3
72
8
73
4
74
0
42
0.000000001
43
0.0000000001
44
0.0000000001
40
0
40
0
40
0
40
0
40
1
40
1
40
1
40
1
41
1
41
1
41
1
41
1
10
36.474951615528973
20
-60.861395974235037
30
0
10
36.358408341603194
20
-61.294211932893887
30
0
10
36.116611085133464
20
-61.400833331819669
30
0
10
35.776199046966148
20
-61.169516701774107
30
0
0
SPLINE
5
284
100
AcDbEntity
8
0
100
AcDbSpline
70
4
71
3
72
8
73
4
74
0
42
0.000000001
43
0.0000000001
44
0.0000000001
40
0
40
0
40
0
40
0
40
1
40
1
40
1
40
1
41
1
41
1
41
1
41
1
10
33.879832240935876
20
-57.772895862337251
30
0
10
33.75893845736654
20
-57.744331714388046
30
0
10
33.572053869760751
20
-57.643788755810554
30
0
10
33.464534592823895
20
-57.549459888216177
30
0
0
SPLINE
5
285
100
AcDbEntity
8
0
100
AcDbSpline
70
4
71
3
72
8
73
4
74
0
42
0.000000001
43
0.0000000001
44
0.0000000001
40
0
40
0
40
0
40
0
40
1
40
1
40
1
40
1
41
1
41
1
41
1
41
1
10
33.464534592823895
20
-57.549459888216177
30
0
10
33.30180873731446
20
-57.406697284456392
30
0
10
33.259169221119798
20
-57.323659717317739
30
0
10
33.2100927593278
20
-57.053992714957715
30
0
0
SPLINE
5
286
100
AcDbEntity
8
0
100
AcDbSpline
70
4
71
3
72
8
73
4
74
0
42
0.000000001
43
0.0000000001
44
0.0000000001
40
0
40
0
40
0
40
0
40
1
40
1
40
1
40
1
41
1
41
1
41
1
41
1
10
33.2100927593278
20
-57.053992714957715
30
0
10
33.142086574431971
20
-56.680313973502621
30
0
10
33.18050800184082
20
-56.398496550000026
30
0
10
33.323519298430995
20
-56.221995695507836
30
0
0
SPLINE
5
287
100
AcDbEntity
8
0
100
AcDbSpline
70
4
71
3
72
8
73
4
74
0
42
0.000000001
43
0.0000000001
44
0.0000000001
40
0
40
0
40
0
40
0
40
1
40
1
40
1
40
1
41
1
41
1
41
1
41
1
10
33.323519298430995
20
-56.221995695507836
30
0
10
33.472592886484378
20
-56.038014677441417
30
0
10
33.844873134490562
20
-56.057987618522141
30
0
10
34.308236324187831
20
-56.274821928417978
30
0
0
SPLINE
5
288
100
AcDbEntity
8
0
100
AcDbSpline
70
4
71
3
72
8
73
4
74
0
42
0.000000001
43
0.0000000001
44
0.0000000001
40
0
40
0
40
0
40
0
40
1
40
1
40
1
40
1
41
1
41
1
41
1
41
1
10
34.308236324187831
20
-56.274821928417978
30
0
10
35.133092306650397
20
-56.660819039420581
30
0
10
35.442369294361981
20
-57.123898008740248
30
0
10
35.112802847421875
20
-57.479509377555345
30
0
0
SPLINE
5
289
100
AcDbEntity
8
0
100
AcDbSpline
70
4
71
3
72
8
73
4
74
0
42
0.000000001
43
0.0000000001
44
0.0000000001
40
0
40
0
40
0
40
0
40
1
40
1
40
1
40
1
41
1
41
1
41
1
41
1
10
35.112802847421875
20
-57.479509377555345
30
0
10
34.86459771334799
20
-57.747328947460943
30
0
10
34.320066997405604
20
-57.876894682324227
30
0
10
33.879832240935876
20
-57.772895862337251
30
0
0
SPLINE
5
290
100
AcDbEntity
8
0
100
AcDbSpline
70
4
71
3
72
8
73
4
74
0
42
0.000000001
43
0.0000000001
44
0.0000000001
40
0
40
0
40
0
40
0
40
1
40
1
40
1
40
1
41
1
41
1
41
1
41
1
10
33.12508179843099
20
-55.182608234163418
30
0
10
32.991301204558923
20
-55.128819527701829
30
0
10
32.836959850188805
20
-54.718224434928402
30
0
10
32.779544104135745
20
-54.263355558789073
30
0
0
SPLINE
5
291
100
AcDbEntity
8
0
100
AcDbSpline
70
4
71
3
72
8
73
4
74
0
42
0.000000001
43
0.0000000001
44
0.0000000001
40
0
40
0
40
0
40
0
40
1
40
1
40
1
40
1
41
1
41
1
41
1
41
1
10
32.779544104135745
20
-54.263355558789073
30
0
10
32.721579295989585
20
-53.804126483675141
30
0
10
32.722244630055343
20
-53.79893946178386
30
0
10
32.875642889536138
20
-53.517102659619162
30
0
0
SPLINE
5
292
100
AcDbEntity
8
0
100
AcDbSpline
70
4
71
3
72
8
73
4
74
0
42
0.000000001
43
0.0000000001
44
0.0000000001
40
0
40
0
40
0
40
0
40
1
40
1
40
1
40
1
41
1
41
1
41
1
41
1
10
32.875642889536138
20
-53.517102659619162
30
0
10
33.114097326791992
20
-53.078983407096359
30
0
10
33.791759451425783
20
-52.605601449088546
30
0
10
34.180498643116863
20
-52.605601449088546
30
0
0
SPLINE
5
293
100
AcDbEntity
8
0
100
AcDbSpline
70
4
71
3
72
8
73
4
74
0
42
0.000000001
43
0.0000000001
44
0.0000000001
40
0
40
0
40
0
40
0
40
1
40
1
40
1
40
1
41
1
41
1
41
1
41
1
10
34.180498643116863
20
-52.605601449088546
30
0
10
34.607019766367188
20
-52.605601449088546
30
0
10
34.872814266082358
20
-52.976534880078141
30
0
10
34.872814266082358
20
-53.571776324983738
30
0
0
SPLINE
5
294
100
AcDbEntity
8
0
100
AcDbSpline
70
4
71
3
72
8
73
4
74
0
42
0.000000001
43
0.0000000001
44
0.0000000001
40
0
40
0
40
0
40
0
40
1
40
1
40
1
40
1
41
1
41
1
41
1
41
1
10
34.872814266082358
20
-53.571776324983738
30
0
10
34.872814266082358
20
-54.084354856884786
30
0
10
34.706151312387696
20
-54.383742267366557
30
0
10
34.215005580779625
20
-54.753409625764995
30
0
0
SPLINE
5
295
100
AcDbEntity
8
0
100
AcDbSpline
70
4
71
3
72
8
73
4
74
0
42
0.000000001
43
0.0000000001
44
0.0000000001
40
0
40
0
40
0
40
0
40
1
40
1
40
1
40
1
41
1
41
1
41
1
41
1
10
34.215005580779625
20
-54.753409625764995
30
0
10
33.632214926279303
20
-55.192045642610701
30
0
10
33.387882294850264
20
-55.288267159537767
30
0
10
33.12508179843099
20
-55.182608234163418
30
0
0
SPLINE
5
296
100
AcDbEntity
8
0
100
AcDbSpline
70
4
71
3
72
8
73
4
74
0
42
0.000000001
43
0.0000000001
44
0.0000000001
40
0
40
0
40
0
40
0
40
1
40
1
40
1
40
1
41
1
41
1
41
1
41
1
10
37.335926194386396
20
-50.895428058382173
30
0
10
36.633388327158215
20
-50.804219155387393
30
0
10
36.129113551971031
20
-50.583696440136734
30
0
10
36.068216106292319
20
-50.341056211865265
30
0
0
SPLINE
5
297
100
AcDbEntity
8
0
100
AcDbSpline
70
4
71
3
72
8
73
4
74
0
42
0.000000001
43
0.0000000001
44
0.0000000001
40
0
40
0
40
0
40
0
40
1
40
1
40
1
40
1
41
1
41
1
41
1
41
1
10
36.068216106292319
20
-50.341056211865265
30
0
10
36.015586889780273
20
-50.131379087841808
30
0
10
36.074100760019533
20
-49.988597105419927
30
0
10
36.37610106010905
20
-49.589655048128272
30
0
0
SPLINE
5
298
100
AcDbEntity
8
0
100
AcDbSpline
70
4
71
3
72
8
73
4
74
0
42
0.000000001
43
0.0000000001
44
0.0000000001
40
0
40
0
40
0
40
0
40
1
40
1
40
1
40
1
41
1
41
1
41
1
41
1
10
36.37610106010905
20
-49.589655048128272
30
0
10
37.122218308644207
20
-48.604056293245463
30
0
10
37.666229030486654
20
-48.340416054801452
30
0
10
37.959331294890951
20
-48.822382760123702
30
0
0
SPLINE
5
299
100
AcDbEntity
8
0
100
AcDbSpline
70
4
71
3
72
8
73
4
74
0
42
0.000000001
43
0.0000000001
44
0.0000000001
40
0
40
0
40
0
40
0
40
1
40
1
40
1
40
1
41
1
41
1
41
1
41
1
10
37.959331294890951
20
-48.822382760123702
30
0
10
38.014615388111984
20
-48.913294523632835
30
0
10
38.089242615895188
20
-49.135845538850916
30
0
10
38.125167425668948
20
-49.316945595817074
30
0
0
SPLINE
5
300
100
AcDbEntity
8
0
100
AcDbSpline
70
4
71
3
72
8
73
4
74
0
42
0.000000001
43
0.0000000001
44
0.0000000001
40
0
40
0
40
0
40
0
40
1
40
1
40
1
40
1
41
1
41
1
41
1
41
1
10
38.125167425668948
20
-49.316945595817074
30
0
10
38.19591246147624
20
-49.673577574169926
30
0
10
38.218517670826827
20
-50.791887866731784
30
0
10
38.156996878183598
20
-50.89142959443361
30
0
0
SPLINE
5
301
100
AcDbEntity
8
0
100
AcDbSpline
70
4
71
3
72
8
73
4
74
0
42
0.000000001
43
0.0000000001
44
0.0000000001
40
0
40
0
40
0
40
0
40
1
40
1
40
1
40
1
41
1
41
1
41
1
41
1
10
38.156996878183598
20
-50.89142959443361
30
0
10
38.114854747649744
20
-50.959616646842463
30
0
10
37.840620840585942
20
-50.960953774528015
30
0
10
37.335926194386396
20
-50.895453896598326
30
0
0
LINE
5
302
100
AcDbEntity
8
0
100
AcDbLine
10
37.335926194386396
20
-50.895453896598326
30
0
11
37.335926194386396
21
-50.895428058382173
31
0
0
SPLINE
5
303
100
AcDbEntity
8
0
100
AcDbSpline
70
4
71
3
72
8
73
4
74
0
42
0.000000001
43
0.0000000001
44
0.0000000001
40
0
40
0
40
0
40
0
40
1
40
1
40
1
40
1
41
1
41
1
41
1
41
1
10
19.595964125192872
20
-50.723623299674486
30
0
10
19.186140949126795
20
-50.527911731477886
30
0
10
18.778081231312665
20
-50.047004393017588
30
0
10
18.415852049387208
20
-49.332810260530607
30
0
0
LINE
5
304
100
AcDbEntity
8
0
100
AcDbLine
10
18.415852049387208
20
-49.332810260530607
30
0
11
18.106005006031904
21
-48.721891477978545
31
0
0
LINE
5
305
100
AcDbEntity
8
0
100
AcDbLine
10
18.106005006031904
20
-48.721891477978545
30
0
11
17.683262721892909
21
-48.660080005403657
31
0
0
SPLINE
5
306
100
AcDbEntity
8
0
100
AcDbSpline
70
4
71
3
72
8
73
4
74
0
42
0.000000001
43
0.0000000001
44
0.0000000001
40
0
40
0
40
0
40
0
40
1
40
1
40
1
40
1
41
1
41
1
41
1
41
1
10
17.683262721892909
20
-48.66008000540365
30
0
10
16.369689800139973
20
-48.468011625683616
30
0
10
15.718605510589194
20
-47.837126361604831
30
0
10
15.963739126718757
20
-46.993909096793629
30
0
0
SPLINE
5
307
100
AcDbEntity
8
0
100
AcDbSpline
70
4
71
3
72
8
73
4
74
0
42
0.000000001
43
0.0000000001
44
0.0000000001
40
0
40
0
40
0
40
0
40
1
40
1
40
1
40
1
41
1
41
1
41
1
41
1
10
15.963739126718757
20
-46.993909096793629
30
0
10
16.060751939015301
20
-46.66018269705404
30
0
10
16.263819324370932
20
-46.444485268668629
30
0
10
17.19645781059733
20
-45.684531655387374
30
0
0
SPLINE
5
308
100
AcDbEntity
8
0
100
AcDbSpline
70
4
71
3
72
8
73
4
74
0
42
0.000000001
43
0.0000000001
44
0.0000000001
40
0
40
0
40
0
40
0
40
1
40
1
40
1
40
1
41
1
41
1
41
1
41
1
10
17.19645781059733
20
-45.684531655387374
30
0
10
17.519059243397624
20
-45.421660103873705
30
0
10
18.109024847543946
20
-44.885775501009128
30
0
10
18.507485668059896
20
-44.493674111442061
30
0
0
SPLINE
5
309
100
AcDbEntity
8
0
100
AcDbSpline
70
4
71
3
72
8
73
4
74
0
42
0.000000001
43
0.0000000001
44
0.0000000001
40
0
40
0
40
0
40
0
40
1
40
1
40
1
40
1
41
1
41
1
41
1
41
1
10
18.507485668059896
20
-44.493674111442061
30
0
10
19.155566264983726
20
-43.855941720084644
30
0
10
19.255242028431809
20
-43.732964730338551
30
0
10
19.452637925343424
20
-43.327524361686201
30
0
0
SPLINE
5
310
100
AcDbEntity
8
0
100
AcDbSpline
70
4
71
3
72
8
73
4
74
0
42
0.000000001
43
0.0000000001
44
0.0000000001
40
0
40
0
40
0
40
0
40
1
40
1
40
1
40
1
41
1
41
1
41
1
41
1
10
19.452637925343424
20
-43.327524361686201
30
0
10
20.069291176991374
20
-42.060967303987638
30
0
10
20.745840643442385
20
-39.259852751171884
30
0
10
22.395465404388023
20
-31.143368198152679
30
0
0
SPLINE
5
311
100
AcDbEntity
8
0
100
AcDbSpline
70
4
71
3
72
8
73
4
74
0
42
0.000000001
43
0.0000000001
44
0.0000000001
40
0
40
0
40
0
40
0
40
1
40
1
40
1
40
1
41
1
41
1
41
1
41
1
10
22.395465404388023
20
-31.143368198152679
30
0
10
22.604086391326497
20
-30.116912763989262
30
0
10
22.798134624358724
20
-29.217100116487636
30
0
10
22.82667939364584
20
-29.14378094839682
30
0
0
SPLINE
5
312
100
AcDbEntity
8
0
100
AcDbSpline
70
4
71
3
72
8
73
4
74
0
42
0.000000001
43
0.0000000001
44
0.0000000001
40
0
40
0
40
0
40
0
40
1
40
1
40
1
40
1
41
1
41
1
41
1
41
1
10
22.82667939364584
20
-29.14378094839682
30
0
10
22.855227392709963
20
-29.070461780305994
30
0
10
23.034560761647139
20
-28.878503213004567
30
0
10
23.225198350148112
20
-28.71720168916017
30
0
0
SPLINE
5
313
100
AcDbEntity
8
0
100
AcDbSpline
70
4
71
3
72
8
73
4
74
0
42
0.000000001
43
0.0000000001
44
0.0000000001
40
0
40
0
40
0
40
0
40
1
40
1
40
1
40
1
41
1
41
1
41
1
41
1
10
23.225198350148112
20
-28.71720168916017
30
0
10
24.072520661549479
20
-28.000278395092781
30
0
10
24.562946152882489
20
-28.00001355337729
30
0
10
24.661480190154634
20
-28.716355487581389
30
0
0
SPLINE
5
314
100
AcDbEntity
8
0
100
AcDbSpline
70
4
71
3
72
8
73
4
74
0
42
0.000000001
43
0.0000000001
44
0.0000000001
40
0
40
0
40
0
40
0
40
1
40
1
40
1
40
1
41
1
41
1
41
1
41
1
10
24.661480190154634
20
-28.716355487581389
30
0
10
24.762078054941412
20
-29.447780480460615
30
0
10
24.30555553296875
20
-31.31228230642904
30
0
10
22.792799032724609
20
-36.348344419873051
30
0
0
SPLINE
5
315
100
AcDbEntity
8
0
100
AcDbSpline
70
4
71
3
72
8
73
4
74
0
42
0.000000001
43
0.0000000001
44
0.0000000001
40
0
40
0
40
0
40
0
40
1
40
1
40
1
40
1
41
1
41
1
41
1
41
1
10
22.792799032724609
20
-36.348344419873051
30
0
10
21.926333832936198
20
-39.232845355745447
30
0
10
20.159702325062664
20
-44.827310077425146
30
0
10
20.051365914540202
20
-45.029739581819676
30
0
0
SPLINE
5
316
100
AcDbEntity
8
0
100
AcDbSpline
70
4
71
3
72
8
73
4
74
0
42
0.000000001
43
0.0000000001
44
0.0000000001
40
0
40
0
40
0
40
0
40
1
40
1
40
1
40
1
41
1
41
1
41
1
41
1
10
20.051365914540202
20
-45.029739581819676
30
0
10
20.024310072458498
20
-45.080292051708994
30
0
10
19.898778329090984
20
-45.152199807242852
30
0
10
19.772406843698732
20
-45.189536029573574
30
0
0
SPLINE
5
317
100
AcDbEntity
8
0
100
AcDbSpline
70
4
71
3
72
8
73
4
74
0
42
0.000000001
43
0.0000000001
44
0.0000000001
40
0
40
0
40
0
40
0
40
1
40
1
40
1
40
1
41
1
41
1
41
1
41
1
10
19.772406843698732
20
-45.189536029573574
30
0
10
18.931443963246256
20
-45.437976937369797
30
0
10
17.422855490244142
20
-46.172789966341156
30
0
10
17.080709061818034
20
-46.500625252799487
30
0
0
SPLINE
5
318
100
AcDbEntity
8
0
100
AcDbSpline
70
4
71
3
72
8
73
4
74
0
42
0.000000001
43
0.0000000001
44
0.0000000001
40
0
40
0
40
0
40
0
40
1
40
1
40
1
40
1
41
1
41
1
41
1
41
1
10
17.080709061818034
20
-46.500625252799487
30
0
10
16.798520213958334
20
-46.771009265657561
30
0
10
16.779603409962569
20
-46.938105009472665
30
0
10
17.009297077056477
20
-47.131381325797534
30
0
0
SPLINE
5
319
100
AcDbEntity
8
0
100
AcDbSpline
70
4
71
3
72
8
73
4
74
0
42
0.000000001
43
0.0000000001
44
0.0000000001
40
0
40
0
40
0
40
0
40
1
40
1
40
1
40
1
41
1
41
1
41
1
41
1
10
17.009297077056477
20
-47.131381325797534
30
0
10
17.254204608794758
20
-47.33745401866863
30
0
10
17.64808560549886
20
-47.397224272167975
30
0
10
18.293298160430503
20
-47.326227313753265
30
0
0
SPLINE
5
320
100
AcDbEntity
8
0
100
AcDbSpline
70
4
71
3
72
8
73
4
74
0
42
0.000000001
43
0.0000000001
44
0.0000000001
40
0
40
0
40
0
40
0
40
1
40
1
40
1
40
1
41
1
41
1
41
1
41
1
10
18.293298160430503
20
-47.326227313753265
30
0
10
19.276812094248047
20
-47.218003945426439
30
0
10
19.452565255360518
20
-47.319179940299485
30
0
10
19.517535449859214
20
-48.030996956901049
30
0
0
SPLINE
5
321
100
AcDbEntity
8
0
100
AcDbSpline
70
4
71
3
72
8
73
4
74
0
42
0.000000001
43
0.0000000001
44
0.0000000001
40
0
40
0
40
0
40
0
40
1
40
1
40
1
40
1
41
1
41
1
41
1
41
1
10
19.517535449859214
20
-48.030996956901049
30
0
10
19.590410523610029
20
-48.829333240266948
30
0
10
19.754864309824221
20
-49.192922158317067
30
0
10
20.043097685373535
20
-49.192922158317067
30
0
0
SPLINE
5
322
100
AcDbEntity
8
0
100
AcDbSpline
70
4
71
3
72
8
73
4
74
0
42
0.000000001
43
0.0000000001
44
0.0000000001
40
0
40
0
40
0
40
0
40
1
40
1
40
1
40
1
41
1
41
1
41
1
41
1
10
20.043097685373535
20
-49.192922158317067
30
0
10
20.372790093617358
20
-49.192922158317067
30
0
10
20.662888665394696
20
-48.67996897228192
30
0
10
20.985096065398764
20
-47.52728093313803
30
0
0
SPLINE
5
323
100
AcDbEntity
8
0
100
AcDbSpline
70
4
71
3
72
8
73
4
74
0
42
0.000000001
43
0.0000000001
44
0.0000000001
40
0
40
0
40
0
40
0
40
1
40
1
40
1
40
1
41
1
41
1
41
1
41
1
10
20.985096065398764
20
-47.52728093313803
30
0
10
21.133917730844729
20
-46.994878029899098
30
0
10
21.324917054371749
20
-46.614571786002614
30
0
10
21.487074469125979
20
-46.527787677522802
30
0
0
SPLINE
5
324
100
AcDbEntity
8
0
100
AcDbSpline
70
4
71
3
72
8
73
4
74
0
42
0.000000001
43
0.0000000001
44
0.0000000001
40
0
40
0
40
0
40
0
40
1
40
1
40
1
40
1
41
1
41
1
41
1
41
1
10
21.487074469125979
20
-46.527787677522802
30
0
10
21.93227985242676
20
-46.289520567333994
30
0
10
22.556934876637374
20
-46.768444822705099
30
0
10
23.258103318409834
20
-47.88563115286459
30
0
0
SPLINE
5
325
100
AcDbEntity
8
0
100
AcDbSpline
70
4
71
3
72
8
73
4
74
0
42
0.000000001
43
0.0000000001
44
0.0000000001
40
0
40
0
40
0
40
0
40
1
40
1
40
1
40
1
41
1
41
1
41
1
41
1
10
23.258103318409834
20
-47.88563115286459
30
0
10
23.414146765268558
20
-48.134252928173851
30
0
10
23.575548412200522
20
-48.338148751334643
30
0
10
23.616770056284185
20
-48.33871719208986
30
0
0
SPLINE
5
326
100
AcDbEntity
8
0
100
AcDbSpline
70
4
71
3
72
8
73
4
74
0
42
0.000000001
43
0.0000000001
44
0.0000000001
40
0
40
0
40
0
40
0
40
1
40
1
40
1
40
1
41
1
41
1
41
1
41
1
10
23.616770056284185
20
-48.33871719208986
30
0
10
23.754000052011719
20
-48.34063567963868
30
0
10
24.036037100351564
20
-48.079004362500015
30
0
10
24.149570222096362
20
-47.844477334098315
30
0
0
SPLINE
5
327
100
AcDbEntity
8
0
100
AcDbSpline
70
4
71
3
72
8
73
4
74
0
42
0.000000001
43
0.0000000001
44
0.0000000001
40
0
40
0
40
0
40
0
40
1
40
1
40
1
40
1
41
1
41
1
41
1
41
1
10
24.149570222096362
20
-47.844477334098315
30
0
10
24.44509481926433
20
-47.234004260774746
30
0
10
24.188799093759776
20
-46.553929492708342
30
0
10
23.300368180470379
20
-45.591152342236335
30
0
0
SPLINE
5
328
100
AcDbEntity
8
0
100
AcDbSpline
70
4
71
3
72
8
73
4
74
0
42
0.000000001
43
0.0000000001
44
0.0000000001
40
0
40
0
40
0
40
0
40
1
40
1
40
1
40
1
41
1
41
1
41
1
41
1
10
23.300368180470379
20
-45.591152342236335
30
0
10
22.699232392506513
20
-44.939712777213565
30
0
10
22.497506979501956
20
-44.633303831494146
30
0
10
22.34135372022461
20
-44.134497068798836
30
0
0
SPLINE
5
329
100
AcDbEntity
8
0
100
AcDbSpline
70
4
71
3
72
8
73
4
74
0
42
0.000000001
43
0.0000000001
44
0.0000000001
40
0
40
0
40
0
40
0
40
1
40
1
40
1
40
1
41
1
41
1
41
1
41
1
10
22.34135372022461
20
-44.134497068798836
30
0
10
21.950922125375985
20
-42.887312213655605
30
0
10
22.308587632374675
20
-41.197699583447275
30
0
10
23.527176041798509
20
-38.532661995963551
30
0
0
SPLINE
5
330
100
AcDbEntity
8
0
100
AcDbSpline
70
4
71
3
72
8
73
4
74
0
42
0.000000001
43
0.0000000001
44
0.0000000001
40
0
40
0
40
0
40
0
40
1
40
1
40
1
40
1
41
1
41
1
41
1
41
1
10
23.527176041798509
20
-38.532661995963551
30
0
10
23.762907777027998
20
-38.017121758536788
30
0
10
24.071215831634127
20
-37.340774153149418
30
0
10
24.21230218112143
20
-37.029672341422533
30
0
0
SPLINE
5
331
100
AcDbEntity
8
0
100
AcDbSpline
70
4
71
3
72
8
73
4
74
0
42
0.000000001
43
0.0000000001
44
0.0000000001
40
0
40
0
40
0
40
0
40
1
40
1
40
1
40
1
41
1
41
1
41
1
41
1
10
24.21230218112143
20
-37.029672341422533
30
0
10
24.353388530608733
20
-36.718567299918625
30
0
10
24.519176214731448
20
-36.26682161815593
30
0
10
24.580716386036787
20
-36.02578981883952
30
0
0
SPLINE
5
332
100
AcDbEntity
8
0
100
AcDbSpline
70
4
71
3
72
8
73
4
74
0
42
0.000000001
43
0.0000000001
44
0.0000000001
40
0
40
0
40
0
40
0
40
1
40
1
40
1
40
1
41
1
41
1
41
1
41
1
10
24.580716386036787
20
-36.02578981883952
30
0
10
24.709335796233738
20
-35.522035037752282
30
0
10
24.995875153736982
20
-34.587899549877932
30
0
10
25.726722016529955
20
-32.289742023225919
30
0
0
SPLINE
5
333
100
AcDbEntity
8
0
100
AcDbSpline
70
4
71
3
72
8
73
4
74
0
42
0.000000001
43
0.0000000001
44
0.0000000001
40
0
40
0
40
0
40
0
40
1
40
1
40
1
40
1
41
1
41
1
41
1
41
1
10
25.726722016529955
20
-32.289742023225919
30
0
10
26.011181397633472
20
-31.395261737581386
30
0
10
26.297895163095717
20
-30.460486753857428
30
0
10
26.363866588470053
20
-30.212468946850599
30
0
0
SPLINE
5
334
100
AcDbEntity
8
0
100
AcDbSpline
70
4
71
3
72
8
73
4
74
0
42
0.000000001
43
0.0000000001
44
0.0000000001
40
0
40
0
40
0
40
0
40
1
40
1
40
1
40
1
41
1
41
1
41
1
41
1
10
26.363866588470053
20
-30.212468946850599
30
0
10
26.509697480397136
20
-29.664211068229172
30
0
10
26.617226446665043
20
-29.561339440421559
30
0
10
27.079436605966798
20
-29.527908018505865
30
0
0
SPLINE
5
335
100
AcDbEntity
8
0
100
AcDbSpline
70
4
71
3
72
8
73
4
74
0
42
0.000000001
43
0.0000000001
44
0.0000000001
40
0
40
0
40
0
40
0
40
1
40
1
40
1
40
1
41
1
41
1
41
1
41
1
10
27.079436605966798
20
-29.527908018505865
30
0
10
27.618011613087567
20
-29.488950448111986
30
0
10
28.033209138111985
20
-29.759476571158867
30
0
10
28.200162771738285
20
-30.258118615226248
30
0
0
SPLINE
5
336
100
AcDbEntity
8
0
100
AcDbSpline
70
4
71
3
72
8
73
4
74
0
42
0.000000001
43
0.0000000001
44
0.0000000001
40
0
40
0
40
0
40
0
40
1
40
1
40
1
40
1
41
1
41
1
41
1
41
1
10
28.200162771738285
20
-30.258118615226248
30
0
10
28.293118984099941
20
-30.535753477490246
30
0
10
28.272209407683921
20
-31.252780124422213
30
0
10
28.157164750294598
20
-31.73260225780437
30
0
0
SPLINE
5
337
100
AcDbEntity
8
0
100
AcDbSpline
70
4
71
3
72
8
73
4
74
0
42
0.000000001
43
0.0000000001
44
0.0000000001
40
0
40
0
40
0
40
0
40
1
40
1
40
1
40
1
41
1
41
1
41
1
41
1
10
28.157164750294598
20
-31.73260225780437
30
0
10
27.909844575123699
20
-32.764115522778326
30
0
10
27.143563828663741
20
-34.734838255322273
30
0
10
25.338476980722664
20
-38.981691435253921
30
0
0
SPLINE
5
338
100
AcDbEntity
8
0
100
AcDbSpline
70
4
71
3
72
8
73
4
74
0
42
0.000000001
43
0.0000000001
44
0.0000000001
40
0
40
0
40
0
40
0
40
1
40
1
40
1
40
1
41
1
41
1
41
1
41
1
10
25.338476980722664
20
-38.981691435253921
30
0
10
23.756945608652345
20
-42.702588346875004
30
0
10
23.420238124724936
20
-43.581048938509134
30
0
10
23.481713700489909
20
-43.825982308463551
30
0
0
SPLINE
5
339
100
AcDbEntity
8
0
100
AcDbSpline
70
4
71
3
72
8
73
4
74
0
42
0.000000001
43
0.0000000001
44
0.0000000001
40
0
40
0
40
0
40
0
40
1
40
1
40
1
40
1
41
1
41
1
41
1
41
1
10
23.481713700489909
20
-43.825982308463551
30
0
10
23.515768469370123
20
-43.961665240999352
30
0
10
23.732974203623055
20
-44.259515277620451
30
0
10
24.634666581349286
20
-45.407035673535169
30
0
0
SPLINE
5
340
100
AcDbEntity
8
0
100
AcDbSpline
70
4
71
3
72
8
73
4
74
0
42
0.000000001
43
0.0000000001
44
0.0000000001
40
0
40
0
40
0
40
0
40
1
40
1
40
1
40
1
41
1
41
1
41
1
41
1
10
24.634666581349286
20
-45.407035673535169
30
0
10
25.269786083098964
20
-46.21530675100913
30
0
10
25.548961549000655
20
-46.749014484163418
30
0
10
25.581194723642579
20
-47.21651824799806
30
0
0
LINE
5
341
100
AcDbEntity
8
0
100
AcDbLine
10
25.581194723642579
20
-47.21651824799806
30
0
11
25.605327617522793
21
-47.56659377900391
31
0
0
LINE
5
342
100
AcDbEntity
8
0
100
AcDbLine
10
25.605327617522793
20
-47.56659377900391
30
0
11
25.168516424692385
21
-48.286446480826832
31
0
0
SPLINE
5
343
100
AcDbEntity
8
0
100
AcDbSpline
70
4
71
3
72
8
73
4
74
0
42
0.000000001
43
0.0000000001
44
0.0000000001
40
0
40
0
40
0
40
0
40
1
40
1
40
1
40
1
41
1
41
1
41
1
41
1
10
25.168516424692385
20
-48.286446480826832
30
0
10
24.928269461191412
20
-48.682365466829438
30
0
10
24.639950496551108
20
-49.128585000113958
30
0
10
24.527809408701174
20
-49.278046161409534
30
0
0
SPLINE
5
344
100
AcDbEntity
8
0
100
AcDbSpline
70
4
71
3
72
8
73
4
74
0
42
0.000000001
43
0.0000000001
44
0.0000000001
40
0
40
0
40
0
40
0
40
1
40
1
40
1
40
1
41
1
41
1
41
1
41
1
10
24.527809408701174
20
-49.278046161409534
30
0
10
24.328619370655925
20
-49.543520913199899
30
0
10
24.051391460296227
20
-49.727321063753266
30
0
10
23.853700038787441
20
-49.72497624563804
30
0
0
SPLINE
5
345
100
AcDbEntity
8
0
100
AcDbSpline
70
4
71
3
72
8
73
4
74
0
42
0.000000001
43
0.0000000001
44
0.0000000001
40
0
40
0
40
0
40
0
40
1
40
1
40
1
40
1
41
1
41
1
41
1
41
1
10
23.853700038787441
20
-49.72497624563804
30
0
10
23.630041210052084
20
-49.722321368929059
30
0
10
23.262011348601888
20
-49.486670378125019
30
0
10
22.84342255770834
20
-49.078097125764984
30
0
0
LINE
5
346
100
AcDbEntity
8
0
100
AcDbLine
10
22.84342255770834
20
-49.078097125764984
30
0
11
22.399173188404951
21
-48.644473722851572
31
0
0
LINE
5
347
100
AcDbEntity
8
0
100
AcDbLine
10
22.399173188404951
20
-48.644473722851572
30
0
11
22.303969051238607
21
-48.820425515250676
31
0
0
SPLINE
5
348
100
AcDbEntity
8
0
100
AcDbSpline
70
4
71
3
72
8
73
4
74
0
42
0.000000001
43
0.0000000001
44
0.0000000001
40
0
40
0
40
0
40
0
40
1
40
1
40
1
40
1
41
1
41
1
41
1
41
1
10
22.303969051238607
20
-48.820425515250676
30
0
10
22.03897230644694
20
-49.31016952363283
30
0
10
21.562302435434578
20
-49.958321175651051
30
0
10
21.257291983164063
20
-50.243639677441436
30
0
0
SPLINE
5
349
100
AcDbEntity
8
0
100
AcDbSpline
70
4
71
3
72
8
73
4
74
0
42
0.000000001
43
0.0000000001
44
0.0000000001
40
0
40
0
40
0
40
0
40
1
40
1
40
1
40
1
41
1
41
1
41
1
41
1
10
21.257291983164063
20
-50.243639677441436
30
0
10
20.648430568572596
20
-50.81320439505209
30
0
10
20.109623017506518
20
-50.968853809114592
30
0
10
19.595972199635419
20
-50.723571623242201
30
0
0
LINE
5
350
100
AcDbEntity
8
0
100
AcDbLine
10
19.595972199635419
20
-50.723571623242201
30
0
11
19.595964125192872
21
-50.723623299674486
31
0
0
SPLINE
5
351
100
AcDbEntity
8
0
100
AcDbSpline
70
4
71
3
72
8
73
4
74
0
42
0.000000001
43
0.0000000001
44
0.0000000001
40
0
40
0
40
0
40
0
40
1
40
1
40
1
40
1
41
1
41
1
41
1
41
1
10
36.185366578297533
20
-43.406860604361988
30
0
10
35.7419601807959
20
-43.253362221793623
30
0
10
35.331226207610683
20
-42.68083256888022
30
0
10
35.038220836516928
20
-41.807836759960956
30
0
0
SPLINE
5
352
100
AcDbEntity
8
0
100
AcDbSpline
70
4
71
3
72
8
73
4
74
0
42
0.000000001
43
0.0000000001
44
0.0000000001
40
0
40
0
40
0
40
0
40
1
40
1
40
1
40
1
41
1
41
1
41
1
41
1
10
35.038220836516928
20
-41.807836759960956
30
0
10
34.827697510914717
20
-41.180581765250672
30
0
10
34.838397762176108
20
-41.167966256217454
30
0
10
35.581236787037767
20
-41.167966256217454
30
0
0
SPLINE
5
353
100
AcDbEntity
8
0
100
AcDbSpline
70
4
71
3
72
8
73
4
74
0
42
0.000000001
43
0.0000000001
44
0.0000000001
40
0
40
0
40
0
40
0
40
1
40
1
40
1
40
1
41
1
41
1
41
1
41
1
10
35.581236787037767
20
-41.167966256217454
30
0
10
36.108843471404626
20
-41.167966256217454
30
0
10
36.137565878427736
20
-41.174232023632833
30
0
10
36.499142645395509
20
-41.368096159375007
30
0
0
SPLINE
5
354
100
AcDbEntity
8
0
100
AcDbSpline
70
4
71
3
72
8
73
4
74
0
42
0.000000001
43
0.0000000001
44
0.0000000001
40
0
40
0
40
0
40
0
40
1
40
1
40
1
40
1
41
1
41
1
41
1
41
1
10
36.499142645395509
20
-41.368096159375007
30
0
10
37.73420614738933
20
-42.030297341422546
30
0
10
37.885288656748052
20
-42.827774504101576
30
0
10
36.872398286061198
20
-43.338311816927089
30
0
0
SPLINE
5
355
100
AcDbEntity
8
0
100
AcDbSpline
70
4
71
3
72
8
73
4
74
0
42
0.000000001
43
0.0000000001
44
0.0000000001
40
0
40
0
40
0
40
0
40
1
40
1
40
1
40
1
41
1
41
1
41
1
41
1
10
36.872398286061198
20
-43.338311816927089
30
0
10
36.623553656137702
20
-43.463736977653006
30
0
10
36.41093743502767
20
-43.484956612662764
30
0
10
36.185366578297533
20
-43.406860604361988
30
0
0
SPLINE
5
356
100
AcDbEntity
8
0
100
AcDbSpline
70
4
71
3
72
8
73
4
74
0
42
0.000000001
43
0.0000000001
44
0.0000000001
40
0
40
0
40
0
40
0
40
1
40
1
40
1
40
1
41
1
41
1
41
1
41
1
10
29.407272553639334
20
-19.35051243948568
30
0
10
28.316186051564131
20
-19.218895796215822
30
0
10
27.234640310800788
20
-18.959589918530277
30
0
10
25.835074575937504
20
-18.494053088899744
30
0
0
SPLINE
5
357
100
AcDbEntity
8
0
100
AcDbSpline
70
4
71
3
72
8
73
4
74
0
42
0.000000001
43
0.0000000001
44
0.0000000001
40
0
40
0
40
0
40
0
40
1
40
1
40
1
40
1
41
1
41
1
41
1
41
1
10
25.835074575937504
20
-18.494053088899744
30
0
10
24.596384034352216
20
-18.082027204907231
30
0
10
24.451344437794607
20
-17.982540383414715
30
0
10
24.050073711272795
20
-17.269663999951174
30
0
0
SPLINE
5
358
100
AcDbEntity
8
0
100
AcDbSpline
70
4
71
3
72
8
73
4
74
0
42
0.000000001
43
0.0000000001
44
0.0000000001
40
0
40
0
40
0
40
0
40
1
40
1
40
1
40
1
41
1
41
1
41
1
41
1
10
24.050073711272795
20
-17.269663999951174
30
0
10
23.921073187387698
20
-17.040488712068687
30
0
10
23.710401292042643
20
-16.69346209056804
30
0
10
23.581917532480471
20
-16.498499830639652
30
0
0
SPLINE
5
359
100
AcDbEntity
8
0
100
AcDbSpline
70
4
71
3
72
8
73
4
74
0
42
0.000000001
43
0.0000000001
44
0.0000000001
40
0
40
0
40
0
40
0
40
1
40
1
40
1
40
1
41
1
41
1
41
1
41
1
10
23.581917532480471
20
-16.498499830639652
30
0
10
23.320438014861654
20
-16.101734643058272
30
0
10
23.324962932464196
20
-16.203721311962894
30
0
10
23.523519934213869
20
-15.181167448437503
30
0
0
SPLINE
5
360
100
AcDbEntity
8
0
100
AcDbSpline
70
4
71
3
72
8
73
4
74
0
42
0.000000001
43
0.0000000001
44
0.0000000001
40
0
40
0
40
0
40
0
40
1
40
1
40
1
40
1
41
1
41
1
41
1
41
1
10
23.523519934213869
20
-15.181167448437503
30
0
10
23.899104244109704
20
-13.246905668652346
30
0
10
24.787932419972343
20
-11.529339318351239
30
0
10
25.860308823780933
20
-10.665580671704102
30
0
0
SPLINE
5
361
100
AcDbEntity
8
0
100
AcDbSpline
70
4
71
3
72
8
73
4
74
0
42
0.000000001
43
0.0000000001
44
0.0000000001
40
0
40
0
40
0
40
0
40
1
40
1
40
1
40
1
41
1
41
1
41
1
41
1
10
25.860308823780933
20
-10.665580671704102
30
0
10
27.038499182260747
20
-9.716594669099937
30
0
10
28.310227112965496
20
-9.50222952373454
30
0
10
30.233772492604171
20
-9.9283840672932975
30
0
0
SPLINE
5
362
100
AcDbEntity
8
0
100
AcDbSpline
70
4
71
3
72
8
73
4
74
0
42
0.000000001
43
0.0000000001
44
0.0000000001
40
0
40
0
40
0
40
0
40
1
40
1
40
1
40
1
41
1
41
1
41
1
41
1
10
30.233772492604171
20
-9.9283840672932975
30
0
10
32.338062653736984
20
-10.394583001212567
30
0
10
33.862972804900721
20
-11.251119866446942
30
0
10
34.608883347706708
20
-12.385869724031577
30
0
0
SPLINE
5
363
100
AcDbEntity
8
0
100
AcDbSpline
70
4
71
3
72
8
73
4
74
0
42
0.000000001
43
0.0000000001
44
0.0000000001
40
0
40
0
40
0
40
0
40
1
40
1
40
1
40
1
41
1
41
1
41
1
41
1
10
34.608883347706708
20
-12.385869724031577
30
0
10
34.959879365162763
20
-12.919835839347336
30
0
10
35.090843593474936
20
-13.323629021720382
30
0
10
35.124672277963867
20
-13.97615702159831
30
0
0
SPLINE
5
364
100
AcDbEntity
8
0
100
AcDbSpline
70
4
71
3
72
8
73
4
74
0
42
0.000000001
43
0.0000000001
44
0.0000000001
40
0
40
0
40
0
40
0
40
1
40
1
40
1
40
1
41
1
41
1
41
1
41
1
10
35.124672277963867
20
-13.97615702159831
30
0
10
35.171432989633793
20
-14.878088402823897
30
0
10
34.915431173837902
20
-15.649410831209316
30
0
10
34.229487900929371
20
-16.673334120190432
30
0
0
SPLINE
5
365
100
AcDbEntity
8
0
100
AcDbSpline
70
4
71
3
72
8
73
4
74
0
42
0.000000001
43
0.0000000001
44
0.0000000001
40
0
40
0
40
0
40
0
40
1
40
1
40
1
40
1
41
1
41
1
41
1
41
1
10
34.229487900929371
20
-16.673334120190432
30
0
10
33.004010377125653
20
-18.502624917106122
30
0
10
32.295755804575201
20
-19.079563215649419
30
0
10
30.997663204070641
20
-19.305931827303063
30
0
0
SPLINE
5
366
100
AcDbEntity
8
0
100
AcDbSpline
70
4
71
3
72
8
73
4
74
0
42
0.000000001
43
0.0000000001
44
0.0000000001
40
0
40
0
40
0
40
0
40
1
40
1
40
1
40
1
41
1
41
1
41
1
41
1
10
30.997663204070641
20
-19.305931827303063
30
0
10
30.582200837330731
20
-19.37838218537598
30
0
10
29.816297974781904
20
-19.399850513216148
30
0
10
29.407272553639334
20
-19.35051243948568
30
0
0
SPLINE
5
367
100
AcDbEntity
8
0
100
AcDbSpline
70
4
71
3
72
8
73
4
74
0
42
0.000000001
43
0.0000000001
44
0.0000000001
40
0
40
0
40
0
40
0
40
1
40
1
40
1
40
1
41
1
41
1
41
1
41
1
10
31.502125306324874
20
-17.784238534049482
30
0
10
32.294938670989588
20
-17.655580366528323
30
0
10
32.773339702483725
20
-17.336404112255863
30
0
10
33.066784323251959
20
-16.740335844433595
30
0
0
SPLINE
5
368
100
AcDbEntity
8
0
100
AcDbSpline
70
4
71
3
72
8
73
4
74
0
42
0.000000001
43
0.0000000001
44
0.0000000001
40
0
40
0
40
0
40
0
40
1
40
1
40
1
40
1
41
1
41
1
41
1
41
1
10
33.066784323251959
20
-16.740335844433595
30
0
10
33.216797776417643
20
-16.435616072094732
30
0
10
33.240572165048832
20
-16.326614327506512
30
0
10
33.261972667571619
20
-15.845403390006513
30
0
0
SPLINE
5
369
100
AcDbEntity
8
0
100
AcDbSpline
70
4
71
3
72
8
73
4
74
0
42
0.000000001
43
0.0000000001
44
0.0000000001
40
0
40
0
40
0
40
0
40
1
40
1
40
1
40
1
41
1
41
1
41
1
41
1
10
33.261972667571619
20
-15.845403390006513
30
0
10
33.289622788624683
20
-15.223674543774417
30
0
10
33.204095063404949
20
-14.698348081982424
30
0
10
32.948545416391603
20
-13.920249581412767
30
0
0
SPLINE
5
370
100
AcDbEntity
8
0
100
AcDbSpline
70
4
71
3
72
8
73
4
74
0
42
0.000000001
43
0.0000000001
44
0.0000000001
40
0
40
0
40
0
40
0
40
1
40
1
40
1
40
1
41
1
41
1
41
1
41
1
10
32.948545416391603
20
-13.920249581412767
30
0
10
32.603941127654622
20
-12.871014529939782
30
0
10
31.786203573740242
20
-11.485104292309572
30
0
10
31.439506389495445
20
-11.362708662426762
30
0
0
SPLINE
5
371
100
AcDbEntity
8
0
100
AcDbSpline
70
4
71
3
72
8
73
4
74
0
42
0.000000001
43
0.0000000001
44
0.0000000001
40
0
40
0
40
0
40
0
40
1
40
1
40
1
40
1
41
1
41
1
41
1
41
1
10
31.439506389495445
20
-11.362708662426762
30
0
10
31.153470877207035
20
-11.261729683951824
30
0
10
31.142922425465507
20
-11.478709333813482
30
0
10
31.385165391163738
20
-12.48054417776693
30
0
0
SPLINE
5
372
100
AcDbEntity
8
0
100
AcDbSpline
70
4
71
3
72
8
73
4
74
0
42
0.000000001
43
0.0000000001
44
0.0000000001
40
0
40
0
40
0
40
0
40
1
40
1
40
1
40
1
41
1
41
1
41
1
41
1
10
31.385165391163738
20
-12.48054417776693
30
0
10
31.725254451629237
20
-13.887031324780281
30
0
10
31.556062582529307
20
-14.851946587638349
30
0
10
30.837211111582032
20
-15.605589216625981
30
0
0
SPLINE
5
373
100
AcDbEntity
8
0
100
AcDbSpline
70
4
71
3
72
8
73
4
74
0
42
0.000000001
43
0.0000000001
44
0.0000000001
40
0
40
0
40
0
40
0
40
1
40
1
40
1
40
1
41
1
41
1
41
1
41
1
10
30.837211111582032
20
-15.605589216625981
30
0
10
30.160117427703454
20
-16.315452218131512
30
0
10
29.094665665821946
20
-16.718237710074874
30
0
10
27.659230027394209
20
-16.807004901643882
30
0
0
SPLINE
5
374
100
AcDbEntity
8
0
100
AcDbSpline
70
4
71
3
72
8
73
4
74
0
42
0.000000001
43
0.0000000001
44
0.0000000001
40
0
40
0
40
0
40
0
40
1
40
1
40
1
40
1
41
1
41
1
41
1
41
1
10
27.659230027394209
20
-16.807004901643882
30
0
10
27.279747376637378
20
-16.830472461458335
30
0
10
27.090705297983408
20
-16.862460173046877
30
0
10
27.103185156381837
20
-16.901091535961918
30
0
0
SPLINE
5
375
100
AcDbEntity
8
0
100
AcDbSpline
70
4
71
3
72
8
73
4
74
0
42
0.000000001
43
0.0000000001
44
0.0000000001
40
0
40
0
40
0
40
0
40
1
40
1
40
1
40
1
41
1
41
1
41
1
41
1
10
27.103185156381837
20
-16.901091535961918
30
0
10
27.144293758269864
20
-17.028360899365236
30
0
10
28.857503139373382
20
-17.554307478344732
30
0
10
29.700545996225589
20
-17.69846534577637
30
0
0
SPLINE
5
376
100
AcDbEntity
8
0
100
AcDbSpline
70
4
71
3
72
8
73
4
74
0
42
0.000000001
43
0.0000000001
44
0.0000000001
40
0
40
0
40
0
40
0
40
1
40
1
40
1
40
1
41
1
41
1
41
1
41
1
10
29.700545996225589
20
-17.69846534577637
30
0
10
30.585117325978199
20
-17.849728722648116
30
0
10
30.982095678842775
20
-17.868626147981775
30
0
10
31.502125306324874
20
-17.784238534049482
30
0
0
SPLINE
5
377
100
AcDbEntity
8
0
100
AcDbSpline
70
4
71
3
72
8
73
4
74
0
42
0.000000001
43
0.0000000001
44
0.0000000001
40
0
40
0
40
0
40
0
40
1
40
1
40
1
40
1
41
1
41
1
41
1
41
1
10
4.6657029710180664
20
-66.476576485709643
30
0
10
5.1925433907873542
20
-66.225099587516283
30
0
10
6.0305647518204761
20
-65.566296130891942
30
0
10
7.2179050685929367
20
-64.470193785107426
30
0
0
SPLINE
5
378
100
AcDbEntity
8
0
100
AcDbSpline
70
4
71
3
72
8
73
4
74
0
42
0.000000001
43
0.0000000001
44
0.0000000001
40
0
40
0
40
0
40
0
40
1
40
1
40
1
40
1
41
1
41
1
41
1
41
1
10
7.2179050685929367
20
-64.470193785107426
30
0
10
8.5090035869645195
20
-63.27828979340822
30
0
10
11.141586760080568
20
-60.598123930371102
30
0
10
12.555684876637372
20
-59.035926003531927
30
0
0
SPLINE
5
379
100
AcDbEntity
8
0
100
AcDbSpline
70
4
71
3
72
8
73
4
74
0
42
0.000000001
43
0.0000000001
44
0.0000000001
40
0
40
0
40
0
40
0
40
1
40
1
40
1
40
1
41
1
41
1
41
1
41
1
10
12.555684876637372
20
-59.035926003531927
30
0
10
12.96246560275228
20
-58.586547748323596
30
0
10
12.976072653330082
20
-58.563312732454449
30
0
10
12.875615283843588
20
-58.489660897330751
30
0
0
SPLINE
5
380
100
AcDbEntity
8
0
100
AcDbSpline
70
4
71
3
72
8
73
4
74
0
42
0.000000001
43
0.0000000001
44
0.0000000001
40
0
40
0
40
0
40
0
40
1
40
1
40
1
40
1
41
1
41
1
41
1
41
1
10
12.875615283843588
20
-58.489660897330751
30
0
10
12.817913702524422
20
-58.447350818391939
30
0
10
12.378245771921392
20
-58.171308236197923
30
0
10
11.898577052947592
20
-57.876222888704447
30
0
0
SPLINE
5
381
100
AcDbEntity
8
0
100
AcDbSpline
70
4
71
3
72
8
73
4
74
0
42
0.000000001
43
0.0000000001
44
0.0000000001
40
0
40
0
40
0
40
0
40
1
40
1
40
1
40
1
41
1
41
1
41
1
41
1
10
11.898577052947592
20
-57.876222888704447
30
0
10
11.171039096709803
20
-57.428659768180346
30
0
10
11.015052170948895
20
-57.351726479606135
30
0
10
10.957705865101726
20
-57.412149148063172
30
0
0
SPLINE
5
382
100
AcDbEntity
8
0
100
AcDbSpline
70
4
71
3
72
8
73
4
74
0
42
0.000000001
43
0.0000000001
44
0.0000000001
40
0
40
0
40
0
40
0
40
1
40
1
40
1
40
1
41
1
41
1
41
1
41
1
10
10.957705865101726
20
-57.412149148063172
30
0
10
10.919894865549317
20
-57.451991677360041
30
0
10
10.498278158701176
20
-57.988489937858105
30
0
10
10.020776620106611
20
-58.60436319835614
30
0
0
SPLINE
5
383
100
AcDbEntity
8
0
100
AcDbSpline
70
4
71
3
72
8
73
4
74
0
42
0.000000001
43
0.0000000001
44
0.0000000001
40
0
40
0
40
0
40
0
40
1
40
1
40
1
40
1
41
1
41
1
41
1
41
1
10
10.020776620106611
20
-58.60436319835614
30
0
10
7.8156399013566089
20
-61.448511300162778
30
0
10
6.3298253935542812
20
-63.110095925406924
30
0
10
5.9916887332963062
20
-63.110095925406924
30
0
0
SPLINE
5
384
100
AcDbEntity
8
0
100
AcDbSpline
70
4
71
3
72
8
73
4
74
0
42
0.000000001
43
0.0000000001
44
0.0000000001
40
0
40
0
40
0
40
0
40
1
40
1
40
1
40
1
41
1
41
1
41
1
41
1
10
5.9916887332963062
20
-63.110095925406924
30
0
10
5.8395928813981124
20
-63.110095925406924
30
0
10
5.3153322460221366
20
-62.597885588085944
30
0
10
3.9617448093461105
20
-61.126806130485036
30
0
0
SPLINE
5
385
100
AcDbEntity
8
0
100
AcDbSpline
70
4
71
3
72
8
73
4
74
0
42
0.000000001
43
0.0000000001
44
0.0000000001
40
0
40
0
40
0
40
0
40
1
40
1
40
1
40
1
41
1
41
1
41
1
41
1
10
3.9617448093461105
20
-61.126806130485036
30
0
10
3.165961664713135
20
-60.261949359651723
30
0
10
2.3629357451167805
20
-59.416161192334016
30
0
10
2.1772469824519858
20
-59.247276152050787
30
0
0
SPLINE
5
386
100
AcDbEntity
8
0
100
AcDbSpline
70
4
71
3
72
8
73
4
74
0
42
0.000000001
43
0.0000000001
44
0.0000000001
40
0
40
0
40
0
40
0
40
1
40
1
40
1
40
1
41
1
41
1
41
1
41
1
10
2.1772469824519858
20
-59.247276152050787
30
0
10
1.4935088398026528
20
-58.625434263623077
30
0
10
1.1595240579016113
20
-58.480727334098326
30
0
10
1.0858173165686034
20
-58.774398039257818
30
0
0
SPLINE
5
387
100
AcDbEntity
8
0
100
AcDbSpline
70
4
71
3
72
8
73
4
74
0
42
0.000000001
43
0.0000000001
44
0.0000000001
40
0
40
0
40
0
40
0
40
1
40
1
40
1
40
1
41
1
41
1
41
1
41
1
10
1.0858173165686034
20
-58.774398039257818
30
0
10
0.99111783206136062
20
-59.151700590527355
30
0
10
1.47939794401001
20
-61.360390063997414
30
0
10
2.0077313282059732
20
-62.944576312776704
30
0
0
SPLINE
5
388
100
AcDbEntity
8
0
100
AcDbSpline
70
4
71
3
72
8
73
4
74
0
42
0.000000001
43
0.0000000001
44
0.0000000001
40
0
40
0
40
0
40
0
40
1
40
1
40
1
40
1
41
1
41
1
41
1
41
1
10
2.0077313282059732
20
-62.944576312776704
30
0
10
2.7775389911698407
20
-65.252839811718758
30
0
10
3.6064338097937014
20
-66.621160683707686
30
0
10
4.2391261341141764
20
-66.628111163850917
30
0
0
SPLINE
5
389
100
AcDbEntity
8
0
100
AcDbSpline
70
4
71
3
72
8
73
4
74
0
42
0.000000001
43
0.0000000001
44
0.0000000001
40
0
40
0
40
0
40
0
40
1
40
1
40
1
40
1
41
1
41
1
41
1
41
1
10
4.2391261341141764
20
-66.628111163850917
30
0
10
4.297778077320964
20
-66.628640847281915
30
0
10
4.4897398743994144
20
-66.56056360729167
30
0
10
4.6657029710180664
20
-66.476576485709643
30
0
0
SPLINE
5
390
100
AcDbEntity
8
0
100
AcDbSpline
70
4
71
3
72
8
73
4
74
0
42
0.000000001
43
0.0000000001
44
0.0000000001
40
0
40
0
40
0
40
0
40
1
40
1
40
1
40
1
41
1
41
1
41
1
41
1
10
52.652003592050789
20
-55.768780465201829
30
0
10
53.586662303802086
20
-55.537173155224622
30
0
10
54.015705882903653
20
-55.009763487255867
30
0
10
53.94868155022138
20
-54.174833830273457
30
0
0
SPLINE
5
391
100
AcDbEntity
8
0
100
AcDbSpline
70
4
71
3
72
8
73
4
74
0
42
0.000000001
43
0.0000000001
44
0.0000000001
40
0
40
0
40
0
40
0
40
1
40
1
40
1
40
1
41
1
41
1
41
1
41
1
10
53.94868155022138
20
-54.174833830273457
30
0
10
53.912831025319015
20
-53.728220264192714
30
0
10
53.581507579681009
20
-53.027287596142585
30
0
10
53.106090862151696
20
-52.392313434358755
30
0
0
SPLINE
5
392
100
AcDbEntity
8
0
100
AcDbSpline
70
4
71
3
72
8
73
4
74
0
42
0.000000001
43
0.0000000001
44
0.0000000001
40
0
40
0
40
0
40
0
40
1
40
1
40
1
40
1
41
1
41
1
41
1
41
1
10
53.106090862151696
20
-52.392313434358755
30
0
10
52.919448507822295
20
-52.143032784537766
30
0
10
52.291876994964213
20
-51.457473855094413
30
0
10
51.711479605234381
20
-50.868853453076177
30
0
0
SPLINE
5
393
100
AcDbEntity
8
0
100
AcDbSpline
70
4
71
3
72
8
73
4
74
0
42
0.000000001
43
0.0000000001
44
0.0000000001
40
0
40
0
40
0
40
0
40
1
40
1
40
1
40
1
41
1
41
1
41
1
41
1
10
51.711479605234381
20
-50.868853453076177
30
0
10
51.131088675058614
20
-50.280233051057948
30
0
10
50.656221019622407
20
-49.77033523408204
30
0
10
50.656221019622407
20
-49.735757241324876
30
0
0
SPLINE
5
394
100
AcDbEntity
8
0
100
AcDbSpline
70
4
71
3
72
8
73
4
74
0
42
0.000000001
43
0.0000000001
44
0.0000000001
40
0
40
0
40
0
40
0
40
1
40
1
40
1
40
1
41
1
41
1
41
1
41
1
10
50.656221019622407
20
-49.735757241324876
30
0
10
50.656221019622407
20
-49.644063871777355
30
0
10
50.751389629241544
20
-49.657028196728525
30
0
10
51.193436290618493
20
-49.808918150341803
30
0
0
SPLINE
5
395
100
AcDbEntity
8
0
100
AcDbSpline
70
4
71
3
72
8
73
4
74
0
42
0.000000001
43
0.0000000001
44
0.0000000001
40
0
40
0
40
0
40
0
40
1
40
1
40
1
40
1
41
1
41
1
41
1
41
1
10
51.193436290618493
20
-49.808918150341803
30
0
10
53.784098572926453
20
-50.699096372998056
30
0
10
55.556380575693368
20
-50.181149951692717
30
0
10
55.04591431796225
20
-48.683030800895189
30
0
0
SPLINE
5
396
100
AcDbEntity
8
0
100
AcDbSpline
70
4
71
3
72
8
73
4
74
0
42
0.000000001
43
0.0000000001
44
0.0000000001
40
0
40
0
40
0
40
0
40
1
40
1
40
1
40
1
41
1
41
1
41
1
41
1
10
55.04591431796225
20
-48.683030800895189
30
0
10
54.8724688325293
20
-48.173985645052113
30
0
10
54.160219025807308
20
-47.646621193961593
30
0
10
53.646161256031917
20
-47.646621193961593
30
0
0
SPLINE
5
397
100
AcDbEntity
8
0
100
AcDbSpline
70
4
71
3
72
8
73
4
74
0
42
0.000000001
43
0.0000000001
44
0.0000000001
40
0
40
0
40
0
40
0
40
1
40
1
40
1
40
1
41
1
41
1
41
1
41
1
10
53.646161256031917
20
-47.646621193961593
30
0
10
53.069781708912771
20
-47.646621193961593
30
0
10
52.00505341708336
20
-47.313030444856778
30
0
10
51.08280350863609
20
-46.843491921500657
30
0
0
SPLINE
5
398
100
AcDbEntity
8
0
100
AcDbSpline
70
4
71
3
72
8
73
4
74
0
42
0.000000001
43
0.0000000001
44
0.0000000001
40
0
40
0
40
0
40
0
40
1
40
1
40
1
40
1
41
1
41
1
41
1
41
1
10
51.08280350863609
20
-46.843491921500657
30
0
10
50.38061768710287
20
-46.485994362906908
30
0
10
49.306284038421246
20
-45.802547707633472
30
0
10
49.332303122080106
20
-45.729903562939462
30
0
0
SPLINE
5
399
100
AcDbEntity
8
0
100
AcDbSpline
70
4
71
3
72
8
73
4
74
0
42
0.000000001
43
0.0000000001
44
0.0000000001
40
0
40
0
40
0
40
0
40
1
40
1
40
1
40
1
41
1
41
1
41
1
41
1
10
49.332303122080106
20
-45.729903562939462
30
0
10
49.341934317148457
20
-45.703005979931646
30
0
10
50.585566417571641
20
-44.392078245556654
30
0
10
52.095919963714195
20
-42.816728666699227
30
0
0
SPLINE
5
400
100
AcDbEntity
8
0
100
AcDbSpline
70
4
71
3
72
8
73
4
74
0
42
0.000000001
43
0.0000000001
44
0.0000000001
40
0
40
0
40
0
40
0
40
1
40
1
40
1
40
1
41
1
41
1
41
1
41
1
10
52.095919963714195
20
-42.816728666699227
30
0
10
55.899118053313828
20
-38.849858396923835
30
0
10
56.065393433766282
20
-38.664029946402998
30
0
10
56.815399333831387
20
-37.542044167594412
30
0
0
SPLINE
5
401
100
AcDbEntity
8
0
100
AcDbSpline
70
4
71
3
72
8
73
4
74
0
42
0.000000001
43
0.0000000001
44
0.0000000001
40
0
40
0
40
0
40
0
40
1
40
1
40
1
40
1
41
1
41
1
41
1
41
1
10
56.815399333831387
20
-37.542044167594412
30
0
10
58.154051474130881
20
-35.539462914542653
30
0
10
58.373062653736987
20
-33.829163562532557
30
0
10
57.428294739918627
20
-32.755844063834644
30
0
0
SPLINE
5
402
100
AcDbEntity
8
0
100
AcDbSpline
70
4
71
3
72
8
73
4
74
0
42
0.000000001
43
0.0000000001
44
0.0000000001
40
0
40
0
40
0
40
0
40
1
40
1
40
1
40
1
41
1
41
1
41
1
41
1
10
57.428294739918627
20
-32.755844063834644
30
0
10
56.873257559335961
20
-32.125291466788745
30
0
10
55.897561300791025
20
-31.807600909944668
30
0
10
55.320761882659511
20
-32.069623030102541
30
0
0
SPLINE
5
403
100
AcDbEntity
8
0
100
AcDbSpline
70
4
71
3
72
8
73
4
74
0
42
0.000000001
43
0.0000000001
44
0.0000000001
40
0
40
0
40
0
40
0
40
1
40
1
40
1
40
1
41
1
41
1
41
1
41
1
10
55.320761882659511
20
-32.069623030102541
30
0
10
55.142426514820968
20
-32.150635527050788
30
0
10
55.052632254160166
20
-32.255855202750666
30
0
10
54.787538616057958
20
-32.694452462272139
30
0
0
SPLINE
5
404
100
AcDbEntity
8
0
100
AcDbSpline
70
4
71
3
72
8
73
4
74
0
42
0.000000001
43
0.0000000001
44
0.0000000001
40
0
40
0
40
0
40
0
40
1
40
1
40
1
40
1
41
1
41
1
41
1
41
1
10
54.787538616057958
20
-32.694452462272139
30
0
10
54.388887238697947
20
-33.354021376049808
30
0
10
53.564583548105489
20
-34.45128321178386
30
0
10
52.788209748463551
20
-35.355830712394209
30
0
0
SPLINE
5
405
100
AcDbEntity
8
0
100
AcDbSpline
70
4
71
3
72
8
73
4
74
0
42
0.000000001
43
0.0000000001
44
0.0000000001
40
0
40
0
40
0
40
0
40
1
40
1
40
1
40
1
41
1
41
1
41
1
41
1
10
52.788209748463551
20
-35.355830712394209
30
0
10
50.873526876962899
20
-37.586615090445967
30
0
10
47.169289155201845
20
-41.184851530468755
30
0
10
43.843694342172853
20
-44.044386289990243
30
0
0
SPLINE
5
406
100
AcDbEntity
8
0
100
AcDbSpline
70
4
71
3
72
8
73
4
74
0
42
0.000000001
43
0.0000000001
44
0.0000000001
40
0
40
0
40
0
40
0
40
1
40
1
40
1
40
1
41
1
41
1
41
1
41
1
10
43.843694342172853
20
-44.044386289990243
30
0
10
43.572748348113628
20
-44.277363025423185
30
0
10
43.351062913136396
20
-44.498912809765649
30
0
10
43.351062913136396
20
-44.536720579541026
30
0
0
SPLINE
5
407
100
AcDbEntity
8
0
100
AcDbSpline
70
4
71
3
72
8
73
4
74
0
42
0.000000001
43
0.0000000001
44
0.0000000001
40
0
40
0
40
0
40
0
40
1
40
1
40
1
40
1
41
1
41
1
41
1
41
1
10
43.351062913136396
20
-44.536720579541026
30
0
10
43.351062913136396
20
-44.57452834931641
30
0
10
43.47703713595542
20
-44.668954110221364
30
0
10
43.631003836191411
20
-44.746559192415376
30
0
0
SPLINE
5
408
100
AcDbEntity
8
0
100
AcDbSpline
70
4
71
3
72
8
73
4
74
0
42
0.000000001
43
0.0000000001
44
0.0000000001
40
0
40
0
40
0
40
0
40
1
40
1
40
1
40
1
41
1
41
1
41
1
41
1
10
43.631003836191411
20
-44.746559192415376
30
0
10
44.365458359913738
20
-45.116743315136738
30
0
10
45.277980179982109
20
-45.798607379671232
30
0
10
45.987952993906262
20
-46.507737221793626
30
0
0
SPLINE
5
409
100
AcDbEntity
8
0
100
AcDbSpline
70
4
71
3
72
8
73
4
74
0
42
0.000000001
43
0.0000000001
44
0.0000000001
40
0
40
0
40
0
40
0
40
1
40
1
40
1
40
1
41
1
41
1
41
1
41
1
10
45.987952993906262
20
-46.507737221793626
30
0
10
47.401917074716799
20
-47.920021818554694
30
0
10
48.304536398447269
20
-49.492148079947924
30
0
10
48.667408305999373
20
-51.174648741162123
30
0
0
SPLINE
5
410
100
AcDbEntity
8
0
100
AcDbSpline
70
4
71
3
72
8
73
4
74
0
42
0.000000001
43
0.0000000001
44
0.0000000001
40
0
40
0
40
0
40
0
40
1
40
1
40
1
40
1
41
1
41
1
41
1
41
1
10
48.667408305999373
20
-51.174648741162123
30
0
10
48.742448945240895
20
-51.522586159781909
30
0
10
48.762990327076849
20
-51.856596779899107
30
0
10
48.761943879322942
20
-52.712248686230474
30
0
0
SPLINE
5
411
100
AcDbEntity
8
0
100
AcDbSpline
70
4
71
3
72
8
73
4
74
0
42
0.000000001
43
0.0000000001
44
0.0000000001
40
0
40
0
40
0
40
0
40
1
40
1
40
1
40
1
41
1
41
1
41
1
41
1
10
48.761943879322942
20
-52.712248686230474
30
0
10
48.760697185393909
20
-53.712911121126311
30
0
10
48.748391734954453
20
-53.856926878369151
30
0
10
48.615996715423186
20
-54.415129240429692
30
0
0
SPLINE
5
412
100
AcDbEntity
8
0
100
AcDbSpline
70
4
71
3
72
8
73
4
74
0
42
0.000000001
43
0.0000000001
44
0.0000000001
40
0
40
0
40
0
40
0
40
1
40
1
40
1
40
1
41
1
41
1
41
1
41
1
10
48.615996715423186
20
-54.415129240429692
30
0
10
48.481398987965498
20
-54.982678577181012
30
0
10
48.477452200449221
20
-55.031603239453133
30
0
10
48.559004070159517
20
-55.121714018261727
30
0
0
SPLINE
5
413
100
AcDbEntity
8
0
100
AcDbSpline
70
4
71
3
72
8
73
4
74
0
42
0.000000001
43
0.0000000001
44
0.0000000001
40
0
40
0
40
0
40
0
40
1
40
1
40
1
40
1
41
1
41
1
41
1
41
1
10
48.559004070159517
20
-55.121714018261727
30
0
10
48.837921153899742
20
-55.429918720003286
30
0
10
50.223495494720055
20
-55.815089008089203
30
0
10
51.269426484303402
20
-55.875175779736352
30
0
0
SPLINE
5
414
100
AcDbEntity
8
0
100
AcDbSpline
70
4
71
3
72
8
73
4
74
0
42
0.000000001
43
0.0000000001
44
0.0000000001
40
0
40
0
40
0
40
0
40
1
40
1
40
1
40
1
41
1
41
1
41
1
41
1
10
51.269426484303402
20
-55.875175779736352
30
0
10
51.700989289479189
20
-55.899961088574237
30
0
10
52.312489431894534
20
-55.852909696972688
30
0
10
52.652003592050789
20
-55.768780465201829
30
0
0
SPLINE
5
415
100
AcDbEntity
8
0
100
AcDbSpline
70
4
71
3
72
8
73
4
74
0
42
0.000000001
43
0.0000000001
44
0.0000000001
40
0
40
0
40
0
40
0
40
1
40
1
40
1
40
1
41
1
41
1
41
1
41
1
10
17.358027405934244
20
-11.89134241588542
30
0
10
17.932955168283691
20
-11.741590574658204
30
0
10
18.30594112256836
20
-11.421371102408855
30
0
10
18.534988834258627
20
-10.880875992850751
30
0
0
SPLINE
5
416
100
AcDbEntity
8
0
100
AcDbSpline
70
4
71
3
72
8
73
4
74
0
42
0.000000001
43
0.0000000001
44
0.0000000001
40
0
40
0
40
0
40
0
40
1
40
1
40
1
40
1
41
1
41
1
41
1
41
1
10
18.534988834258627
20
-10.880875992850751
30
0
10
18.656636770761718
20
-10.593813411470542
30
0
10
18.697520903146973
20
-9.6748045842610697
30
0
10
18.610612448251953
20
-9.1809458399576833
30
0
0
SPLINE
5
417
100
AcDbEntity
8
0
100
AcDbSpline
70
4
71
3
72
8
73
4
74
0
42
0.000000001
43
0.0000000001
44
0.0000000001
40
0
40
0
40
0
40
0
40
1
40
1
40
1
40
1
41
1
41
1
41
1
41
1
10
18.610612448251953
20
-9.1809458399576833
30
0
10
18.465009255604656
20
-8.3535205698771176
30
0
10
18.0345138917334
20
-7.279889397696941
30
0
10
17.70266076266439
20
-6.9165620915852877
30
0
0
SPLINE
5
418
100
AcDbEntity
8
0
100
AcDbSpline
70
4
71
3
72
8
73
4
74
0
42
0.000000001
43
0.0000000001
44
0.0000000001
40
0
40
0
40
0
40
0
40
1
40
1
40
1
40
1
41
1
41
1
41
1
41
1
10
17.70266076266439
20
-6.9165620915852877
30
0
10
17.438124261097819
20
-6.6269253779215509
30
0
10
17.410084951914062
20
-6.6897703791422547
30
0
10
17.40691815554769
20
-7.5794544459147151
30
0
0
SPLINE
5
419
100
AcDbEntity
8
0
100
AcDbSpline
70
4
71
3
72
8
73
4
74
0
42
0.000000001
43
0.0000000001
44
0.0000000001
40
0
40
0
40
0
40
0
40
1
40
1
40
1
40
1
41
1
41
1
41
1
41
1
10
17.40691815554769
20
-7.5794544459147151
30
0
10
17.404770353830568
20
-8.1816173029703787
30
0
10
17.380958822763674
20
-8.4524114975097664
30
0
10
17.308824982838541
20
-8.6946609227620453
30
0
0
SPLINE
5
420
100
AcDbEntity
8
0
100
AcDbSpline
70
4
71
3
72
8
73
4
74
0
42
0.000000001
43
0.0000000001
44
0.0000000001
40
0
40
0
40
0
40
0
40
1
40
1
40
1
40
1
41
1
41
1
41
1
41
1
10
17.308824982838541
20
-8.6946609227620453
30
0
10
16.993162725961916
20
-9.7547286463541703
30
0
10
16.163844806548667
20
-10.631868259187829
30
0
10
14.907073973215335
20
-11.23490961559245
30
0
0
SPLINE
5
421
100
AcDbEntity
8
0
100
AcDbSpline
70
4
71
3
72
8
73
4
74
0
42
0.000000001
43
0.0000000001
44
0.0000000001
40
0
40
0
40
0
40
0
40
1
40
1
40
1
40
1
41
1
41
1
41
1
41
1
10
14.907073973215335
20
-11.23490961559245
30
0
10
14.655878065622563
20
-11.355438434358726
30
0
10
14.450360894398601
20
-11.474093982454432
30
0
10
14.450360894398601
20
-11.498588611360681
30
0
0
SPLINE
5
422
100
AcDbEntity
8
0
100
AcDbSpline
70
4
71
3
72
8
73
4
74
0
42
0.000000001
43
0.0000000001
44
0.0000000001
40
0
40
0
40
0
40
0
40
1
40
1
40
1
40
1
41
1
41
1
41
1
41
1
10
14.450360894398601
20
-11.498588611360681
30
0
10
14.450360894398601
20
-11.572831495678713
30
0
10
15.418090907928061
20
-11.838939283764651
30
0
10
16.050029079314779
20
-11.938464862581382
30
0
0
SPLINE
5
423
100
AcDbEntity
8
0
100
AcDbSpline
70
4
71
3
72
8
73
4
74
0
42
0.000000001
43
0.0000000001
44
0.0000000001
40
0
40
0
40
0
40
0
40
1
40
1
40
1
40
1
41
1
41
1
41
1
41
1
10
16.050029079314779
20
-11.938464862581382
30
0
10
16.385819306569012
20
-11.991352461254884
30
0
10
17.068492430246582
20
-11.966757709261069
30
0
10
17.358027405934244
20
-11.89134241588542
30
0
0
ENDSEC
0
SECTION
2
OBJECTS
0
DICTIONARY
5
C
100
AcDbDictionary
3
ACAD_GROUP
350
D
3
ACAD_MLINESTYLE
350
17
0
DICTIONARY
5
D
100
AcDbDictionary
0
DICTIONARY
5
1A
330
C
100
AcDbDictionary
0
DICTIONARY
5
17
100
AcDbDictionary
0
ENDSEC
0
EOF
